M48
;DRILL file {KiCad (5.0.0-3-g5ebb6b6)} date Wednesday, September 05, 2018 at 08:55:15 PM
;FORMAT={-:-/ absolute / inch / decimal}
FMAT,2
INCH,TZ
T1C0.0157
T2C0.0315
T3C0.0354
T4C0.0394
T5C0.0827
%
G90
G05
M72
T1
X5.05Y-3.05
X5.05Y-4.2
X6.9Y-3.05
X6.9Y-4.2
T2
X6.5Y-3.15
X6.5Y-3.25
X6.5Y-3.35
X6.5Y-3.45
X6.8Y-3.15
X6.8Y-3.25
X6.8Y-3.35
X6.8Y-3.45
X6.55Y-4.05
X6.75Y-4.05
X5.65Y-3.7047
X5.65Y-4.
X6.Y-3.8
X6.Y-4.1
X6.1Y-3.8
X6.1Y-4.1
X6.2Y-3.8
X6.2Y-4.1
X6.3Y-3.8
X6.3Y-4.1
X5.4Y-3.75
X5.4Y-3.95
X5.2Y-3.75
X5.2Y-3.95
T3
X6.65Y-3.7
X6.65Y-3.8
T4
X5.35Y-3.2531
X5.35Y-3.3516
X5.35Y-3.45
X6.3Y-3.35
X6.3Y-3.45
X6.3Y-3.55
T5
X5.1886Y-3.1646
X5.1886Y-3.5386
T0
M30
