G04 #@! TF.GenerationSoftware,KiCad,Pcbnew,(5.0.0-3-g5ebb6b6)*
G04 #@! TF.CreationDate,2018-09-05T20:54:59-07:00*
G04 #@! TF.ProjectId,Light Sensor with TH,4C696768742053656E736F7220776974,rev?*
G04 #@! TF.SameCoordinates,Original*
G04 #@! TF.FileFunction,Copper,L2,Bot,Signal*
G04 #@! TF.FilePolarity,Positive*
%FSLAX46Y46*%
G04 Gerber Fmt 4.6, Leading zero omitted, Abs format (unit mm)*
G04 Created by KiCad (PCBNEW (5.0.0-3-g5ebb6b6)) date Wednesday, September 05, 2018 at 08:54:59 PM*
%MOMM*%
%LPD*%
G01*
G04 APERTURE LIST*
G04 #@! TA.AperFunction,ComponentPad*
%ADD10C,1.600000*%
G04 #@! TD*
G04 #@! TA.AperFunction,ComponentPad*
%ADD11O,1.600000X1.600000*%
G04 #@! TD*
G04 #@! TA.AperFunction,ComponentPad*
%ADD12R,1.700000X1.700000*%
G04 #@! TD*
G04 #@! TA.AperFunction,ComponentPad*
%ADD13O,1.700000X1.700000*%
G04 #@! TD*
G04 #@! TA.AperFunction,ComponentPad*
%ADD14R,1.800000X1.800000*%
G04 #@! TD*
G04 #@! TA.AperFunction,ComponentPad*
%ADD15C,1.800000*%
G04 #@! TD*
G04 #@! TA.AperFunction,ComponentPad*
%ADD16R,1.600000X1.600000*%
G04 #@! TD*
G04 #@! TA.AperFunction,ComponentPad*
%ADD17C,4.200000*%
G04 #@! TD*
G04 #@! TA.AperFunction,ViaPad*
%ADD18C,0.800000*%
G04 #@! TD*
G04 #@! TA.AperFunction,Conductor*
%ADD19C,0.250000*%
G04 #@! TD*
G04 #@! TA.AperFunction,Conductor*
%ADD20C,0.254000*%
G04 #@! TD*
G04 APERTURE END LIST*
D10*
G04 #@! TO.P,C1,1*
G04 #@! TO.N,Net-(C1-Pad1)*
X143510000Y-101600000D03*
D11*
G04 #@! TO.P,C1,2*
G04 #@! TO.N,Net-(C1-Pad2)*
X143510000Y-94100000D03*
G04 #@! TD*
D12*
G04 #@! TO.P,J1,1*
G04 #@! TO.N,GND*
X160020000Y-85090000D03*
D13*
G04 #@! TO.P,J1,2*
G04 #@! TO.N,Net-(J1-Pad2)*
X160020000Y-87630000D03*
G04 #@! TO.P,J1,3*
G04 #@! TO.N,+3V3*
X160020000Y-90170000D03*
G04 #@! TD*
D14*
G04 #@! TO.P,D1,1*
G04 #@! TO.N,GND*
X168910000Y-96520000D03*
D15*
G04 #@! TO.P,D1,2*
G04 #@! TO.N,Net-(D1-Pad2)*
X168910000Y-93980000D03*
G04 #@! TD*
D11*
G04 #@! TO.P,U2,8*
G04 #@! TO.N,+3V3*
X165100000Y-87630000D03*
G04 #@! TO.P,U2,4*
G04 #@! TO.N,GND*
X172720000Y-80010000D03*
G04 #@! TO.P,U2,7*
G04 #@! TO.N,N/C*
X165100000Y-85090000D03*
G04 #@! TO.P,U2,3*
X172720000Y-82550000D03*
G04 #@! TO.P,U2,6*
X165100000Y-82550000D03*
G04 #@! TO.P,U2,2*
X172720000Y-85090000D03*
G04 #@! TO.P,U2,5*
X165100000Y-80010000D03*
D16*
G04 #@! TO.P,U2,1*
X172720000Y-87630000D03*
G04 #@! TD*
G04 #@! TO.P,U1,1*
G04 #@! TO.N,Net-(C1-Pad1)*
X160020000Y-96520000D03*
D11*
G04 #@! TO.P,U1,5*
X152400000Y-104140000D03*
G04 #@! TO.P,U1,2*
G04 #@! TO.N,Net-(C1-Pad2)*
X157480000Y-96520000D03*
G04 #@! TO.P,U1,6*
G04 #@! TO.N,Net-(RV1-Pad2)*
X154940000Y-104140000D03*
G04 #@! TO.P,U1,3*
G04 #@! TO.N,Net-(D1-Pad2)*
X154940000Y-96520000D03*
G04 #@! TO.P,U1,7*
G04 #@! TO.N,Net-(U1-Pad7)*
X157480000Y-104140000D03*
G04 #@! TO.P,U1,4*
G04 #@! TO.N,GND*
X152400000Y-96520000D03*
G04 #@! TO.P,U1,8*
G04 #@! TO.N,+3V3*
X160020000Y-104140000D03*
G04 #@! TD*
D15*
G04 #@! TO.P,RV1,3*
G04 #@! TO.N,GND*
X135890000Y-82630000D03*
G04 #@! TO.P,RV1,2*
G04 #@! TO.N,Net-(RV1-Pad2)*
X135890000Y-85130000D03*
G04 #@! TO.P,RV1,1*
G04 #@! TO.N,+3V3*
X135890000Y-87630000D03*
D17*
G04 #@! TO.P,RV1,*
G04 #@! TO.N,*
X131790000Y-80380000D03*
X131790000Y-89880000D03*
G04 #@! TD*
D10*
G04 #@! TO.P,R3,1*
G04 #@! TO.N,Net-(C1-Pad1)*
X137160000Y-100330000D03*
D11*
G04 #@! TO.P,R3,2*
G04 #@! TO.N,Net-(C1-Pad2)*
X137160000Y-95250000D03*
G04 #@! TD*
G04 #@! TO.P,R2,2*
G04 #@! TO.N,GND*
X166370000Y-102870000D03*
D10*
G04 #@! TO.P,R2,1*
G04 #@! TO.N,Net-(D1-Pad2)*
X171450000Y-102870000D03*
G04 #@! TD*
G04 #@! TO.P,R1,1*
G04 #@! TO.N,Net-(C1-Pad2)*
X132080000Y-100330000D03*
D11*
G04 #@! TO.P,R1,2*
G04 #@! TO.N,GND*
X132080000Y-95250000D03*
G04 #@! TD*
D18*
G04 #@! TO.N,GND*
X175260000Y-77470000D03*
X175260000Y-106680000D03*
X128270000Y-106680000D03*
X128270000Y-77470000D03*
G04 #@! TD*
D19*
G04 #@! TO.N,GND*
X135890000Y-82630000D02*
X135890000Y-77470000D01*
X135890000Y-77470000D02*
X133985000Y-75565000D01*
X130175000Y-75565000D02*
X128270000Y-77470000D01*
X133985000Y-75565000D02*
X130175000Y-75565000D01*
X128270000Y-99060000D02*
X128270000Y-106680000D01*
X132080000Y-95250000D02*
X128270000Y-99060000D01*
X173519999Y-79210001D02*
X175260000Y-77470000D01*
X172720000Y-80010000D02*
X173519999Y-79210001D01*
X160020000Y-85090000D02*
X160020000Y-79375000D01*
X161925000Y-77470000D02*
X175260000Y-77470000D01*
X160020000Y-79375000D02*
X161925000Y-77470000D01*
X175260000Y-106114315D02*
X175260000Y-106680000D01*
X175260000Y-104020000D02*
X175260000Y-106114315D01*
X168910000Y-97670000D02*
X175260000Y-104020000D01*
X168910000Y-96520000D02*
X168910000Y-97670000D01*
X174694315Y-106680000D02*
X175260000Y-106680000D01*
X169048630Y-106680000D02*
X174694315Y-106680000D01*
X166370000Y-104001370D02*
X169048630Y-106680000D01*
X166370000Y-102870000D02*
X166370000Y-104001370D01*
X128835685Y-106680000D02*
X128270000Y-106680000D01*
X142240000Y-106680000D02*
X128835685Y-106680000D01*
X152400000Y-96520000D02*
X142240000Y-106680000D01*
X135890000Y-82630000D02*
X137875000Y-82630000D01*
X137875000Y-89455000D02*
X132080000Y-95250000D01*
X137875000Y-82630000D02*
X137875000Y-89455000D01*
X152400000Y-91610000D02*
X158920000Y-85090000D01*
X152400000Y-96520000D02*
X152400000Y-91610000D01*
X164551078Y-96520000D02*
X167760000Y-96520000D01*
X158790999Y-90759921D02*
X164551078Y-96520000D01*
X158790999Y-85219001D02*
X158790999Y-90759921D01*
X158920000Y-85090000D02*
X158790999Y-85219001D01*
X167760000Y-96520000D02*
X168910000Y-96520000D01*
X160020000Y-85090000D02*
X158920000Y-85090000D01*
G04 #@! TD*
D20*
G04 #@! TO.N,GND*
G36*
X177065001Y-75656091D02*
X177065000Y-107215000D01*
X126465000Y-107215000D01*
X126465000Y-104140000D01*
X150936887Y-104140000D01*
X151048260Y-104699909D01*
X151365423Y-105174577D01*
X151840091Y-105491740D01*
X152258667Y-105575000D01*
X152541333Y-105575000D01*
X152959909Y-105491740D01*
X153434577Y-105174577D01*
X153670000Y-104822242D01*
X153905423Y-105174577D01*
X154380091Y-105491740D01*
X154798667Y-105575000D01*
X155081333Y-105575000D01*
X155499909Y-105491740D01*
X155974577Y-105174577D01*
X156210000Y-104822242D01*
X156445423Y-105174577D01*
X156920091Y-105491740D01*
X157338667Y-105575000D01*
X157621333Y-105575000D01*
X158039909Y-105491740D01*
X158514577Y-105174577D01*
X158750000Y-104822242D01*
X158985423Y-105174577D01*
X159460091Y-105491740D01*
X159878667Y-105575000D01*
X160161333Y-105575000D01*
X160579909Y-105491740D01*
X161054577Y-105174577D01*
X161371740Y-104699909D01*
X161483113Y-104140000D01*
X161371740Y-103580091D01*
X161130493Y-103219039D01*
X164978096Y-103219039D01*
X165138959Y-103607423D01*
X165514866Y-104022389D01*
X166020959Y-104261914D01*
X166243000Y-104140629D01*
X166243000Y-102997000D01*
X166497000Y-102997000D01*
X166497000Y-104140629D01*
X166719041Y-104261914D01*
X167225134Y-104022389D01*
X167601041Y-103607423D01*
X167761904Y-103219039D01*
X167639915Y-102997000D01*
X166497000Y-102997000D01*
X166243000Y-102997000D01*
X165100085Y-102997000D01*
X164978096Y-103219039D01*
X161130493Y-103219039D01*
X161054577Y-103105423D01*
X160579909Y-102788260D01*
X160161333Y-102705000D01*
X159878667Y-102705000D01*
X159460091Y-102788260D01*
X158985423Y-103105423D01*
X158750000Y-103457758D01*
X158514577Y-103105423D01*
X158039909Y-102788260D01*
X157621333Y-102705000D01*
X157338667Y-102705000D01*
X156920091Y-102788260D01*
X156445423Y-103105423D01*
X156210000Y-103457758D01*
X155974577Y-103105423D01*
X155499909Y-102788260D01*
X155081333Y-102705000D01*
X154798667Y-102705000D01*
X154380091Y-102788260D01*
X153905423Y-103105423D01*
X153670000Y-103457758D01*
X153434577Y-103105423D01*
X152959909Y-102788260D01*
X152541333Y-102705000D01*
X152258667Y-102705000D01*
X151840091Y-102788260D01*
X151365423Y-103105423D01*
X151048260Y-103580091D01*
X150936887Y-104140000D01*
X126465000Y-104140000D01*
X126465000Y-100044561D01*
X130645000Y-100044561D01*
X130645000Y-100615439D01*
X130863466Y-101142862D01*
X131267138Y-101546534D01*
X131794561Y-101765000D01*
X132365439Y-101765000D01*
X132892862Y-101546534D01*
X133296534Y-101142862D01*
X133515000Y-100615439D01*
X133515000Y-100044561D01*
X135725000Y-100044561D01*
X135725000Y-100615439D01*
X135943466Y-101142862D01*
X136347138Y-101546534D01*
X136874561Y-101765000D01*
X137445439Y-101765000D01*
X137972862Y-101546534D01*
X138204835Y-101314561D01*
X142075000Y-101314561D01*
X142075000Y-101885439D01*
X142293466Y-102412862D01*
X142697138Y-102816534D01*
X143224561Y-103035000D01*
X143795439Y-103035000D01*
X144322862Y-102816534D01*
X144618435Y-102520961D01*
X164978096Y-102520961D01*
X165100085Y-102743000D01*
X166243000Y-102743000D01*
X166243000Y-101599371D01*
X166497000Y-101599371D01*
X166497000Y-102743000D01*
X167639915Y-102743000D01*
X167726961Y-102584561D01*
X170015000Y-102584561D01*
X170015000Y-103155439D01*
X170233466Y-103682862D01*
X170637138Y-104086534D01*
X171164561Y-104305000D01*
X171735439Y-104305000D01*
X172262862Y-104086534D01*
X172666534Y-103682862D01*
X172885000Y-103155439D01*
X172885000Y-102584561D01*
X172666534Y-102057138D01*
X172262862Y-101653466D01*
X171735439Y-101435000D01*
X171164561Y-101435000D01*
X170637138Y-101653466D01*
X170233466Y-102057138D01*
X170015000Y-102584561D01*
X167726961Y-102584561D01*
X167761904Y-102520961D01*
X167601041Y-102132577D01*
X167225134Y-101717611D01*
X166719041Y-101478086D01*
X166497000Y-101599371D01*
X166243000Y-101599371D01*
X166020959Y-101478086D01*
X165514866Y-101717611D01*
X165138959Y-102132577D01*
X164978096Y-102520961D01*
X144618435Y-102520961D01*
X144726534Y-102412862D01*
X144945000Y-101885439D01*
X144945000Y-101314561D01*
X144726534Y-100787138D01*
X144322862Y-100383466D01*
X143795439Y-100165000D01*
X143224561Y-100165000D01*
X142697138Y-100383466D01*
X142293466Y-100787138D01*
X142075000Y-101314561D01*
X138204835Y-101314561D01*
X138376534Y-101142862D01*
X138595000Y-100615439D01*
X138595000Y-100044561D01*
X138376534Y-99517138D01*
X137972862Y-99113466D01*
X137445439Y-98895000D01*
X136874561Y-98895000D01*
X136347138Y-99113466D01*
X135943466Y-99517138D01*
X135725000Y-100044561D01*
X133515000Y-100044561D01*
X133296534Y-99517138D01*
X132892862Y-99113466D01*
X132365439Y-98895000D01*
X131794561Y-98895000D01*
X131267138Y-99113466D01*
X130863466Y-99517138D01*
X130645000Y-100044561D01*
X126465000Y-100044561D01*
X126465000Y-96869041D01*
X151008086Y-96869041D01*
X151247611Y-97375134D01*
X151662577Y-97751041D01*
X152050961Y-97911904D01*
X152273000Y-97789915D01*
X152273000Y-96647000D01*
X151129371Y-96647000D01*
X151008086Y-96869041D01*
X126465000Y-96869041D01*
X126465000Y-95599041D01*
X130688086Y-95599041D01*
X130927611Y-96105134D01*
X131342577Y-96481041D01*
X131730961Y-96641904D01*
X131953000Y-96519915D01*
X131953000Y-95377000D01*
X132207000Y-95377000D01*
X132207000Y-96519915D01*
X132429039Y-96641904D01*
X132817423Y-96481041D01*
X133232389Y-96105134D01*
X133471914Y-95599041D01*
X133350629Y-95377000D01*
X132207000Y-95377000D01*
X131953000Y-95377000D01*
X130809371Y-95377000D01*
X130688086Y-95599041D01*
X126465000Y-95599041D01*
X126465000Y-95250000D01*
X135696887Y-95250000D01*
X135808260Y-95809909D01*
X136125423Y-96284577D01*
X136600091Y-96601740D01*
X137018667Y-96685000D01*
X137301333Y-96685000D01*
X137719909Y-96601740D01*
X138194577Y-96284577D01*
X138270494Y-96170959D01*
X151008086Y-96170959D01*
X151129371Y-96393000D01*
X152273000Y-96393000D01*
X152273000Y-95250085D01*
X152527000Y-95250085D01*
X152527000Y-96393000D01*
X152547000Y-96393000D01*
X152547000Y-96647000D01*
X152527000Y-96647000D01*
X152527000Y-97789915D01*
X152749039Y-97911904D01*
X153137423Y-97751041D01*
X153552389Y-97375134D01*
X153649053Y-97170892D01*
X153905423Y-97554577D01*
X154380091Y-97871740D01*
X154798667Y-97955000D01*
X155081333Y-97955000D01*
X155499909Y-97871740D01*
X155974577Y-97554577D01*
X156210000Y-97202242D01*
X156445423Y-97554577D01*
X156920091Y-97871740D01*
X157338667Y-97955000D01*
X157621333Y-97955000D01*
X158039909Y-97871740D01*
X158514577Y-97554577D01*
X158595215Y-97433894D01*
X158621843Y-97567765D01*
X158762191Y-97777809D01*
X158972235Y-97918157D01*
X159220000Y-97967440D01*
X160820000Y-97967440D01*
X161067765Y-97918157D01*
X161277809Y-97777809D01*
X161418157Y-97567765D01*
X161467440Y-97320000D01*
X161467440Y-96805750D01*
X167375000Y-96805750D01*
X167375000Y-97546309D01*
X167471673Y-97779698D01*
X167650301Y-97958327D01*
X167883690Y-98055000D01*
X168624250Y-98055000D01*
X168783000Y-97896250D01*
X168783000Y-96647000D01*
X169037000Y-96647000D01*
X169037000Y-97896250D01*
X169195750Y-98055000D01*
X169936310Y-98055000D01*
X170169699Y-97958327D01*
X170348327Y-97779698D01*
X170445000Y-97546309D01*
X170445000Y-96805750D01*
X170286250Y-96647000D01*
X169037000Y-96647000D01*
X168783000Y-96647000D01*
X167533750Y-96647000D01*
X167375000Y-96805750D01*
X161467440Y-96805750D01*
X161467440Y-95720000D01*
X161418157Y-95472235D01*
X161277809Y-95262191D01*
X161067765Y-95121843D01*
X160820000Y-95072560D01*
X159220000Y-95072560D01*
X158972235Y-95121843D01*
X158762191Y-95262191D01*
X158621843Y-95472235D01*
X158595215Y-95606106D01*
X158514577Y-95485423D01*
X158039909Y-95168260D01*
X157621333Y-95085000D01*
X157338667Y-95085000D01*
X156920091Y-95168260D01*
X156445423Y-95485423D01*
X156210000Y-95837758D01*
X155974577Y-95485423D01*
X155499909Y-95168260D01*
X155081333Y-95085000D01*
X154798667Y-95085000D01*
X154380091Y-95168260D01*
X153905423Y-95485423D01*
X153649053Y-95869108D01*
X153552389Y-95664866D01*
X153137423Y-95288959D01*
X152749039Y-95128096D01*
X152527000Y-95250085D01*
X152273000Y-95250085D01*
X152050961Y-95128096D01*
X151662577Y-95288959D01*
X151247611Y-95664866D01*
X151008086Y-96170959D01*
X138270494Y-96170959D01*
X138511740Y-95809909D01*
X138623113Y-95250000D01*
X138511740Y-94690091D01*
X138194577Y-94215423D01*
X138021835Y-94100000D01*
X142046887Y-94100000D01*
X142158260Y-94659909D01*
X142475423Y-95134577D01*
X142950091Y-95451740D01*
X143368667Y-95535000D01*
X143651333Y-95535000D01*
X144069909Y-95451740D01*
X144544577Y-95134577D01*
X144861740Y-94659909D01*
X144973113Y-94100000D01*
X144888510Y-93674670D01*
X167375000Y-93674670D01*
X167375000Y-94285330D01*
X167608690Y-94849507D01*
X167785044Y-95025861D01*
X167650301Y-95081673D01*
X167471673Y-95260302D01*
X167375000Y-95493691D01*
X167375000Y-96234250D01*
X167533750Y-96393000D01*
X168783000Y-96393000D01*
X168783000Y-96373000D01*
X169037000Y-96373000D01*
X169037000Y-96393000D01*
X170286250Y-96393000D01*
X170445000Y-96234250D01*
X170445000Y-95493691D01*
X170348327Y-95260302D01*
X170169699Y-95081673D01*
X170034956Y-95025861D01*
X170211310Y-94849507D01*
X170445000Y-94285330D01*
X170445000Y-93674670D01*
X170211310Y-93110493D01*
X169779507Y-92678690D01*
X169215330Y-92445000D01*
X168604670Y-92445000D01*
X168040493Y-92678690D01*
X167608690Y-93110493D01*
X167375000Y-93674670D01*
X144888510Y-93674670D01*
X144861740Y-93540091D01*
X144544577Y-93065423D01*
X144069909Y-92748260D01*
X143651333Y-92665000D01*
X143368667Y-92665000D01*
X142950091Y-92748260D01*
X142475423Y-93065423D01*
X142158260Y-93540091D01*
X142046887Y-94100000D01*
X138021835Y-94100000D01*
X137719909Y-93898260D01*
X137301333Y-93815000D01*
X137018667Y-93815000D01*
X136600091Y-93898260D01*
X136125423Y-94215423D01*
X135808260Y-94690091D01*
X135696887Y-95250000D01*
X126465000Y-95250000D01*
X126465000Y-94900959D01*
X130688086Y-94900959D01*
X130809371Y-95123000D01*
X131953000Y-95123000D01*
X131953000Y-93980085D01*
X132207000Y-93980085D01*
X132207000Y-95123000D01*
X133350629Y-95123000D01*
X133471914Y-94900959D01*
X133232389Y-94394866D01*
X132817423Y-94018959D01*
X132429039Y-93858096D01*
X132207000Y-93980085D01*
X131953000Y-93980085D01*
X131730961Y-93858096D01*
X131342577Y-94018959D01*
X130927611Y-94394866D01*
X130688086Y-94900959D01*
X126465000Y-94900959D01*
X126465000Y-89335975D01*
X129055000Y-89335975D01*
X129055000Y-90424025D01*
X129471379Y-91429253D01*
X130240747Y-92198621D01*
X131245975Y-92615000D01*
X132334025Y-92615000D01*
X133339253Y-92198621D01*
X134108621Y-91429253D01*
X134525000Y-90424025D01*
X134525000Y-89335975D01*
X134108621Y-88330747D01*
X133339253Y-87561379D01*
X132334025Y-87145000D01*
X131245975Y-87145000D01*
X130240747Y-87561379D01*
X129471379Y-88330747D01*
X129055000Y-89335975D01*
X126465000Y-89335975D01*
X126465000Y-84824670D01*
X134355000Y-84824670D01*
X134355000Y-85435330D01*
X134588690Y-85999507D01*
X134969183Y-86380000D01*
X134588690Y-86760493D01*
X134355000Y-87324670D01*
X134355000Y-87935330D01*
X134588690Y-88499507D01*
X135020493Y-88931310D01*
X135584670Y-89165000D01*
X136195330Y-89165000D01*
X136759507Y-88931310D01*
X137191310Y-88499507D01*
X137425000Y-87935330D01*
X137425000Y-87630000D01*
X158505908Y-87630000D01*
X158621161Y-88209418D01*
X158949375Y-88700625D01*
X159247761Y-88900000D01*
X158949375Y-89099375D01*
X158621161Y-89590582D01*
X158505908Y-90170000D01*
X158621161Y-90749418D01*
X158949375Y-91240625D01*
X159440582Y-91568839D01*
X159873744Y-91655000D01*
X160166256Y-91655000D01*
X160599418Y-91568839D01*
X161090625Y-91240625D01*
X161418839Y-90749418D01*
X161534092Y-90170000D01*
X161418839Y-89590582D01*
X161090625Y-89099375D01*
X160792239Y-88900000D01*
X161090625Y-88700625D01*
X161418839Y-88209418D01*
X161534092Y-87630000D01*
X161418839Y-87050582D01*
X161090625Y-86559375D01*
X161068967Y-86544904D01*
X161229698Y-86478327D01*
X161408327Y-86299699D01*
X161505000Y-86066310D01*
X161505000Y-85375750D01*
X161346250Y-85217000D01*
X160147000Y-85217000D01*
X160147000Y-85237000D01*
X159893000Y-85237000D01*
X159893000Y-85217000D01*
X158693750Y-85217000D01*
X158535000Y-85375750D01*
X158535000Y-86066310D01*
X158631673Y-86299699D01*
X158810302Y-86478327D01*
X158971033Y-86544904D01*
X158949375Y-86559375D01*
X158621161Y-87050582D01*
X158505908Y-87630000D01*
X137425000Y-87630000D01*
X137425000Y-87324670D01*
X137191310Y-86760493D01*
X136810817Y-86380000D01*
X137191310Y-85999507D01*
X137425000Y-85435330D01*
X137425000Y-84824670D01*
X137191310Y-84260493D01*
X137044507Y-84113690D01*
X158535000Y-84113690D01*
X158535000Y-84804250D01*
X158693750Y-84963000D01*
X159893000Y-84963000D01*
X159893000Y-83763750D01*
X160147000Y-83763750D01*
X160147000Y-84963000D01*
X161346250Y-84963000D01*
X161505000Y-84804250D01*
X161505000Y-84113690D01*
X161408327Y-83880301D01*
X161229698Y-83701673D01*
X160996309Y-83605000D01*
X160305750Y-83605000D01*
X160147000Y-83763750D01*
X159893000Y-83763750D01*
X159734250Y-83605000D01*
X159043691Y-83605000D01*
X158810302Y-83701673D01*
X158631673Y-83880301D01*
X158535000Y-84113690D01*
X137044507Y-84113690D01*
X136759507Y-83828690D01*
X136751710Y-83825461D01*
X136790554Y-83710159D01*
X135890000Y-82809605D01*
X134989446Y-83710159D01*
X135028290Y-83825461D01*
X135020493Y-83828690D01*
X134588690Y-84260493D01*
X134355000Y-84824670D01*
X126465000Y-84824670D01*
X126465000Y-79835975D01*
X129055000Y-79835975D01*
X129055000Y-80924025D01*
X129471379Y-81929253D01*
X130240747Y-82698621D01*
X131245975Y-83115000D01*
X132334025Y-83115000D01*
X133339253Y-82698621D01*
X133648538Y-82389336D01*
X134343542Y-82389336D01*
X134369161Y-82999460D01*
X134553357Y-83444148D01*
X134809841Y-83530554D01*
X135710395Y-82630000D01*
X136069605Y-82630000D01*
X136970159Y-83530554D01*
X137226643Y-83444148D01*
X137436458Y-82870664D01*
X137410839Y-82260540D01*
X137226643Y-81815852D01*
X136970159Y-81729446D01*
X136069605Y-82630000D01*
X135710395Y-82630000D01*
X134809841Y-81729446D01*
X134553357Y-81815852D01*
X134343542Y-82389336D01*
X133648538Y-82389336D01*
X134108621Y-81929253D01*
X134265778Y-81549841D01*
X134989446Y-81549841D01*
X135890000Y-82450395D01*
X136790554Y-81549841D01*
X136704148Y-81293357D01*
X136130664Y-81083542D01*
X135520540Y-81109161D01*
X135075852Y-81293357D01*
X134989446Y-81549841D01*
X134265778Y-81549841D01*
X134525000Y-80924025D01*
X134525000Y-80010000D01*
X163636887Y-80010000D01*
X163748260Y-80569909D01*
X164065423Y-81044577D01*
X164417758Y-81280000D01*
X164065423Y-81515423D01*
X163748260Y-81990091D01*
X163636887Y-82550000D01*
X163748260Y-83109909D01*
X164065423Y-83584577D01*
X164417758Y-83820000D01*
X164065423Y-84055423D01*
X163748260Y-84530091D01*
X163636887Y-85090000D01*
X163748260Y-85649909D01*
X164065423Y-86124577D01*
X164417758Y-86360000D01*
X164065423Y-86595423D01*
X163748260Y-87070091D01*
X163636887Y-87630000D01*
X163748260Y-88189909D01*
X164065423Y-88664577D01*
X164540091Y-88981740D01*
X164958667Y-89065000D01*
X165241333Y-89065000D01*
X165659909Y-88981740D01*
X166134577Y-88664577D01*
X166451740Y-88189909D01*
X166563113Y-87630000D01*
X166451740Y-87070091D01*
X166134577Y-86595423D01*
X165782242Y-86360000D01*
X166134577Y-86124577D01*
X166451740Y-85649909D01*
X166563113Y-85090000D01*
X166451740Y-84530091D01*
X166134577Y-84055423D01*
X165782242Y-83820000D01*
X166134577Y-83584577D01*
X166451740Y-83109909D01*
X166563113Y-82550000D01*
X171256887Y-82550000D01*
X171368260Y-83109909D01*
X171685423Y-83584577D01*
X172037758Y-83820000D01*
X171685423Y-84055423D01*
X171368260Y-84530091D01*
X171256887Y-85090000D01*
X171368260Y-85649909D01*
X171685423Y-86124577D01*
X171806106Y-86205215D01*
X171672235Y-86231843D01*
X171462191Y-86372191D01*
X171321843Y-86582235D01*
X171272560Y-86830000D01*
X171272560Y-88430000D01*
X171321843Y-88677765D01*
X171462191Y-88887809D01*
X171672235Y-89028157D01*
X171920000Y-89077440D01*
X173520000Y-89077440D01*
X173767765Y-89028157D01*
X173977809Y-88887809D01*
X174118157Y-88677765D01*
X174167440Y-88430000D01*
X174167440Y-86830000D01*
X174118157Y-86582235D01*
X173977809Y-86372191D01*
X173767765Y-86231843D01*
X173633894Y-86205215D01*
X173754577Y-86124577D01*
X174071740Y-85649909D01*
X174183113Y-85090000D01*
X174071740Y-84530091D01*
X173754577Y-84055423D01*
X173402242Y-83820000D01*
X173754577Y-83584577D01*
X174071740Y-83109909D01*
X174183113Y-82550000D01*
X174071740Y-81990091D01*
X173754577Y-81515423D01*
X173370892Y-81259053D01*
X173575134Y-81162389D01*
X173951041Y-80747423D01*
X174111904Y-80359039D01*
X173989915Y-80137000D01*
X172847000Y-80137000D01*
X172847000Y-80157000D01*
X172593000Y-80157000D01*
X172593000Y-80137000D01*
X171450085Y-80137000D01*
X171328096Y-80359039D01*
X171488959Y-80747423D01*
X171864866Y-81162389D01*
X172069108Y-81259053D01*
X171685423Y-81515423D01*
X171368260Y-81990091D01*
X171256887Y-82550000D01*
X166563113Y-82550000D01*
X166451740Y-81990091D01*
X166134577Y-81515423D01*
X165782242Y-81280000D01*
X166134577Y-81044577D01*
X166451740Y-80569909D01*
X166563113Y-80010000D01*
X166493685Y-79660961D01*
X171328096Y-79660961D01*
X171450085Y-79883000D01*
X172593000Y-79883000D01*
X172593000Y-78739371D01*
X172847000Y-78739371D01*
X172847000Y-79883000D01*
X173989915Y-79883000D01*
X174111904Y-79660961D01*
X173951041Y-79272577D01*
X173575134Y-78857611D01*
X173069041Y-78618086D01*
X172847000Y-78739371D01*
X172593000Y-78739371D01*
X172370959Y-78618086D01*
X171864866Y-78857611D01*
X171488959Y-79272577D01*
X171328096Y-79660961D01*
X166493685Y-79660961D01*
X166451740Y-79450091D01*
X166134577Y-78975423D01*
X165659909Y-78658260D01*
X165241333Y-78575000D01*
X164958667Y-78575000D01*
X164540091Y-78658260D01*
X164065423Y-78975423D01*
X163748260Y-79450091D01*
X163636887Y-80010000D01*
X134525000Y-80010000D01*
X134525000Y-79835975D01*
X134108621Y-78830747D01*
X133339253Y-78061379D01*
X132334025Y-77645000D01*
X131245975Y-77645000D01*
X130240747Y-78061379D01*
X129471379Y-78830747D01*
X129055000Y-79835975D01*
X126465000Y-79835975D01*
X126465000Y-75039017D01*
X177065001Y-75656091D01*
X177065001Y-75656091D01*
G37*
X177065001Y-75656091D02*
X177065000Y-107215000D01*
X126465000Y-107215000D01*
X126465000Y-104140000D01*
X150936887Y-104140000D01*
X151048260Y-104699909D01*
X151365423Y-105174577D01*
X151840091Y-105491740D01*
X152258667Y-105575000D01*
X152541333Y-105575000D01*
X152959909Y-105491740D01*
X153434577Y-105174577D01*
X153670000Y-104822242D01*
X153905423Y-105174577D01*
X154380091Y-105491740D01*
X154798667Y-105575000D01*
X155081333Y-105575000D01*
X155499909Y-105491740D01*
X155974577Y-105174577D01*
X156210000Y-104822242D01*
X156445423Y-105174577D01*
X156920091Y-105491740D01*
X157338667Y-105575000D01*
X157621333Y-105575000D01*
X158039909Y-105491740D01*
X158514577Y-105174577D01*
X158750000Y-104822242D01*
X158985423Y-105174577D01*
X159460091Y-105491740D01*
X159878667Y-105575000D01*
X160161333Y-105575000D01*
X160579909Y-105491740D01*
X161054577Y-105174577D01*
X161371740Y-104699909D01*
X161483113Y-104140000D01*
X161371740Y-103580091D01*
X161130493Y-103219039D01*
X164978096Y-103219039D01*
X165138959Y-103607423D01*
X165514866Y-104022389D01*
X166020959Y-104261914D01*
X166243000Y-104140629D01*
X166243000Y-102997000D01*
X166497000Y-102997000D01*
X166497000Y-104140629D01*
X166719041Y-104261914D01*
X167225134Y-104022389D01*
X167601041Y-103607423D01*
X167761904Y-103219039D01*
X167639915Y-102997000D01*
X166497000Y-102997000D01*
X166243000Y-102997000D01*
X165100085Y-102997000D01*
X164978096Y-103219039D01*
X161130493Y-103219039D01*
X161054577Y-103105423D01*
X160579909Y-102788260D01*
X160161333Y-102705000D01*
X159878667Y-102705000D01*
X159460091Y-102788260D01*
X158985423Y-103105423D01*
X158750000Y-103457758D01*
X158514577Y-103105423D01*
X158039909Y-102788260D01*
X157621333Y-102705000D01*
X157338667Y-102705000D01*
X156920091Y-102788260D01*
X156445423Y-103105423D01*
X156210000Y-103457758D01*
X155974577Y-103105423D01*
X155499909Y-102788260D01*
X155081333Y-102705000D01*
X154798667Y-102705000D01*
X154380091Y-102788260D01*
X153905423Y-103105423D01*
X153670000Y-103457758D01*
X153434577Y-103105423D01*
X152959909Y-102788260D01*
X152541333Y-102705000D01*
X152258667Y-102705000D01*
X151840091Y-102788260D01*
X151365423Y-103105423D01*
X151048260Y-103580091D01*
X150936887Y-104140000D01*
X126465000Y-104140000D01*
X126465000Y-100044561D01*
X130645000Y-100044561D01*
X130645000Y-100615439D01*
X130863466Y-101142862D01*
X131267138Y-101546534D01*
X131794561Y-101765000D01*
X132365439Y-101765000D01*
X132892862Y-101546534D01*
X133296534Y-101142862D01*
X133515000Y-100615439D01*
X133515000Y-100044561D01*
X135725000Y-100044561D01*
X135725000Y-100615439D01*
X135943466Y-101142862D01*
X136347138Y-101546534D01*
X136874561Y-101765000D01*
X137445439Y-101765000D01*
X137972862Y-101546534D01*
X138204835Y-101314561D01*
X142075000Y-101314561D01*
X142075000Y-101885439D01*
X142293466Y-102412862D01*
X142697138Y-102816534D01*
X143224561Y-103035000D01*
X143795439Y-103035000D01*
X144322862Y-102816534D01*
X144618435Y-102520961D01*
X164978096Y-102520961D01*
X165100085Y-102743000D01*
X166243000Y-102743000D01*
X166243000Y-101599371D01*
X166497000Y-101599371D01*
X166497000Y-102743000D01*
X167639915Y-102743000D01*
X167726961Y-102584561D01*
X170015000Y-102584561D01*
X170015000Y-103155439D01*
X170233466Y-103682862D01*
X170637138Y-104086534D01*
X171164561Y-104305000D01*
X171735439Y-104305000D01*
X172262862Y-104086534D01*
X172666534Y-103682862D01*
X172885000Y-103155439D01*
X172885000Y-102584561D01*
X172666534Y-102057138D01*
X172262862Y-101653466D01*
X171735439Y-101435000D01*
X171164561Y-101435000D01*
X170637138Y-101653466D01*
X170233466Y-102057138D01*
X170015000Y-102584561D01*
X167726961Y-102584561D01*
X167761904Y-102520961D01*
X167601041Y-102132577D01*
X167225134Y-101717611D01*
X166719041Y-101478086D01*
X166497000Y-101599371D01*
X166243000Y-101599371D01*
X166020959Y-101478086D01*
X165514866Y-101717611D01*
X165138959Y-102132577D01*
X164978096Y-102520961D01*
X144618435Y-102520961D01*
X144726534Y-102412862D01*
X144945000Y-101885439D01*
X144945000Y-101314561D01*
X144726534Y-100787138D01*
X144322862Y-100383466D01*
X143795439Y-100165000D01*
X143224561Y-100165000D01*
X142697138Y-100383466D01*
X142293466Y-100787138D01*
X142075000Y-101314561D01*
X138204835Y-101314561D01*
X138376534Y-101142862D01*
X138595000Y-100615439D01*
X138595000Y-100044561D01*
X138376534Y-99517138D01*
X137972862Y-99113466D01*
X137445439Y-98895000D01*
X136874561Y-98895000D01*
X136347138Y-99113466D01*
X135943466Y-99517138D01*
X135725000Y-100044561D01*
X133515000Y-100044561D01*
X133296534Y-99517138D01*
X132892862Y-99113466D01*
X132365439Y-98895000D01*
X131794561Y-98895000D01*
X131267138Y-99113466D01*
X130863466Y-99517138D01*
X130645000Y-100044561D01*
X126465000Y-100044561D01*
X126465000Y-96869041D01*
X151008086Y-96869041D01*
X151247611Y-97375134D01*
X151662577Y-97751041D01*
X152050961Y-97911904D01*
X152273000Y-97789915D01*
X152273000Y-96647000D01*
X151129371Y-96647000D01*
X151008086Y-96869041D01*
X126465000Y-96869041D01*
X126465000Y-95599041D01*
X130688086Y-95599041D01*
X130927611Y-96105134D01*
X131342577Y-96481041D01*
X131730961Y-96641904D01*
X131953000Y-96519915D01*
X131953000Y-95377000D01*
X132207000Y-95377000D01*
X132207000Y-96519915D01*
X132429039Y-96641904D01*
X132817423Y-96481041D01*
X133232389Y-96105134D01*
X133471914Y-95599041D01*
X133350629Y-95377000D01*
X132207000Y-95377000D01*
X131953000Y-95377000D01*
X130809371Y-95377000D01*
X130688086Y-95599041D01*
X126465000Y-95599041D01*
X126465000Y-95250000D01*
X135696887Y-95250000D01*
X135808260Y-95809909D01*
X136125423Y-96284577D01*
X136600091Y-96601740D01*
X137018667Y-96685000D01*
X137301333Y-96685000D01*
X137719909Y-96601740D01*
X138194577Y-96284577D01*
X138270494Y-96170959D01*
X151008086Y-96170959D01*
X151129371Y-96393000D01*
X152273000Y-96393000D01*
X152273000Y-95250085D01*
X152527000Y-95250085D01*
X152527000Y-96393000D01*
X152547000Y-96393000D01*
X152547000Y-96647000D01*
X152527000Y-96647000D01*
X152527000Y-97789915D01*
X152749039Y-97911904D01*
X153137423Y-97751041D01*
X153552389Y-97375134D01*
X153649053Y-97170892D01*
X153905423Y-97554577D01*
X154380091Y-97871740D01*
X154798667Y-97955000D01*
X155081333Y-97955000D01*
X155499909Y-97871740D01*
X155974577Y-97554577D01*
X156210000Y-97202242D01*
X156445423Y-97554577D01*
X156920091Y-97871740D01*
X157338667Y-97955000D01*
X157621333Y-97955000D01*
X158039909Y-97871740D01*
X158514577Y-97554577D01*
X158595215Y-97433894D01*
X158621843Y-97567765D01*
X158762191Y-97777809D01*
X158972235Y-97918157D01*
X159220000Y-97967440D01*
X160820000Y-97967440D01*
X161067765Y-97918157D01*
X161277809Y-97777809D01*
X161418157Y-97567765D01*
X161467440Y-97320000D01*
X161467440Y-96805750D01*
X167375000Y-96805750D01*
X167375000Y-97546309D01*
X167471673Y-97779698D01*
X167650301Y-97958327D01*
X167883690Y-98055000D01*
X168624250Y-98055000D01*
X168783000Y-97896250D01*
X168783000Y-96647000D01*
X169037000Y-96647000D01*
X169037000Y-97896250D01*
X169195750Y-98055000D01*
X169936310Y-98055000D01*
X170169699Y-97958327D01*
X170348327Y-97779698D01*
X170445000Y-97546309D01*
X170445000Y-96805750D01*
X170286250Y-96647000D01*
X169037000Y-96647000D01*
X168783000Y-96647000D01*
X167533750Y-96647000D01*
X167375000Y-96805750D01*
X161467440Y-96805750D01*
X161467440Y-95720000D01*
X161418157Y-95472235D01*
X161277809Y-95262191D01*
X161067765Y-95121843D01*
X160820000Y-95072560D01*
X159220000Y-95072560D01*
X158972235Y-95121843D01*
X158762191Y-95262191D01*
X158621843Y-95472235D01*
X158595215Y-95606106D01*
X158514577Y-95485423D01*
X158039909Y-95168260D01*
X157621333Y-95085000D01*
X157338667Y-95085000D01*
X156920091Y-95168260D01*
X156445423Y-95485423D01*
X156210000Y-95837758D01*
X155974577Y-95485423D01*
X155499909Y-95168260D01*
X155081333Y-95085000D01*
X154798667Y-95085000D01*
X154380091Y-95168260D01*
X153905423Y-95485423D01*
X153649053Y-95869108D01*
X153552389Y-95664866D01*
X153137423Y-95288959D01*
X152749039Y-95128096D01*
X152527000Y-95250085D01*
X152273000Y-95250085D01*
X152050961Y-95128096D01*
X151662577Y-95288959D01*
X151247611Y-95664866D01*
X151008086Y-96170959D01*
X138270494Y-96170959D01*
X138511740Y-95809909D01*
X138623113Y-95250000D01*
X138511740Y-94690091D01*
X138194577Y-94215423D01*
X138021835Y-94100000D01*
X142046887Y-94100000D01*
X142158260Y-94659909D01*
X142475423Y-95134577D01*
X142950091Y-95451740D01*
X143368667Y-95535000D01*
X143651333Y-95535000D01*
X144069909Y-95451740D01*
X144544577Y-95134577D01*
X144861740Y-94659909D01*
X144973113Y-94100000D01*
X144888510Y-93674670D01*
X167375000Y-93674670D01*
X167375000Y-94285330D01*
X167608690Y-94849507D01*
X167785044Y-95025861D01*
X167650301Y-95081673D01*
X167471673Y-95260302D01*
X167375000Y-95493691D01*
X167375000Y-96234250D01*
X167533750Y-96393000D01*
X168783000Y-96393000D01*
X168783000Y-96373000D01*
X169037000Y-96373000D01*
X169037000Y-96393000D01*
X170286250Y-96393000D01*
X170445000Y-96234250D01*
X170445000Y-95493691D01*
X170348327Y-95260302D01*
X170169699Y-95081673D01*
X170034956Y-95025861D01*
X170211310Y-94849507D01*
X170445000Y-94285330D01*
X170445000Y-93674670D01*
X170211310Y-93110493D01*
X169779507Y-92678690D01*
X169215330Y-92445000D01*
X168604670Y-92445000D01*
X168040493Y-92678690D01*
X167608690Y-93110493D01*
X167375000Y-93674670D01*
X144888510Y-93674670D01*
X144861740Y-93540091D01*
X144544577Y-93065423D01*
X144069909Y-92748260D01*
X143651333Y-92665000D01*
X143368667Y-92665000D01*
X142950091Y-92748260D01*
X142475423Y-93065423D01*
X142158260Y-93540091D01*
X142046887Y-94100000D01*
X138021835Y-94100000D01*
X137719909Y-93898260D01*
X137301333Y-93815000D01*
X137018667Y-93815000D01*
X136600091Y-93898260D01*
X136125423Y-94215423D01*
X135808260Y-94690091D01*
X135696887Y-95250000D01*
X126465000Y-95250000D01*
X126465000Y-94900959D01*
X130688086Y-94900959D01*
X130809371Y-95123000D01*
X131953000Y-95123000D01*
X131953000Y-93980085D01*
X132207000Y-93980085D01*
X132207000Y-95123000D01*
X133350629Y-95123000D01*
X133471914Y-94900959D01*
X133232389Y-94394866D01*
X132817423Y-94018959D01*
X132429039Y-93858096D01*
X132207000Y-93980085D01*
X131953000Y-93980085D01*
X131730961Y-93858096D01*
X131342577Y-94018959D01*
X130927611Y-94394866D01*
X130688086Y-94900959D01*
X126465000Y-94900959D01*
X126465000Y-89335975D01*
X129055000Y-89335975D01*
X129055000Y-90424025D01*
X129471379Y-91429253D01*
X130240747Y-92198621D01*
X131245975Y-92615000D01*
X132334025Y-92615000D01*
X133339253Y-92198621D01*
X134108621Y-91429253D01*
X134525000Y-90424025D01*
X134525000Y-89335975D01*
X134108621Y-88330747D01*
X133339253Y-87561379D01*
X132334025Y-87145000D01*
X131245975Y-87145000D01*
X130240747Y-87561379D01*
X129471379Y-88330747D01*
X129055000Y-89335975D01*
X126465000Y-89335975D01*
X126465000Y-84824670D01*
X134355000Y-84824670D01*
X134355000Y-85435330D01*
X134588690Y-85999507D01*
X134969183Y-86380000D01*
X134588690Y-86760493D01*
X134355000Y-87324670D01*
X134355000Y-87935330D01*
X134588690Y-88499507D01*
X135020493Y-88931310D01*
X135584670Y-89165000D01*
X136195330Y-89165000D01*
X136759507Y-88931310D01*
X137191310Y-88499507D01*
X137425000Y-87935330D01*
X137425000Y-87630000D01*
X158505908Y-87630000D01*
X158621161Y-88209418D01*
X158949375Y-88700625D01*
X159247761Y-88900000D01*
X158949375Y-89099375D01*
X158621161Y-89590582D01*
X158505908Y-90170000D01*
X158621161Y-90749418D01*
X158949375Y-91240625D01*
X159440582Y-91568839D01*
X159873744Y-91655000D01*
X160166256Y-91655000D01*
X160599418Y-91568839D01*
X161090625Y-91240625D01*
X161418839Y-90749418D01*
X161534092Y-90170000D01*
X161418839Y-89590582D01*
X161090625Y-89099375D01*
X160792239Y-88900000D01*
X161090625Y-88700625D01*
X161418839Y-88209418D01*
X161534092Y-87630000D01*
X161418839Y-87050582D01*
X161090625Y-86559375D01*
X161068967Y-86544904D01*
X161229698Y-86478327D01*
X161408327Y-86299699D01*
X161505000Y-86066310D01*
X161505000Y-85375750D01*
X161346250Y-85217000D01*
X160147000Y-85217000D01*
X160147000Y-85237000D01*
X159893000Y-85237000D01*
X159893000Y-85217000D01*
X158693750Y-85217000D01*
X158535000Y-85375750D01*
X158535000Y-86066310D01*
X158631673Y-86299699D01*
X158810302Y-86478327D01*
X158971033Y-86544904D01*
X158949375Y-86559375D01*
X158621161Y-87050582D01*
X158505908Y-87630000D01*
X137425000Y-87630000D01*
X137425000Y-87324670D01*
X137191310Y-86760493D01*
X136810817Y-86380000D01*
X137191310Y-85999507D01*
X137425000Y-85435330D01*
X137425000Y-84824670D01*
X137191310Y-84260493D01*
X137044507Y-84113690D01*
X158535000Y-84113690D01*
X158535000Y-84804250D01*
X158693750Y-84963000D01*
X159893000Y-84963000D01*
X159893000Y-83763750D01*
X160147000Y-83763750D01*
X160147000Y-84963000D01*
X161346250Y-84963000D01*
X161505000Y-84804250D01*
X161505000Y-84113690D01*
X161408327Y-83880301D01*
X161229698Y-83701673D01*
X160996309Y-83605000D01*
X160305750Y-83605000D01*
X160147000Y-83763750D01*
X159893000Y-83763750D01*
X159734250Y-83605000D01*
X159043691Y-83605000D01*
X158810302Y-83701673D01*
X158631673Y-83880301D01*
X158535000Y-84113690D01*
X137044507Y-84113690D01*
X136759507Y-83828690D01*
X136751710Y-83825461D01*
X136790554Y-83710159D01*
X135890000Y-82809605D01*
X134989446Y-83710159D01*
X135028290Y-83825461D01*
X135020493Y-83828690D01*
X134588690Y-84260493D01*
X134355000Y-84824670D01*
X126465000Y-84824670D01*
X126465000Y-79835975D01*
X129055000Y-79835975D01*
X129055000Y-80924025D01*
X129471379Y-81929253D01*
X130240747Y-82698621D01*
X131245975Y-83115000D01*
X132334025Y-83115000D01*
X133339253Y-82698621D01*
X133648538Y-82389336D01*
X134343542Y-82389336D01*
X134369161Y-82999460D01*
X134553357Y-83444148D01*
X134809841Y-83530554D01*
X135710395Y-82630000D01*
X136069605Y-82630000D01*
X136970159Y-83530554D01*
X137226643Y-83444148D01*
X137436458Y-82870664D01*
X137410839Y-82260540D01*
X137226643Y-81815852D01*
X136970159Y-81729446D01*
X136069605Y-82630000D01*
X135710395Y-82630000D01*
X134809841Y-81729446D01*
X134553357Y-81815852D01*
X134343542Y-82389336D01*
X133648538Y-82389336D01*
X134108621Y-81929253D01*
X134265778Y-81549841D01*
X134989446Y-81549841D01*
X135890000Y-82450395D01*
X136790554Y-81549841D01*
X136704148Y-81293357D01*
X136130664Y-81083542D01*
X135520540Y-81109161D01*
X135075852Y-81293357D01*
X134989446Y-81549841D01*
X134265778Y-81549841D01*
X134525000Y-80924025D01*
X134525000Y-80010000D01*
X163636887Y-80010000D01*
X163748260Y-80569909D01*
X164065423Y-81044577D01*
X164417758Y-81280000D01*
X164065423Y-81515423D01*
X163748260Y-81990091D01*
X163636887Y-82550000D01*
X163748260Y-83109909D01*
X164065423Y-83584577D01*
X164417758Y-83820000D01*
X164065423Y-84055423D01*
X163748260Y-84530091D01*
X163636887Y-85090000D01*
X163748260Y-85649909D01*
X164065423Y-86124577D01*
X164417758Y-86360000D01*
X164065423Y-86595423D01*
X163748260Y-87070091D01*
X163636887Y-87630000D01*
X163748260Y-88189909D01*
X164065423Y-88664577D01*
X164540091Y-88981740D01*
X164958667Y-89065000D01*
X165241333Y-89065000D01*
X165659909Y-88981740D01*
X166134577Y-88664577D01*
X166451740Y-88189909D01*
X166563113Y-87630000D01*
X166451740Y-87070091D01*
X166134577Y-86595423D01*
X165782242Y-86360000D01*
X166134577Y-86124577D01*
X166451740Y-85649909D01*
X166563113Y-85090000D01*
X166451740Y-84530091D01*
X166134577Y-84055423D01*
X165782242Y-83820000D01*
X166134577Y-83584577D01*
X166451740Y-83109909D01*
X166563113Y-82550000D01*
X171256887Y-82550000D01*
X171368260Y-83109909D01*
X171685423Y-83584577D01*
X172037758Y-83820000D01*
X171685423Y-84055423D01*
X171368260Y-84530091D01*
X171256887Y-85090000D01*
X171368260Y-85649909D01*
X171685423Y-86124577D01*
X171806106Y-86205215D01*
X171672235Y-86231843D01*
X171462191Y-86372191D01*
X171321843Y-86582235D01*
X171272560Y-86830000D01*
X171272560Y-88430000D01*
X171321843Y-88677765D01*
X171462191Y-88887809D01*
X171672235Y-89028157D01*
X171920000Y-89077440D01*
X173520000Y-89077440D01*
X173767765Y-89028157D01*
X173977809Y-88887809D01*
X174118157Y-88677765D01*
X174167440Y-88430000D01*
X174167440Y-86830000D01*
X174118157Y-86582235D01*
X173977809Y-86372191D01*
X173767765Y-86231843D01*
X173633894Y-86205215D01*
X173754577Y-86124577D01*
X174071740Y-85649909D01*
X174183113Y-85090000D01*
X174071740Y-84530091D01*
X173754577Y-84055423D01*
X173402242Y-83820000D01*
X173754577Y-83584577D01*
X174071740Y-83109909D01*
X174183113Y-82550000D01*
X174071740Y-81990091D01*
X173754577Y-81515423D01*
X173370892Y-81259053D01*
X173575134Y-81162389D01*
X173951041Y-80747423D01*
X174111904Y-80359039D01*
X173989915Y-80137000D01*
X172847000Y-80137000D01*
X172847000Y-80157000D01*
X172593000Y-80157000D01*
X172593000Y-80137000D01*
X171450085Y-80137000D01*
X171328096Y-80359039D01*
X171488959Y-80747423D01*
X171864866Y-81162389D01*
X172069108Y-81259053D01*
X171685423Y-81515423D01*
X171368260Y-81990091D01*
X171256887Y-82550000D01*
X166563113Y-82550000D01*
X166451740Y-81990091D01*
X166134577Y-81515423D01*
X165782242Y-81280000D01*
X166134577Y-81044577D01*
X166451740Y-80569909D01*
X166563113Y-80010000D01*
X166493685Y-79660961D01*
X171328096Y-79660961D01*
X171450085Y-79883000D01*
X172593000Y-79883000D01*
X172593000Y-78739371D01*
X172847000Y-78739371D01*
X172847000Y-79883000D01*
X173989915Y-79883000D01*
X174111904Y-79660961D01*
X173951041Y-79272577D01*
X173575134Y-78857611D01*
X173069041Y-78618086D01*
X172847000Y-78739371D01*
X172593000Y-78739371D01*
X172370959Y-78618086D01*
X171864866Y-78857611D01*
X171488959Y-79272577D01*
X171328096Y-79660961D01*
X166493685Y-79660961D01*
X166451740Y-79450091D01*
X166134577Y-78975423D01*
X165659909Y-78658260D01*
X165241333Y-78575000D01*
X164958667Y-78575000D01*
X164540091Y-78658260D01*
X164065423Y-78975423D01*
X163748260Y-79450091D01*
X163636887Y-80010000D01*
X134525000Y-80010000D01*
X134525000Y-79835975D01*
X134108621Y-78830747D01*
X133339253Y-78061379D01*
X132334025Y-77645000D01*
X131245975Y-77645000D01*
X130240747Y-78061379D01*
X129471379Y-78830747D01*
X129055000Y-79835975D01*
X126465000Y-79835975D01*
X126465000Y-75039017D01*
X177065001Y-75656091D01*
G04 #@! TD*
M02*
