G04 #@! TF.GenerationSoftware,KiCad,Pcbnew,(5.0.0-3-g5ebb6b6)*
G04 #@! TF.CreationDate,2018-10-31T22:03:31-07:00*
G04 #@! TF.ProjectId,Digital Voltmeter,4469676974616C20566F6C746D657465,A*
G04 #@! TF.SameCoordinates,Original*
G04 #@! TF.FileFunction,Copper,L2,Bot,Signal*
G04 #@! TF.FilePolarity,Positive*
%FSLAX46Y46*%
G04 Gerber Fmt 4.6, Leading zero omitted, Abs format (unit mm)*
G04 Created by KiCad (PCBNEW (5.0.0-3-g5ebb6b6)) date Wednesday, October 31, 2018 at 10:03:31 PM*
%MOMM*%
%LPD*%
G01*
G04 APERTURE LIST*
G04 #@! TA.AperFunction,ComponentPad*
%ADD10R,1.700000X1.700000*%
G04 #@! TD*
G04 #@! TA.AperFunction,ComponentPad*
%ADD11O,1.700000X1.700000*%
G04 #@! TD*
G04 #@! TA.AperFunction,ComponentPad*
%ADD12C,1.524000*%
G04 #@! TD*
G04 #@! TA.AperFunction,ComponentPad*
%ADD13R,1.270000X1.270000*%
G04 #@! TD*
G04 #@! TA.AperFunction,ComponentPad*
%ADD14C,1.270000*%
G04 #@! TD*
G04 #@! TA.AperFunction,ComponentPad*
%ADD15C,1.300000*%
G04 #@! TD*
G04 #@! TA.AperFunction,ViaPad*
%ADD16C,0.800000*%
G04 #@! TD*
G04 #@! TA.AperFunction,Conductor*
%ADD17C,0.250000*%
G04 #@! TD*
G04 APERTURE END LIST*
D10*
G04 #@! TO.P,J2,1*
G04 #@! TO.N,/Vin=9V*
X108775500Y-98044000D03*
D11*
G04 #@! TO.P,J2,2*
G04 #@! TO.N,GND*
X108775500Y-100584000D03*
G04 #@! TD*
D10*
G04 #@! TO.P,J1,1*
G04 #@! TO.N,/Vin+*
X112776000Y-109029500D03*
D11*
G04 #@! TO.P,J1,2*
G04 #@! TO.N,/Vin-*
X112776000Y-106489500D03*
G04 #@! TD*
D12*
G04 #@! TO.P,U4,10*
G04 #@! TO.N,Net-(U3-Pad20)*
X168529000Y-90614500D03*
G04 #@! TO.P,U4,9*
G04 #@! TO.N,Net-(U4-Pad9)*
X168529000Y-88074500D03*
G04 #@! TO.P,U4,8*
G04 #@! TO.N,N/C*
X168529000Y-85534500D03*
G04 #@! TO.P,U4,7*
G04 #@! TO.N,Net-(U4-Pad7)*
X168529000Y-82994500D03*
G04 #@! TO.P,U4,6*
G04 #@! TO.N,Net-(U3-Pad19)*
X168529000Y-80454500D03*
G04 #@! TO.P,U4,5*
G04 #@! TO.N,Net-(U4-Pad5)*
X153289000Y-90614500D03*
G04 #@! TO.P,U4,4*
G04 #@! TO.N,Net-(U3-Pad19)*
X153289000Y-88074500D03*
G04 #@! TO.P,U4,3*
G04 #@! TO.N,5V*
X153289000Y-85534500D03*
G04 #@! TO.P,U4,2*
G04 #@! TO.N,Net-(U4-Pad2)*
X153289000Y-82994500D03*
G04 #@! TO.P,U4,1*
G04 #@! TO.N,Net-(U4-Pad1)*
X153289000Y-80454500D03*
G04 #@! TD*
D13*
G04 #@! TO.P,U3,1*
G04 #@! TO.N,5V*
X145669000Y-130937000D03*
D14*
G04 #@! TO.P,U3,2*
G04 #@! TO.N,Net-(U3-Pad2)*
X145669000Y-128397000D03*
G04 #@! TO.P,U3,3*
G04 #@! TO.N,Net-(U3-Pad3)*
X145669000Y-125857000D03*
G04 #@! TO.P,U3,4*
G04 #@! TO.N,Net-(U3-Pad4)*
X145669000Y-123317000D03*
G04 #@! TO.P,U3,5*
G04 #@! TO.N,Net-(U3-Pad5)*
X145669000Y-120777000D03*
G04 #@! TO.P,U3,6*
G04 #@! TO.N,Net-(U3-Pad6)*
X145669000Y-118237000D03*
G04 #@! TO.P,U3,7*
G04 #@! TO.N,Net-(U3-Pad7)*
X145669000Y-115697000D03*
G04 #@! TO.P,U3,8*
G04 #@! TO.N,Net-(U3-Pad8)*
X145669000Y-113157000D03*
G04 #@! TO.P,U3,9*
G04 #@! TO.N,Net-(U3-Pad9)*
X145669000Y-110617000D03*
G04 #@! TO.P,U3,10*
G04 #@! TO.N,Net-(U3-Pad10)*
X145669000Y-108077000D03*
G04 #@! TO.P,U3,11*
G04 #@! TO.N,Net-(U3-Pad11)*
X145669000Y-105537000D03*
G04 #@! TO.P,U3,12*
G04 #@! TO.N,Net-(U3-Pad12)*
X145669000Y-102997000D03*
G04 #@! TO.P,U3,13*
G04 #@! TO.N,Net-(U3-Pad13)*
X145669000Y-100457000D03*
G04 #@! TO.P,U3,14*
G04 #@! TO.N,Net-(U3-Pad14)*
X145669000Y-97917000D03*
G04 #@! TO.P,U3,15*
G04 #@! TO.N,Net-(U3-Pad15)*
X145669000Y-95377000D03*
G04 #@! TO.P,U3,16*
G04 #@! TO.N,Net-(U3-Pad16)*
X145669000Y-92837000D03*
G04 #@! TO.P,U3,17*
G04 #@! TO.N,Net-(U3-Pad17)*
X145669000Y-90297000D03*
G04 #@! TO.P,U3,18*
G04 #@! TO.N,Net-(U3-Pad18)*
X145669000Y-87757000D03*
G04 #@! TO.P,U3,19*
G04 #@! TO.N,Net-(U3-Pad19)*
X145669000Y-85217000D03*
G04 #@! TO.P,U3,20*
G04 #@! TO.N,Net-(U3-Pad20)*
X145669000Y-82677000D03*
G04 #@! TO.P,U3,21*
G04 #@! TO.N,GND*
X130429000Y-82677000D03*
G04 #@! TO.P,U3,22*
G04 #@! TO.N,Net-(U3-Pad22)*
X130429000Y-85217000D03*
G04 #@! TO.P,U3,23*
G04 #@! TO.N,Net-(U3-Pad23)*
X130429000Y-87757000D03*
G04 #@! TO.P,U3,24*
G04 #@! TO.N,Net-(U3-Pad24)*
X130429000Y-90297000D03*
G04 #@! TO.P,U3,25*
G04 #@! TO.N,Net-(U3-Pad25)*
X130429000Y-92837000D03*
G04 #@! TO.P,U3,26*
G04 #@! TO.N,-5V*
X130429000Y-95377000D03*
G04 #@! TO.P,U3,27*
G04 #@! TO.N,Net-(C8-Pad1)*
X130429000Y-97917000D03*
G04 #@! TO.P,U3,28*
G04 #@! TO.N,Net-(R3-Pad1)*
X130429000Y-100457000D03*
G04 #@! TO.P,U3,29*
G04 #@! TO.N,Net-(C7-Pad1)*
X130429000Y-102997000D03*
G04 #@! TO.P,U3,30*
G04 #@! TO.N,/Vin-*
X130429000Y-105537000D03*
G04 #@! TO.P,U3,31*
G04 #@! TO.N,Net-(C5-Pad2)*
X130429000Y-108077000D03*
G04 #@! TO.P,U3,32*
G04 #@! TO.N,/Vin-*
X130429000Y-110617000D03*
G04 #@! TO.P,U3,33*
G04 #@! TO.N,Net-(C6-Pad1)*
X130429000Y-113157000D03*
G04 #@! TO.P,U3,34*
G04 #@! TO.N,Net-(C6-Pad2)*
X130429000Y-115697000D03*
G04 #@! TO.P,U3,35*
G04 #@! TO.N,/Vin-*
X130429000Y-118237000D03*
G04 #@! TO.P,U3,36*
G04 #@! TO.N,Net-(RV1-Pad2)*
X130429000Y-120777000D03*
G04 #@! TO.P,U3,37*
G04 #@! TO.N,N/C*
X130429000Y-123317000D03*
G04 #@! TO.P,U3,38*
G04 #@! TO.N,Net-(C9-Pad1)*
X130429000Y-125857000D03*
G04 #@! TO.P,U3,39*
G04 #@! TO.N,Net-(R4-Pad1)*
X130429000Y-128397000D03*
G04 #@! TO.P,U3,40*
G04 #@! TO.N,Net-(C9-Pad2)*
X130429000Y-130937000D03*
G04 #@! TD*
D12*
G04 #@! TO.P,U7,1*
G04 #@! TO.N,Net-(U3-Pad8)*
X153289000Y-122237500D03*
G04 #@! TO.P,U7,2*
G04 #@! TO.N,Net-(U3-Pad2)*
X153289000Y-124777500D03*
G04 #@! TO.P,U7,3*
G04 #@! TO.N,5V*
X153289000Y-127317500D03*
G04 #@! TO.P,U7,4*
G04 #@! TO.N,Net-(U3-Pad3)*
X153289000Y-129857500D03*
G04 #@! TO.P,U7,5*
G04 #@! TO.N,Net-(U7-Pad5)*
X153289000Y-132397500D03*
G04 #@! TO.P,U7,6*
G04 #@! TO.N,Net-(U3-Pad4)*
X168529000Y-122237500D03*
G04 #@! TO.P,U7,7*
G04 #@! TO.N,Net-(U3-Pad5)*
X168529000Y-124777500D03*
G04 #@! TO.P,U7,8*
G04 #@! TO.N,N/C*
X168529000Y-127317500D03*
G04 #@! TO.P,U7,9*
G04 #@! TO.N,Net-(U3-Pad6)*
X168529000Y-129857500D03*
G04 #@! TO.P,U7,10*
G04 #@! TO.N,Net-(U3-Pad7)*
X168529000Y-132397500D03*
G04 #@! TD*
G04 #@! TO.P,U6,10*
G04 #@! TO.N,Net-(U3-Pad25)*
X168529000Y-118554500D03*
G04 #@! TO.P,U6,9*
G04 #@! TO.N,Net-(U3-Pad13)*
X168529000Y-116014500D03*
G04 #@! TO.P,U6,8*
G04 #@! TO.N,N/C*
X168529000Y-113474500D03*
G04 #@! TO.P,U6,7*
G04 #@! TO.N,Net-(U3-Pad12)*
X168529000Y-110934500D03*
G04 #@! TO.P,U6,6*
G04 #@! TO.N,Net-(U3-Pad11)*
X168529000Y-108394500D03*
G04 #@! TO.P,U6,5*
G04 #@! TO.N,Net-(R6-Pad1)*
X153289000Y-118554500D03*
G04 #@! TO.P,U6,4*
G04 #@! TO.N,Net-(U3-Pad10)*
X153289000Y-116014500D03*
G04 #@! TO.P,U6,3*
G04 #@! TO.N,5V*
X153289000Y-113474500D03*
G04 #@! TO.P,U6,2*
G04 #@! TO.N,Net-(U3-Pad9)*
X153289000Y-110934500D03*
G04 #@! TO.P,U6,1*
G04 #@! TO.N,Net-(U3-Pad14)*
X153289000Y-108394500D03*
G04 #@! TD*
G04 #@! TO.P,U5,1*
G04 #@! TO.N,Net-(U3-Pad18)*
X153289000Y-94424500D03*
G04 #@! TO.P,U5,2*
G04 #@! TO.N,Net-(U3-Pad15)*
X153289000Y-96964500D03*
G04 #@! TO.P,U5,3*
G04 #@! TO.N,5V*
X153289000Y-99504500D03*
G04 #@! TO.P,U5,4*
G04 #@! TO.N,Net-(U3-Pad24)*
X153289000Y-102044500D03*
G04 #@! TO.P,U5,5*
G04 #@! TO.N,Net-(U5-Pad5)*
X153289000Y-104584500D03*
G04 #@! TO.P,U5,6*
G04 #@! TO.N,Net-(U3-Pad16)*
X168529000Y-94424500D03*
G04 #@! TO.P,U5,7*
G04 #@! TO.N,Net-(U3-Pad23)*
X168529000Y-96964500D03*
G04 #@! TO.P,U5,8*
G04 #@! TO.N,N/C*
X168529000Y-99504500D03*
G04 #@! TO.P,U5,9*
G04 #@! TO.N,Net-(U3-Pad17)*
X168529000Y-102044500D03*
G04 #@! TO.P,U5,10*
G04 #@! TO.N,Net-(U3-Pad22)*
X168529000Y-104584500D03*
G04 #@! TD*
D15*
G04 #@! TO.P,RV1,1*
G04 #@! TO.N,/Vin-*
X124609000Y-116562000D03*
G04 #@! TO.P,RV1,2*
G04 #@! TO.N,Net-(RV1-Pad2)*
X121929000Y-118872000D03*
G04 #@! TO.P,RV1,3*
G04 #@! TO.N,Net-(R5-Pad2)*
X124609000Y-121182000D03*
G04 #@! TD*
D16*
G04 #@! TO.N,/Vin=9V*
X114427000Y-98742500D03*
X111696500Y-98742500D03*
G04 #@! TO.N,5V*
X114490500Y-104013000D03*
X116713000Y-131953000D03*
X114427000Y-97409000D03*
X123380500Y-101282500D03*
G04 #@! TO.N,GND*
X114871500Y-89725500D03*
X118935500Y-99314000D03*
G04 #@! TO.N,/Vin=9V*
X123380500Y-97409000D03*
X114490500Y-101282500D03*
X119634000Y-119380000D03*
G04 #@! TO.N,Net-(U3-Pad25)*
X132651500Y-94361000D03*
X137414000Y-89662000D03*
X141422001Y-79367499D03*
G04 #@! TD*
D17*
G04 #@! TO.N,/Vin-*
X131063999Y-109982001D02*
X130429000Y-110617000D01*
X131389001Y-109656999D02*
X131063999Y-109982001D01*
X131389001Y-106497001D02*
X131389001Y-109656999D01*
X130429000Y-105537000D02*
X131389001Y-106497001D01*
X131063999Y-117602001D02*
X130429000Y-118237000D01*
X131327025Y-110617000D02*
X131389001Y-110678976D01*
X131389001Y-117276999D02*
X131063999Y-117602001D01*
X131389001Y-110678976D02*
X131389001Y-117276999D01*
X130429000Y-110617000D02*
X131327025Y-110617000D01*
G04 #@! TO.N,5V*
X149669500Y-130937000D02*
X153289000Y-127317500D01*
X145669000Y-130937000D02*
X149669500Y-130937000D01*
X114090501Y-103613001D02*
X114490500Y-104013000D01*
X113284000Y-102806500D02*
X114090501Y-103613001D01*
X113284000Y-98552000D02*
X113284000Y-102806500D01*
X114427000Y-97409000D02*
X113284000Y-98552000D01*
X116713000Y-106451502D02*
X116713000Y-131953000D01*
X116821001Y-106343501D02*
X116713000Y-106451502D01*
X114490500Y-104013000D02*
X116821001Y-106343501D01*
G04 #@! TO.N,GND*
X118935500Y-93789500D02*
X114871500Y-89725500D01*
X118935500Y-99314000D02*
X118935500Y-93789500D01*
G04 #@! TO.N,/Vin=9V*
X119634000Y-106426000D02*
X114490500Y-101282500D01*
X119634000Y-119380000D02*
X119634000Y-106426000D01*
X119507000Y-101282500D02*
X114490500Y-101282500D01*
X123380500Y-97409000D02*
X119507000Y-101282500D01*
X114427000Y-101219000D02*
X114490500Y-101282500D01*
X114427000Y-98742500D02*
X114427000Y-101219000D01*
G04 #@! TO.N,Net-(U3-Pad19)*
X160909000Y-88074500D02*
X168338500Y-80645000D01*
X153289000Y-88074500D02*
X160909000Y-88074500D01*
X148526500Y-88074500D02*
X145669000Y-85217000D01*
X153289000Y-88074500D02*
X148526500Y-88074500D01*
G04 #@! TO.N,Net-(U3-Pad15)*
X147256500Y-96964500D02*
X145669000Y-95377000D01*
X153289000Y-96964500D02*
X147256500Y-96964500D01*
G04 #@! TO.N,Net-(U3-Pad24)*
X131063999Y-90931999D02*
X130429000Y-90297000D01*
X139628999Y-99496999D02*
X131063999Y-90931999D01*
X150741499Y-99496999D02*
X139628999Y-99496999D01*
X153289000Y-102044500D02*
X150741499Y-99496999D01*
G04 #@! TO.N,Net-(U3-Pad16)*
X166941500Y-92837000D02*
X168529000Y-94424500D01*
X145669000Y-92837000D02*
X166941500Y-92837000D01*
G04 #@! TO.N,Net-(U3-Pad17)*
X167767001Y-101282501D02*
X168529000Y-102044500D01*
X162361999Y-95877499D02*
X167767001Y-101282501D01*
X153133237Y-95877499D02*
X162361999Y-95877499D01*
X151672737Y-94416999D02*
X153133237Y-95877499D01*
X145828197Y-94416999D02*
X151672737Y-94416999D01*
X144708999Y-93297801D02*
X145828197Y-94416999D01*
X144708999Y-91257001D02*
X144708999Y-93297801D01*
X145669000Y-90297000D02*
X144708999Y-91257001D01*
G04 #@! TO.N,Net-(U3-Pad22)*
X131063999Y-85851999D02*
X130429000Y-85217000D01*
X141549001Y-96337001D02*
X131063999Y-85851999D01*
X145509803Y-96337001D02*
X141549001Y-96337001D01*
X161996001Y-98051501D02*
X147224303Y-98051501D01*
X147224303Y-98051501D02*
X145509803Y-96337001D01*
X168529000Y-104584500D02*
X161996001Y-98051501D01*
G04 #@! TO.N,Net-(U3-Pad25)*
X141422001Y-85653999D02*
X137414000Y-89662000D01*
X141422001Y-79367499D02*
X141422001Y-85653999D01*
X131127500Y-92837000D02*
X130429000Y-92837000D01*
X132651500Y-94361000D02*
X131127500Y-92837000D01*
G04 #@! TO.N,Net-(U3-Pad13)*
X143192500Y-107021302D02*
X145828197Y-109656999D01*
X143192500Y-102933500D02*
X143192500Y-107021302D01*
X145669000Y-100457000D02*
X143192500Y-102933500D01*
X153620261Y-109656999D02*
X145828197Y-109656999D01*
X159977762Y-116014500D02*
X153620261Y-109656999D01*
X168529000Y-116014500D02*
X159977762Y-116014500D01*
G04 #@! TO.N,Net-(U3-Pad12)*
X169290999Y-110172501D02*
X168529000Y-110934500D01*
X169616001Y-109847499D02*
X169290999Y-110172501D01*
X169616001Y-107872739D02*
X169616001Y-109847499D01*
X165240761Y-103497499D02*
X169616001Y-107872739D01*
X147067524Y-103497499D02*
X165240761Y-103497499D01*
X146567025Y-102997000D02*
X147067524Y-103497499D01*
X145669000Y-102997000D02*
X146567025Y-102997000D01*
G04 #@! TO.N,Net-(U3-Pad11)*
X146567025Y-105537000D02*
X145669000Y-105537000D01*
X152632738Y-105537000D02*
X146567025Y-105537000D01*
X155490238Y-108394500D02*
X152632738Y-105537000D01*
X168529000Y-108394500D02*
X155490238Y-108394500D01*
G04 #@! TO.N,Net-(U3-Pad9)*
X152971500Y-110617000D02*
X153289000Y-110934500D01*
X145669000Y-110617000D02*
X152971500Y-110617000D01*
G04 #@! TO.N,Net-(U3-Pad2)*
X149669500Y-128397000D02*
X153289000Y-124777500D01*
X145669000Y-128397000D02*
X149669500Y-128397000D01*
G04 #@! TO.N,Net-(U3-Pad4)*
X146567025Y-123317000D02*
X145669000Y-123317000D01*
X146574526Y-123324501D02*
X146567025Y-123317000D01*
X167441999Y-123324501D02*
X146574526Y-123324501D01*
X168529000Y-122237500D02*
X167441999Y-123324501D01*
G04 #@! TO.N,Net-(U3-Pad5)*
X145034001Y-121411999D02*
X145669000Y-120777000D01*
X144708999Y-128857801D02*
X144708999Y-121737001D01*
X144708999Y-121737001D02*
X145034001Y-121411999D01*
X145208199Y-129357001D02*
X144708999Y-128857801D01*
X149345909Y-129357001D02*
X145208199Y-129357001D01*
X152838409Y-125864501D02*
X149345909Y-129357001D01*
X167441999Y-125864501D02*
X152838409Y-125864501D01*
X168529000Y-124777500D02*
X167441999Y-125864501D01*
G04 #@! TO.N,Net-(U3-Pad6)*
X146303999Y-118871999D02*
X145669000Y-118237000D01*
X147073501Y-119641501D02*
X146303999Y-118871999D01*
X167541763Y-119641501D02*
X147073501Y-119641501D01*
X169616001Y-121715739D02*
X167541763Y-119641501D01*
X169616001Y-127839261D02*
X169616001Y-121715739D01*
X168529000Y-128926262D02*
X169616001Y-127839261D01*
X168529000Y-129857500D02*
X168529000Y-128926262D01*
G04 #@! TO.N,Net-(U3-Pad7)*
X146303999Y-116331999D02*
X145669000Y-115697000D01*
X147073501Y-117101501D02*
X146303999Y-116331999D01*
X168684763Y-117101501D02*
X147073501Y-117101501D01*
X170066011Y-118482749D02*
X168684763Y-117101501D01*
X170066011Y-130860489D02*
X170066011Y-118482749D01*
X168529000Y-132397500D02*
X170066011Y-130860489D01*
G04 #@! TD*
M02*
