G04 #@! TF.GenerationSoftware,KiCad,Pcbnew,(5.0.0-3-g5ebb6b6)*
G04 #@! TF.CreationDate,2018-10-31T22:03:31-07:00*
G04 #@! TF.ProjectId,Digital Voltmeter,4469676974616C20566F6C746D657465,A*
G04 #@! TF.SameCoordinates,Original*
G04 #@! TF.FileFunction,Soldermask,Top*
G04 #@! TF.FilePolarity,Negative*
%FSLAX46Y46*%
G04 Gerber Fmt 4.6, Leading zero omitted, Abs format (unit mm)*
G04 Created by KiCad (PCBNEW (5.0.0-3-g5ebb6b6)) date Wednesday, October 31, 2018 at 10:03:31 PM*
%MOMM*%
%LPD*%
G01*
G04 APERTURE LIST*
%ADD10R,2.100000X2.100000*%
%ADD11O,2.100000X2.100000*%
%ADD12C,0.100000*%
%ADD13C,1.350000*%
%ADD14C,1.924000*%
%ADD15R,4.400000X2.900000*%
%ADD16R,1.670000X1.670000*%
%ADD17C,1.670000*%
%ADD18C,1.700000*%
%ADD19R,2.381200X0.958800*%
%ADD20R,1.950000X1.000000*%
G04 APERTURE END LIST*
D10*
G04 #@! TO.C,J2*
X108775500Y-98044000D03*
D11*
X108775500Y-100584000D03*
G04 #@! TD*
D10*
G04 #@! TO.C,J1*
X112776000Y-109029500D03*
D11*
X112776000Y-106489500D03*
G04 #@! TD*
D12*
G04 #@! TO.C,C9*
G36*
X121719081Y-129691625D02*
X121751843Y-129696485D01*
X121783971Y-129704533D01*
X121815156Y-129715691D01*
X121845096Y-129729852D01*
X121873505Y-129746879D01*
X121900108Y-129766609D01*
X121924649Y-129788851D01*
X121946891Y-129813392D01*
X121966621Y-129839995D01*
X121983648Y-129868404D01*
X121997809Y-129898344D01*
X122008967Y-129929529D01*
X122017015Y-129961657D01*
X122021875Y-129994419D01*
X122023500Y-130027500D01*
X122023500Y-130802500D01*
X122021875Y-130835581D01*
X122017015Y-130868343D01*
X122008967Y-130900471D01*
X121997809Y-130931656D01*
X121983648Y-130961596D01*
X121966621Y-130990005D01*
X121946891Y-131016608D01*
X121924649Y-131041149D01*
X121900108Y-131063391D01*
X121873505Y-131083121D01*
X121845096Y-131100148D01*
X121815156Y-131114309D01*
X121783971Y-131125467D01*
X121751843Y-131133515D01*
X121719081Y-131138375D01*
X121686000Y-131140000D01*
X121011000Y-131140000D01*
X120977919Y-131138375D01*
X120945157Y-131133515D01*
X120913029Y-131125467D01*
X120881844Y-131114309D01*
X120851904Y-131100148D01*
X120823495Y-131083121D01*
X120796892Y-131063391D01*
X120772351Y-131041149D01*
X120750109Y-131016608D01*
X120730379Y-130990005D01*
X120713352Y-130961596D01*
X120699191Y-130931656D01*
X120688033Y-130900471D01*
X120679985Y-130868343D01*
X120675125Y-130835581D01*
X120673500Y-130802500D01*
X120673500Y-130027500D01*
X120675125Y-129994419D01*
X120679985Y-129961657D01*
X120688033Y-129929529D01*
X120699191Y-129898344D01*
X120713352Y-129868404D01*
X120730379Y-129839995D01*
X120750109Y-129813392D01*
X120772351Y-129788851D01*
X120796892Y-129766609D01*
X120823495Y-129746879D01*
X120851904Y-129729852D01*
X120881844Y-129715691D01*
X120913029Y-129704533D01*
X120945157Y-129696485D01*
X120977919Y-129691625D01*
X121011000Y-129690000D01*
X121686000Y-129690000D01*
X121719081Y-129691625D01*
X121719081Y-129691625D01*
G37*
D13*
X121348500Y-130415000D03*
D12*
G36*
X121719081Y-127941625D02*
X121751843Y-127946485D01*
X121783971Y-127954533D01*
X121815156Y-127965691D01*
X121845096Y-127979852D01*
X121873505Y-127996879D01*
X121900108Y-128016609D01*
X121924649Y-128038851D01*
X121946891Y-128063392D01*
X121966621Y-128089995D01*
X121983648Y-128118404D01*
X121997809Y-128148344D01*
X122008967Y-128179529D01*
X122017015Y-128211657D01*
X122021875Y-128244419D01*
X122023500Y-128277500D01*
X122023500Y-129052500D01*
X122021875Y-129085581D01*
X122017015Y-129118343D01*
X122008967Y-129150471D01*
X121997809Y-129181656D01*
X121983648Y-129211596D01*
X121966621Y-129240005D01*
X121946891Y-129266608D01*
X121924649Y-129291149D01*
X121900108Y-129313391D01*
X121873505Y-129333121D01*
X121845096Y-129350148D01*
X121815156Y-129364309D01*
X121783971Y-129375467D01*
X121751843Y-129383515D01*
X121719081Y-129388375D01*
X121686000Y-129390000D01*
X121011000Y-129390000D01*
X120977919Y-129388375D01*
X120945157Y-129383515D01*
X120913029Y-129375467D01*
X120881844Y-129364309D01*
X120851904Y-129350148D01*
X120823495Y-129333121D01*
X120796892Y-129313391D01*
X120772351Y-129291149D01*
X120750109Y-129266608D01*
X120730379Y-129240005D01*
X120713352Y-129211596D01*
X120699191Y-129181656D01*
X120688033Y-129150471D01*
X120679985Y-129118343D01*
X120675125Y-129085581D01*
X120673500Y-129052500D01*
X120673500Y-128277500D01*
X120675125Y-128244419D01*
X120679985Y-128211657D01*
X120688033Y-128179529D01*
X120699191Y-128148344D01*
X120713352Y-128118404D01*
X120730379Y-128089995D01*
X120750109Y-128063392D01*
X120772351Y-128038851D01*
X120796892Y-128016609D01*
X120823495Y-127996879D01*
X120851904Y-127979852D01*
X120881844Y-127965691D01*
X120913029Y-127954533D01*
X120945157Y-127946485D01*
X120977919Y-127941625D01*
X121011000Y-127940000D01*
X121686000Y-127940000D01*
X121719081Y-127941625D01*
X121719081Y-127941625D01*
G37*
D13*
X121348500Y-128665000D03*
G04 #@! TD*
D12*
G04 #@! TO.C,C8*
G36*
X126862581Y-92635625D02*
X126895343Y-92640485D01*
X126927471Y-92648533D01*
X126958656Y-92659691D01*
X126988596Y-92673852D01*
X127017005Y-92690879D01*
X127043608Y-92710609D01*
X127068149Y-92732851D01*
X127090391Y-92757392D01*
X127110121Y-92783995D01*
X127127148Y-92812404D01*
X127141309Y-92842344D01*
X127152467Y-92873529D01*
X127160515Y-92905657D01*
X127165375Y-92938419D01*
X127167000Y-92971500D01*
X127167000Y-93746500D01*
X127165375Y-93779581D01*
X127160515Y-93812343D01*
X127152467Y-93844471D01*
X127141309Y-93875656D01*
X127127148Y-93905596D01*
X127110121Y-93934005D01*
X127090391Y-93960608D01*
X127068149Y-93985149D01*
X127043608Y-94007391D01*
X127017005Y-94027121D01*
X126988596Y-94044148D01*
X126958656Y-94058309D01*
X126927471Y-94069467D01*
X126895343Y-94077515D01*
X126862581Y-94082375D01*
X126829500Y-94084000D01*
X126154500Y-94084000D01*
X126121419Y-94082375D01*
X126088657Y-94077515D01*
X126056529Y-94069467D01*
X126025344Y-94058309D01*
X125995404Y-94044148D01*
X125966995Y-94027121D01*
X125940392Y-94007391D01*
X125915851Y-93985149D01*
X125893609Y-93960608D01*
X125873879Y-93934005D01*
X125856852Y-93905596D01*
X125842691Y-93875656D01*
X125831533Y-93844471D01*
X125823485Y-93812343D01*
X125818625Y-93779581D01*
X125817000Y-93746500D01*
X125817000Y-92971500D01*
X125818625Y-92938419D01*
X125823485Y-92905657D01*
X125831533Y-92873529D01*
X125842691Y-92842344D01*
X125856852Y-92812404D01*
X125873879Y-92783995D01*
X125893609Y-92757392D01*
X125915851Y-92732851D01*
X125940392Y-92710609D01*
X125966995Y-92690879D01*
X125995404Y-92673852D01*
X126025344Y-92659691D01*
X126056529Y-92648533D01*
X126088657Y-92640485D01*
X126121419Y-92635625D01*
X126154500Y-92634000D01*
X126829500Y-92634000D01*
X126862581Y-92635625D01*
X126862581Y-92635625D01*
G37*
D13*
X126492000Y-93359000D03*
D12*
G36*
X126862581Y-94385625D02*
X126895343Y-94390485D01*
X126927471Y-94398533D01*
X126958656Y-94409691D01*
X126988596Y-94423852D01*
X127017005Y-94440879D01*
X127043608Y-94460609D01*
X127068149Y-94482851D01*
X127090391Y-94507392D01*
X127110121Y-94533995D01*
X127127148Y-94562404D01*
X127141309Y-94592344D01*
X127152467Y-94623529D01*
X127160515Y-94655657D01*
X127165375Y-94688419D01*
X127167000Y-94721500D01*
X127167000Y-95496500D01*
X127165375Y-95529581D01*
X127160515Y-95562343D01*
X127152467Y-95594471D01*
X127141309Y-95625656D01*
X127127148Y-95655596D01*
X127110121Y-95684005D01*
X127090391Y-95710608D01*
X127068149Y-95735149D01*
X127043608Y-95757391D01*
X127017005Y-95777121D01*
X126988596Y-95794148D01*
X126958656Y-95808309D01*
X126927471Y-95819467D01*
X126895343Y-95827515D01*
X126862581Y-95832375D01*
X126829500Y-95834000D01*
X126154500Y-95834000D01*
X126121419Y-95832375D01*
X126088657Y-95827515D01*
X126056529Y-95819467D01*
X126025344Y-95808309D01*
X125995404Y-95794148D01*
X125966995Y-95777121D01*
X125940392Y-95757391D01*
X125915851Y-95735149D01*
X125893609Y-95710608D01*
X125873879Y-95684005D01*
X125856852Y-95655596D01*
X125842691Y-95625656D01*
X125831533Y-95594471D01*
X125823485Y-95562343D01*
X125818625Y-95529581D01*
X125817000Y-95496500D01*
X125817000Y-94721500D01*
X125818625Y-94688419D01*
X125823485Y-94655657D01*
X125831533Y-94623529D01*
X125842691Y-94592344D01*
X125856852Y-94562404D01*
X125873879Y-94533995D01*
X125893609Y-94507392D01*
X125915851Y-94482851D01*
X125940392Y-94460609D01*
X125966995Y-94440879D01*
X125995404Y-94423852D01*
X126025344Y-94409691D01*
X126056529Y-94398533D01*
X126088657Y-94390485D01*
X126121419Y-94385625D01*
X126154500Y-94384000D01*
X126829500Y-94384000D01*
X126862581Y-94385625D01*
X126862581Y-94385625D01*
G37*
D13*
X126492000Y-95109000D03*
G04 #@! TD*
D12*
G04 #@! TO.C,C7*
G36*
X126862581Y-101271625D02*
X126895343Y-101276485D01*
X126927471Y-101284533D01*
X126958656Y-101295691D01*
X126988596Y-101309852D01*
X127017005Y-101326879D01*
X127043608Y-101346609D01*
X127068149Y-101368851D01*
X127090391Y-101393392D01*
X127110121Y-101419995D01*
X127127148Y-101448404D01*
X127141309Y-101478344D01*
X127152467Y-101509529D01*
X127160515Y-101541657D01*
X127165375Y-101574419D01*
X127167000Y-101607500D01*
X127167000Y-102382500D01*
X127165375Y-102415581D01*
X127160515Y-102448343D01*
X127152467Y-102480471D01*
X127141309Y-102511656D01*
X127127148Y-102541596D01*
X127110121Y-102570005D01*
X127090391Y-102596608D01*
X127068149Y-102621149D01*
X127043608Y-102643391D01*
X127017005Y-102663121D01*
X126988596Y-102680148D01*
X126958656Y-102694309D01*
X126927471Y-102705467D01*
X126895343Y-102713515D01*
X126862581Y-102718375D01*
X126829500Y-102720000D01*
X126154500Y-102720000D01*
X126121419Y-102718375D01*
X126088657Y-102713515D01*
X126056529Y-102705467D01*
X126025344Y-102694309D01*
X125995404Y-102680148D01*
X125966995Y-102663121D01*
X125940392Y-102643391D01*
X125915851Y-102621149D01*
X125893609Y-102596608D01*
X125873879Y-102570005D01*
X125856852Y-102541596D01*
X125842691Y-102511656D01*
X125831533Y-102480471D01*
X125823485Y-102448343D01*
X125818625Y-102415581D01*
X125817000Y-102382500D01*
X125817000Y-101607500D01*
X125818625Y-101574419D01*
X125823485Y-101541657D01*
X125831533Y-101509529D01*
X125842691Y-101478344D01*
X125856852Y-101448404D01*
X125873879Y-101419995D01*
X125893609Y-101393392D01*
X125915851Y-101368851D01*
X125940392Y-101346609D01*
X125966995Y-101326879D01*
X125995404Y-101309852D01*
X126025344Y-101295691D01*
X126056529Y-101284533D01*
X126088657Y-101276485D01*
X126121419Y-101271625D01*
X126154500Y-101270000D01*
X126829500Y-101270000D01*
X126862581Y-101271625D01*
X126862581Y-101271625D01*
G37*
D13*
X126492000Y-101995000D03*
D12*
G36*
X126862581Y-103021625D02*
X126895343Y-103026485D01*
X126927471Y-103034533D01*
X126958656Y-103045691D01*
X126988596Y-103059852D01*
X127017005Y-103076879D01*
X127043608Y-103096609D01*
X127068149Y-103118851D01*
X127090391Y-103143392D01*
X127110121Y-103169995D01*
X127127148Y-103198404D01*
X127141309Y-103228344D01*
X127152467Y-103259529D01*
X127160515Y-103291657D01*
X127165375Y-103324419D01*
X127167000Y-103357500D01*
X127167000Y-104132500D01*
X127165375Y-104165581D01*
X127160515Y-104198343D01*
X127152467Y-104230471D01*
X127141309Y-104261656D01*
X127127148Y-104291596D01*
X127110121Y-104320005D01*
X127090391Y-104346608D01*
X127068149Y-104371149D01*
X127043608Y-104393391D01*
X127017005Y-104413121D01*
X126988596Y-104430148D01*
X126958656Y-104444309D01*
X126927471Y-104455467D01*
X126895343Y-104463515D01*
X126862581Y-104468375D01*
X126829500Y-104470000D01*
X126154500Y-104470000D01*
X126121419Y-104468375D01*
X126088657Y-104463515D01*
X126056529Y-104455467D01*
X126025344Y-104444309D01*
X125995404Y-104430148D01*
X125966995Y-104413121D01*
X125940392Y-104393391D01*
X125915851Y-104371149D01*
X125893609Y-104346608D01*
X125873879Y-104320005D01*
X125856852Y-104291596D01*
X125842691Y-104261656D01*
X125831533Y-104230471D01*
X125823485Y-104198343D01*
X125818625Y-104165581D01*
X125817000Y-104132500D01*
X125817000Y-103357500D01*
X125818625Y-103324419D01*
X125823485Y-103291657D01*
X125831533Y-103259529D01*
X125842691Y-103228344D01*
X125856852Y-103198404D01*
X125873879Y-103169995D01*
X125893609Y-103143392D01*
X125915851Y-103118851D01*
X125940392Y-103096609D01*
X125966995Y-103076879D01*
X125995404Y-103059852D01*
X126025344Y-103045691D01*
X126056529Y-103034533D01*
X126088657Y-103026485D01*
X126121419Y-103021625D01*
X126154500Y-103020000D01*
X126829500Y-103020000D01*
X126862581Y-103021625D01*
X126862581Y-103021625D01*
G37*
D13*
X126492000Y-103745000D03*
G04 #@! TD*
D12*
G04 #@! TO.C,C6*
G36*
X126862581Y-109630625D02*
X126895343Y-109635485D01*
X126927471Y-109643533D01*
X126958656Y-109654691D01*
X126988596Y-109668852D01*
X127017005Y-109685879D01*
X127043608Y-109705609D01*
X127068149Y-109727851D01*
X127090391Y-109752392D01*
X127110121Y-109778995D01*
X127127148Y-109807404D01*
X127141309Y-109837344D01*
X127152467Y-109868529D01*
X127160515Y-109900657D01*
X127165375Y-109933419D01*
X127167000Y-109966500D01*
X127167000Y-110741500D01*
X127165375Y-110774581D01*
X127160515Y-110807343D01*
X127152467Y-110839471D01*
X127141309Y-110870656D01*
X127127148Y-110900596D01*
X127110121Y-110929005D01*
X127090391Y-110955608D01*
X127068149Y-110980149D01*
X127043608Y-111002391D01*
X127017005Y-111022121D01*
X126988596Y-111039148D01*
X126958656Y-111053309D01*
X126927471Y-111064467D01*
X126895343Y-111072515D01*
X126862581Y-111077375D01*
X126829500Y-111079000D01*
X126154500Y-111079000D01*
X126121419Y-111077375D01*
X126088657Y-111072515D01*
X126056529Y-111064467D01*
X126025344Y-111053309D01*
X125995404Y-111039148D01*
X125966995Y-111022121D01*
X125940392Y-111002391D01*
X125915851Y-110980149D01*
X125893609Y-110955608D01*
X125873879Y-110929005D01*
X125856852Y-110900596D01*
X125842691Y-110870656D01*
X125831533Y-110839471D01*
X125823485Y-110807343D01*
X125818625Y-110774581D01*
X125817000Y-110741500D01*
X125817000Y-109966500D01*
X125818625Y-109933419D01*
X125823485Y-109900657D01*
X125831533Y-109868529D01*
X125842691Y-109837344D01*
X125856852Y-109807404D01*
X125873879Y-109778995D01*
X125893609Y-109752392D01*
X125915851Y-109727851D01*
X125940392Y-109705609D01*
X125966995Y-109685879D01*
X125995404Y-109668852D01*
X126025344Y-109654691D01*
X126056529Y-109643533D01*
X126088657Y-109635485D01*
X126121419Y-109630625D01*
X126154500Y-109629000D01*
X126829500Y-109629000D01*
X126862581Y-109630625D01*
X126862581Y-109630625D01*
G37*
D13*
X126492000Y-110354000D03*
D12*
G36*
X126862581Y-111380625D02*
X126895343Y-111385485D01*
X126927471Y-111393533D01*
X126958656Y-111404691D01*
X126988596Y-111418852D01*
X127017005Y-111435879D01*
X127043608Y-111455609D01*
X127068149Y-111477851D01*
X127090391Y-111502392D01*
X127110121Y-111528995D01*
X127127148Y-111557404D01*
X127141309Y-111587344D01*
X127152467Y-111618529D01*
X127160515Y-111650657D01*
X127165375Y-111683419D01*
X127167000Y-111716500D01*
X127167000Y-112491500D01*
X127165375Y-112524581D01*
X127160515Y-112557343D01*
X127152467Y-112589471D01*
X127141309Y-112620656D01*
X127127148Y-112650596D01*
X127110121Y-112679005D01*
X127090391Y-112705608D01*
X127068149Y-112730149D01*
X127043608Y-112752391D01*
X127017005Y-112772121D01*
X126988596Y-112789148D01*
X126958656Y-112803309D01*
X126927471Y-112814467D01*
X126895343Y-112822515D01*
X126862581Y-112827375D01*
X126829500Y-112829000D01*
X126154500Y-112829000D01*
X126121419Y-112827375D01*
X126088657Y-112822515D01*
X126056529Y-112814467D01*
X126025344Y-112803309D01*
X125995404Y-112789148D01*
X125966995Y-112772121D01*
X125940392Y-112752391D01*
X125915851Y-112730149D01*
X125893609Y-112705608D01*
X125873879Y-112679005D01*
X125856852Y-112650596D01*
X125842691Y-112620656D01*
X125831533Y-112589471D01*
X125823485Y-112557343D01*
X125818625Y-112524581D01*
X125817000Y-112491500D01*
X125817000Y-111716500D01*
X125818625Y-111683419D01*
X125823485Y-111650657D01*
X125831533Y-111618529D01*
X125842691Y-111587344D01*
X125856852Y-111557404D01*
X125873879Y-111528995D01*
X125893609Y-111502392D01*
X125915851Y-111477851D01*
X125940392Y-111455609D01*
X125966995Y-111435879D01*
X125995404Y-111418852D01*
X126025344Y-111404691D01*
X126056529Y-111393533D01*
X126088657Y-111385485D01*
X126121419Y-111380625D01*
X126154500Y-111379000D01*
X126829500Y-111379000D01*
X126862581Y-111380625D01*
X126862581Y-111380625D01*
G37*
D13*
X126492000Y-112104000D03*
G04 #@! TD*
D12*
G04 #@! TO.C,C5*
G36*
X122481081Y-107339625D02*
X122513843Y-107344485D01*
X122545971Y-107352533D01*
X122577156Y-107363691D01*
X122607096Y-107377852D01*
X122635505Y-107394879D01*
X122662108Y-107414609D01*
X122686649Y-107436851D01*
X122708891Y-107461392D01*
X122728621Y-107487995D01*
X122745648Y-107516404D01*
X122759809Y-107546344D01*
X122770967Y-107577529D01*
X122779015Y-107609657D01*
X122783875Y-107642419D01*
X122785500Y-107675500D01*
X122785500Y-108450500D01*
X122783875Y-108483581D01*
X122779015Y-108516343D01*
X122770967Y-108548471D01*
X122759809Y-108579656D01*
X122745648Y-108609596D01*
X122728621Y-108638005D01*
X122708891Y-108664608D01*
X122686649Y-108689149D01*
X122662108Y-108711391D01*
X122635505Y-108731121D01*
X122607096Y-108748148D01*
X122577156Y-108762309D01*
X122545971Y-108773467D01*
X122513843Y-108781515D01*
X122481081Y-108786375D01*
X122448000Y-108788000D01*
X121773000Y-108788000D01*
X121739919Y-108786375D01*
X121707157Y-108781515D01*
X121675029Y-108773467D01*
X121643844Y-108762309D01*
X121613904Y-108748148D01*
X121585495Y-108731121D01*
X121558892Y-108711391D01*
X121534351Y-108689149D01*
X121512109Y-108664608D01*
X121492379Y-108638005D01*
X121475352Y-108609596D01*
X121461191Y-108579656D01*
X121450033Y-108548471D01*
X121441985Y-108516343D01*
X121437125Y-108483581D01*
X121435500Y-108450500D01*
X121435500Y-107675500D01*
X121437125Y-107642419D01*
X121441985Y-107609657D01*
X121450033Y-107577529D01*
X121461191Y-107546344D01*
X121475352Y-107516404D01*
X121492379Y-107487995D01*
X121512109Y-107461392D01*
X121534351Y-107436851D01*
X121558892Y-107414609D01*
X121585495Y-107394879D01*
X121613904Y-107377852D01*
X121643844Y-107363691D01*
X121675029Y-107352533D01*
X121707157Y-107344485D01*
X121739919Y-107339625D01*
X121773000Y-107338000D01*
X122448000Y-107338000D01*
X122481081Y-107339625D01*
X122481081Y-107339625D01*
G37*
D13*
X122110500Y-108063000D03*
D12*
G36*
X122481081Y-105589625D02*
X122513843Y-105594485D01*
X122545971Y-105602533D01*
X122577156Y-105613691D01*
X122607096Y-105627852D01*
X122635505Y-105644879D01*
X122662108Y-105664609D01*
X122686649Y-105686851D01*
X122708891Y-105711392D01*
X122728621Y-105737995D01*
X122745648Y-105766404D01*
X122759809Y-105796344D01*
X122770967Y-105827529D01*
X122779015Y-105859657D01*
X122783875Y-105892419D01*
X122785500Y-105925500D01*
X122785500Y-106700500D01*
X122783875Y-106733581D01*
X122779015Y-106766343D01*
X122770967Y-106798471D01*
X122759809Y-106829656D01*
X122745648Y-106859596D01*
X122728621Y-106888005D01*
X122708891Y-106914608D01*
X122686649Y-106939149D01*
X122662108Y-106961391D01*
X122635505Y-106981121D01*
X122607096Y-106998148D01*
X122577156Y-107012309D01*
X122545971Y-107023467D01*
X122513843Y-107031515D01*
X122481081Y-107036375D01*
X122448000Y-107038000D01*
X121773000Y-107038000D01*
X121739919Y-107036375D01*
X121707157Y-107031515D01*
X121675029Y-107023467D01*
X121643844Y-107012309D01*
X121613904Y-106998148D01*
X121585495Y-106981121D01*
X121558892Y-106961391D01*
X121534351Y-106939149D01*
X121512109Y-106914608D01*
X121492379Y-106888005D01*
X121475352Y-106859596D01*
X121461191Y-106829656D01*
X121450033Y-106798471D01*
X121441985Y-106766343D01*
X121437125Y-106733581D01*
X121435500Y-106700500D01*
X121435500Y-105925500D01*
X121437125Y-105892419D01*
X121441985Y-105859657D01*
X121450033Y-105827529D01*
X121461191Y-105796344D01*
X121475352Y-105766404D01*
X121492379Y-105737995D01*
X121512109Y-105711392D01*
X121534351Y-105686851D01*
X121558892Y-105664609D01*
X121585495Y-105644879D01*
X121613904Y-105627852D01*
X121643844Y-105613691D01*
X121675029Y-105602533D01*
X121707157Y-105594485D01*
X121739919Y-105589625D01*
X121773000Y-105588000D01*
X122448000Y-105588000D01*
X122481081Y-105589625D01*
X122481081Y-105589625D01*
G37*
D13*
X122110500Y-106313000D03*
G04 #@! TD*
D12*
G04 #@! TO.C,C4*
G36*
X126862581Y-87972125D02*
X126895343Y-87976985D01*
X126927471Y-87985033D01*
X126958656Y-87996191D01*
X126988596Y-88010352D01*
X127017005Y-88027379D01*
X127043608Y-88047109D01*
X127068149Y-88069351D01*
X127090391Y-88093892D01*
X127110121Y-88120495D01*
X127127148Y-88148904D01*
X127141309Y-88178844D01*
X127152467Y-88210029D01*
X127160515Y-88242157D01*
X127165375Y-88274919D01*
X127167000Y-88308000D01*
X127167000Y-89083000D01*
X127165375Y-89116081D01*
X127160515Y-89148843D01*
X127152467Y-89180971D01*
X127141309Y-89212156D01*
X127127148Y-89242096D01*
X127110121Y-89270505D01*
X127090391Y-89297108D01*
X127068149Y-89321649D01*
X127043608Y-89343891D01*
X127017005Y-89363621D01*
X126988596Y-89380648D01*
X126958656Y-89394809D01*
X126927471Y-89405967D01*
X126895343Y-89414015D01*
X126862581Y-89418875D01*
X126829500Y-89420500D01*
X126154500Y-89420500D01*
X126121419Y-89418875D01*
X126088657Y-89414015D01*
X126056529Y-89405967D01*
X126025344Y-89394809D01*
X125995404Y-89380648D01*
X125966995Y-89363621D01*
X125940392Y-89343891D01*
X125915851Y-89321649D01*
X125893609Y-89297108D01*
X125873879Y-89270505D01*
X125856852Y-89242096D01*
X125842691Y-89212156D01*
X125831533Y-89180971D01*
X125823485Y-89148843D01*
X125818625Y-89116081D01*
X125817000Y-89083000D01*
X125817000Y-88308000D01*
X125818625Y-88274919D01*
X125823485Y-88242157D01*
X125831533Y-88210029D01*
X125842691Y-88178844D01*
X125856852Y-88148904D01*
X125873879Y-88120495D01*
X125893609Y-88093892D01*
X125915851Y-88069351D01*
X125940392Y-88047109D01*
X125966995Y-88027379D01*
X125995404Y-88010352D01*
X126025344Y-87996191D01*
X126056529Y-87985033D01*
X126088657Y-87976985D01*
X126121419Y-87972125D01*
X126154500Y-87970500D01*
X126829500Y-87970500D01*
X126862581Y-87972125D01*
X126862581Y-87972125D01*
G37*
D13*
X126492000Y-88695500D03*
D12*
G36*
X126862581Y-86222125D02*
X126895343Y-86226985D01*
X126927471Y-86235033D01*
X126958656Y-86246191D01*
X126988596Y-86260352D01*
X127017005Y-86277379D01*
X127043608Y-86297109D01*
X127068149Y-86319351D01*
X127090391Y-86343892D01*
X127110121Y-86370495D01*
X127127148Y-86398904D01*
X127141309Y-86428844D01*
X127152467Y-86460029D01*
X127160515Y-86492157D01*
X127165375Y-86524919D01*
X127167000Y-86558000D01*
X127167000Y-87333000D01*
X127165375Y-87366081D01*
X127160515Y-87398843D01*
X127152467Y-87430971D01*
X127141309Y-87462156D01*
X127127148Y-87492096D01*
X127110121Y-87520505D01*
X127090391Y-87547108D01*
X127068149Y-87571649D01*
X127043608Y-87593891D01*
X127017005Y-87613621D01*
X126988596Y-87630648D01*
X126958656Y-87644809D01*
X126927471Y-87655967D01*
X126895343Y-87664015D01*
X126862581Y-87668875D01*
X126829500Y-87670500D01*
X126154500Y-87670500D01*
X126121419Y-87668875D01*
X126088657Y-87664015D01*
X126056529Y-87655967D01*
X126025344Y-87644809D01*
X125995404Y-87630648D01*
X125966995Y-87613621D01*
X125940392Y-87593891D01*
X125915851Y-87571649D01*
X125893609Y-87547108D01*
X125873879Y-87520505D01*
X125856852Y-87492096D01*
X125842691Y-87462156D01*
X125831533Y-87430971D01*
X125823485Y-87398843D01*
X125818625Y-87366081D01*
X125817000Y-87333000D01*
X125817000Y-86558000D01*
X125818625Y-86524919D01*
X125823485Y-86492157D01*
X125831533Y-86460029D01*
X125842691Y-86428844D01*
X125856852Y-86398904D01*
X125873879Y-86370495D01*
X125893609Y-86343892D01*
X125915851Y-86319351D01*
X125940392Y-86297109D01*
X125966995Y-86277379D01*
X125995404Y-86260352D01*
X126025344Y-86246191D01*
X126056529Y-86235033D01*
X126088657Y-86226985D01*
X126121419Y-86222125D01*
X126154500Y-86220500D01*
X126829500Y-86220500D01*
X126862581Y-86222125D01*
X126862581Y-86222125D01*
G37*
D13*
X126492000Y-86945500D03*
G04 #@! TD*
D12*
G04 #@! TO.C,C3*
G36*
X112384581Y-89623125D02*
X112417343Y-89627985D01*
X112449471Y-89636033D01*
X112480656Y-89647191D01*
X112510596Y-89661352D01*
X112539005Y-89678379D01*
X112565608Y-89698109D01*
X112590149Y-89720351D01*
X112612391Y-89744892D01*
X112632121Y-89771495D01*
X112649148Y-89799904D01*
X112663309Y-89829844D01*
X112674467Y-89861029D01*
X112682515Y-89893157D01*
X112687375Y-89925919D01*
X112689000Y-89959000D01*
X112689000Y-90734000D01*
X112687375Y-90767081D01*
X112682515Y-90799843D01*
X112674467Y-90831971D01*
X112663309Y-90863156D01*
X112649148Y-90893096D01*
X112632121Y-90921505D01*
X112612391Y-90948108D01*
X112590149Y-90972649D01*
X112565608Y-90994891D01*
X112539005Y-91014621D01*
X112510596Y-91031648D01*
X112480656Y-91045809D01*
X112449471Y-91056967D01*
X112417343Y-91065015D01*
X112384581Y-91069875D01*
X112351500Y-91071500D01*
X111676500Y-91071500D01*
X111643419Y-91069875D01*
X111610657Y-91065015D01*
X111578529Y-91056967D01*
X111547344Y-91045809D01*
X111517404Y-91031648D01*
X111488995Y-91014621D01*
X111462392Y-90994891D01*
X111437851Y-90972649D01*
X111415609Y-90948108D01*
X111395879Y-90921505D01*
X111378852Y-90893096D01*
X111364691Y-90863156D01*
X111353533Y-90831971D01*
X111345485Y-90799843D01*
X111340625Y-90767081D01*
X111339000Y-90734000D01*
X111339000Y-89959000D01*
X111340625Y-89925919D01*
X111345485Y-89893157D01*
X111353533Y-89861029D01*
X111364691Y-89829844D01*
X111378852Y-89799904D01*
X111395879Y-89771495D01*
X111415609Y-89744892D01*
X111437851Y-89720351D01*
X111462392Y-89698109D01*
X111488995Y-89678379D01*
X111517404Y-89661352D01*
X111547344Y-89647191D01*
X111578529Y-89636033D01*
X111610657Y-89627985D01*
X111643419Y-89623125D01*
X111676500Y-89621500D01*
X112351500Y-89621500D01*
X112384581Y-89623125D01*
X112384581Y-89623125D01*
G37*
D13*
X112014000Y-90346500D03*
D12*
G36*
X112384581Y-87873125D02*
X112417343Y-87877985D01*
X112449471Y-87886033D01*
X112480656Y-87897191D01*
X112510596Y-87911352D01*
X112539005Y-87928379D01*
X112565608Y-87948109D01*
X112590149Y-87970351D01*
X112612391Y-87994892D01*
X112632121Y-88021495D01*
X112649148Y-88049904D01*
X112663309Y-88079844D01*
X112674467Y-88111029D01*
X112682515Y-88143157D01*
X112687375Y-88175919D01*
X112689000Y-88209000D01*
X112689000Y-88984000D01*
X112687375Y-89017081D01*
X112682515Y-89049843D01*
X112674467Y-89081971D01*
X112663309Y-89113156D01*
X112649148Y-89143096D01*
X112632121Y-89171505D01*
X112612391Y-89198108D01*
X112590149Y-89222649D01*
X112565608Y-89244891D01*
X112539005Y-89264621D01*
X112510596Y-89281648D01*
X112480656Y-89295809D01*
X112449471Y-89306967D01*
X112417343Y-89315015D01*
X112384581Y-89319875D01*
X112351500Y-89321500D01*
X111676500Y-89321500D01*
X111643419Y-89319875D01*
X111610657Y-89315015D01*
X111578529Y-89306967D01*
X111547344Y-89295809D01*
X111517404Y-89281648D01*
X111488995Y-89264621D01*
X111462392Y-89244891D01*
X111437851Y-89222649D01*
X111415609Y-89198108D01*
X111395879Y-89171505D01*
X111378852Y-89143096D01*
X111364691Y-89113156D01*
X111353533Y-89081971D01*
X111345485Y-89049843D01*
X111340625Y-89017081D01*
X111339000Y-88984000D01*
X111339000Y-88209000D01*
X111340625Y-88175919D01*
X111345485Y-88143157D01*
X111353533Y-88111029D01*
X111364691Y-88079844D01*
X111378852Y-88049904D01*
X111395879Y-88021495D01*
X111415609Y-87994892D01*
X111437851Y-87970351D01*
X111462392Y-87948109D01*
X111488995Y-87928379D01*
X111517404Y-87911352D01*
X111547344Y-87897191D01*
X111578529Y-87886033D01*
X111610657Y-87877985D01*
X111643419Y-87873125D01*
X111676500Y-87871500D01*
X112351500Y-87871500D01*
X112384581Y-87873125D01*
X112384581Y-87873125D01*
G37*
D13*
X112014000Y-88596500D03*
G04 #@! TD*
D12*
G04 #@! TO.C,C2*
G36*
X112384581Y-129691625D02*
X112417343Y-129696485D01*
X112449471Y-129704533D01*
X112480656Y-129715691D01*
X112510596Y-129729852D01*
X112539005Y-129746879D01*
X112565608Y-129766609D01*
X112590149Y-129788851D01*
X112612391Y-129813392D01*
X112632121Y-129839995D01*
X112649148Y-129868404D01*
X112663309Y-129898344D01*
X112674467Y-129929529D01*
X112682515Y-129961657D01*
X112687375Y-129994419D01*
X112689000Y-130027500D01*
X112689000Y-130802500D01*
X112687375Y-130835581D01*
X112682515Y-130868343D01*
X112674467Y-130900471D01*
X112663309Y-130931656D01*
X112649148Y-130961596D01*
X112632121Y-130990005D01*
X112612391Y-131016608D01*
X112590149Y-131041149D01*
X112565608Y-131063391D01*
X112539005Y-131083121D01*
X112510596Y-131100148D01*
X112480656Y-131114309D01*
X112449471Y-131125467D01*
X112417343Y-131133515D01*
X112384581Y-131138375D01*
X112351500Y-131140000D01*
X111676500Y-131140000D01*
X111643419Y-131138375D01*
X111610657Y-131133515D01*
X111578529Y-131125467D01*
X111547344Y-131114309D01*
X111517404Y-131100148D01*
X111488995Y-131083121D01*
X111462392Y-131063391D01*
X111437851Y-131041149D01*
X111415609Y-131016608D01*
X111395879Y-130990005D01*
X111378852Y-130961596D01*
X111364691Y-130931656D01*
X111353533Y-130900471D01*
X111345485Y-130868343D01*
X111340625Y-130835581D01*
X111339000Y-130802500D01*
X111339000Y-130027500D01*
X111340625Y-129994419D01*
X111345485Y-129961657D01*
X111353533Y-129929529D01*
X111364691Y-129898344D01*
X111378852Y-129868404D01*
X111395879Y-129839995D01*
X111415609Y-129813392D01*
X111437851Y-129788851D01*
X111462392Y-129766609D01*
X111488995Y-129746879D01*
X111517404Y-129729852D01*
X111547344Y-129715691D01*
X111578529Y-129704533D01*
X111610657Y-129696485D01*
X111643419Y-129691625D01*
X111676500Y-129690000D01*
X112351500Y-129690000D01*
X112384581Y-129691625D01*
X112384581Y-129691625D01*
G37*
D13*
X112014000Y-130415000D03*
D12*
G36*
X112384581Y-127941625D02*
X112417343Y-127946485D01*
X112449471Y-127954533D01*
X112480656Y-127965691D01*
X112510596Y-127979852D01*
X112539005Y-127996879D01*
X112565608Y-128016609D01*
X112590149Y-128038851D01*
X112612391Y-128063392D01*
X112632121Y-128089995D01*
X112649148Y-128118404D01*
X112663309Y-128148344D01*
X112674467Y-128179529D01*
X112682515Y-128211657D01*
X112687375Y-128244419D01*
X112689000Y-128277500D01*
X112689000Y-129052500D01*
X112687375Y-129085581D01*
X112682515Y-129118343D01*
X112674467Y-129150471D01*
X112663309Y-129181656D01*
X112649148Y-129211596D01*
X112632121Y-129240005D01*
X112612391Y-129266608D01*
X112590149Y-129291149D01*
X112565608Y-129313391D01*
X112539005Y-129333121D01*
X112510596Y-129350148D01*
X112480656Y-129364309D01*
X112449471Y-129375467D01*
X112417343Y-129383515D01*
X112384581Y-129388375D01*
X112351500Y-129390000D01*
X111676500Y-129390000D01*
X111643419Y-129388375D01*
X111610657Y-129383515D01*
X111578529Y-129375467D01*
X111547344Y-129364309D01*
X111517404Y-129350148D01*
X111488995Y-129333121D01*
X111462392Y-129313391D01*
X111437851Y-129291149D01*
X111415609Y-129266608D01*
X111395879Y-129240005D01*
X111378852Y-129211596D01*
X111364691Y-129181656D01*
X111353533Y-129150471D01*
X111345485Y-129118343D01*
X111340625Y-129085581D01*
X111339000Y-129052500D01*
X111339000Y-128277500D01*
X111340625Y-128244419D01*
X111345485Y-128211657D01*
X111353533Y-128179529D01*
X111364691Y-128148344D01*
X111378852Y-128118404D01*
X111395879Y-128089995D01*
X111415609Y-128063392D01*
X111437851Y-128038851D01*
X111462392Y-128016609D01*
X111488995Y-127996879D01*
X111517404Y-127979852D01*
X111547344Y-127965691D01*
X111578529Y-127954533D01*
X111610657Y-127946485D01*
X111643419Y-127941625D01*
X111676500Y-127940000D01*
X112351500Y-127940000D01*
X112384581Y-127941625D01*
X112384581Y-127941625D01*
G37*
D13*
X112014000Y-128665000D03*
G04 #@! TD*
D12*
G04 #@! TO.C,R6*
G36*
X126862581Y-81904125D02*
X126895343Y-81908985D01*
X126927471Y-81917033D01*
X126958656Y-81928191D01*
X126988596Y-81942352D01*
X127017005Y-81959379D01*
X127043608Y-81979109D01*
X127068149Y-82001351D01*
X127090391Y-82025892D01*
X127110121Y-82052495D01*
X127127148Y-82080904D01*
X127141309Y-82110844D01*
X127152467Y-82142029D01*
X127160515Y-82174157D01*
X127165375Y-82206919D01*
X127167000Y-82240000D01*
X127167000Y-83015000D01*
X127165375Y-83048081D01*
X127160515Y-83080843D01*
X127152467Y-83112971D01*
X127141309Y-83144156D01*
X127127148Y-83174096D01*
X127110121Y-83202505D01*
X127090391Y-83229108D01*
X127068149Y-83253649D01*
X127043608Y-83275891D01*
X127017005Y-83295621D01*
X126988596Y-83312648D01*
X126958656Y-83326809D01*
X126927471Y-83337967D01*
X126895343Y-83346015D01*
X126862581Y-83350875D01*
X126829500Y-83352500D01*
X126154500Y-83352500D01*
X126121419Y-83350875D01*
X126088657Y-83346015D01*
X126056529Y-83337967D01*
X126025344Y-83326809D01*
X125995404Y-83312648D01*
X125966995Y-83295621D01*
X125940392Y-83275891D01*
X125915851Y-83253649D01*
X125893609Y-83229108D01*
X125873879Y-83202505D01*
X125856852Y-83174096D01*
X125842691Y-83144156D01*
X125831533Y-83112971D01*
X125823485Y-83080843D01*
X125818625Y-83048081D01*
X125817000Y-83015000D01*
X125817000Y-82240000D01*
X125818625Y-82206919D01*
X125823485Y-82174157D01*
X125831533Y-82142029D01*
X125842691Y-82110844D01*
X125856852Y-82080904D01*
X125873879Y-82052495D01*
X125893609Y-82025892D01*
X125915851Y-82001351D01*
X125940392Y-81979109D01*
X125966995Y-81959379D01*
X125995404Y-81942352D01*
X126025344Y-81928191D01*
X126056529Y-81917033D01*
X126088657Y-81908985D01*
X126121419Y-81904125D01*
X126154500Y-81902500D01*
X126829500Y-81902500D01*
X126862581Y-81904125D01*
X126862581Y-81904125D01*
G37*
D13*
X126492000Y-82627500D03*
D12*
G36*
X126862581Y-83654125D02*
X126895343Y-83658985D01*
X126927471Y-83667033D01*
X126958656Y-83678191D01*
X126988596Y-83692352D01*
X127017005Y-83709379D01*
X127043608Y-83729109D01*
X127068149Y-83751351D01*
X127090391Y-83775892D01*
X127110121Y-83802495D01*
X127127148Y-83830904D01*
X127141309Y-83860844D01*
X127152467Y-83892029D01*
X127160515Y-83924157D01*
X127165375Y-83956919D01*
X127167000Y-83990000D01*
X127167000Y-84765000D01*
X127165375Y-84798081D01*
X127160515Y-84830843D01*
X127152467Y-84862971D01*
X127141309Y-84894156D01*
X127127148Y-84924096D01*
X127110121Y-84952505D01*
X127090391Y-84979108D01*
X127068149Y-85003649D01*
X127043608Y-85025891D01*
X127017005Y-85045621D01*
X126988596Y-85062648D01*
X126958656Y-85076809D01*
X126927471Y-85087967D01*
X126895343Y-85096015D01*
X126862581Y-85100875D01*
X126829500Y-85102500D01*
X126154500Y-85102500D01*
X126121419Y-85100875D01*
X126088657Y-85096015D01*
X126056529Y-85087967D01*
X126025344Y-85076809D01*
X125995404Y-85062648D01*
X125966995Y-85045621D01*
X125940392Y-85025891D01*
X125915851Y-85003649D01*
X125893609Y-84979108D01*
X125873879Y-84952505D01*
X125856852Y-84924096D01*
X125842691Y-84894156D01*
X125831533Y-84862971D01*
X125823485Y-84830843D01*
X125818625Y-84798081D01*
X125817000Y-84765000D01*
X125817000Y-83990000D01*
X125818625Y-83956919D01*
X125823485Y-83924157D01*
X125831533Y-83892029D01*
X125842691Y-83860844D01*
X125856852Y-83830904D01*
X125873879Y-83802495D01*
X125893609Y-83775892D01*
X125915851Y-83751351D01*
X125940392Y-83729109D01*
X125966995Y-83709379D01*
X125995404Y-83692352D01*
X126025344Y-83678191D01*
X126056529Y-83667033D01*
X126088657Y-83658985D01*
X126121419Y-83654125D01*
X126154500Y-83652500D01*
X126829500Y-83652500D01*
X126862581Y-83654125D01*
X126862581Y-83654125D01*
G37*
D13*
X126492000Y-84377500D03*
G04 #@! TD*
D12*
G04 #@! TO.C,R5*
G36*
X117083581Y-129691625D02*
X117116343Y-129696485D01*
X117148471Y-129704533D01*
X117179656Y-129715691D01*
X117209596Y-129729852D01*
X117238005Y-129746879D01*
X117264608Y-129766609D01*
X117289149Y-129788851D01*
X117311391Y-129813392D01*
X117331121Y-129839995D01*
X117348148Y-129868404D01*
X117362309Y-129898344D01*
X117373467Y-129929529D01*
X117381515Y-129961657D01*
X117386375Y-129994419D01*
X117388000Y-130027500D01*
X117388000Y-130802500D01*
X117386375Y-130835581D01*
X117381515Y-130868343D01*
X117373467Y-130900471D01*
X117362309Y-130931656D01*
X117348148Y-130961596D01*
X117331121Y-130990005D01*
X117311391Y-131016608D01*
X117289149Y-131041149D01*
X117264608Y-131063391D01*
X117238005Y-131083121D01*
X117209596Y-131100148D01*
X117179656Y-131114309D01*
X117148471Y-131125467D01*
X117116343Y-131133515D01*
X117083581Y-131138375D01*
X117050500Y-131140000D01*
X116375500Y-131140000D01*
X116342419Y-131138375D01*
X116309657Y-131133515D01*
X116277529Y-131125467D01*
X116246344Y-131114309D01*
X116216404Y-131100148D01*
X116187995Y-131083121D01*
X116161392Y-131063391D01*
X116136851Y-131041149D01*
X116114609Y-131016608D01*
X116094879Y-130990005D01*
X116077852Y-130961596D01*
X116063691Y-130931656D01*
X116052533Y-130900471D01*
X116044485Y-130868343D01*
X116039625Y-130835581D01*
X116038000Y-130802500D01*
X116038000Y-130027500D01*
X116039625Y-129994419D01*
X116044485Y-129961657D01*
X116052533Y-129929529D01*
X116063691Y-129898344D01*
X116077852Y-129868404D01*
X116094879Y-129839995D01*
X116114609Y-129813392D01*
X116136851Y-129788851D01*
X116161392Y-129766609D01*
X116187995Y-129746879D01*
X116216404Y-129729852D01*
X116246344Y-129715691D01*
X116277529Y-129704533D01*
X116309657Y-129696485D01*
X116342419Y-129691625D01*
X116375500Y-129690000D01*
X117050500Y-129690000D01*
X117083581Y-129691625D01*
X117083581Y-129691625D01*
G37*
D13*
X116713000Y-130415000D03*
D12*
G36*
X117083581Y-127941625D02*
X117116343Y-127946485D01*
X117148471Y-127954533D01*
X117179656Y-127965691D01*
X117209596Y-127979852D01*
X117238005Y-127996879D01*
X117264608Y-128016609D01*
X117289149Y-128038851D01*
X117311391Y-128063392D01*
X117331121Y-128089995D01*
X117348148Y-128118404D01*
X117362309Y-128148344D01*
X117373467Y-128179529D01*
X117381515Y-128211657D01*
X117386375Y-128244419D01*
X117388000Y-128277500D01*
X117388000Y-129052500D01*
X117386375Y-129085581D01*
X117381515Y-129118343D01*
X117373467Y-129150471D01*
X117362309Y-129181656D01*
X117348148Y-129211596D01*
X117331121Y-129240005D01*
X117311391Y-129266608D01*
X117289149Y-129291149D01*
X117264608Y-129313391D01*
X117238005Y-129333121D01*
X117209596Y-129350148D01*
X117179656Y-129364309D01*
X117148471Y-129375467D01*
X117116343Y-129383515D01*
X117083581Y-129388375D01*
X117050500Y-129390000D01*
X116375500Y-129390000D01*
X116342419Y-129388375D01*
X116309657Y-129383515D01*
X116277529Y-129375467D01*
X116246344Y-129364309D01*
X116216404Y-129350148D01*
X116187995Y-129333121D01*
X116161392Y-129313391D01*
X116136851Y-129291149D01*
X116114609Y-129266608D01*
X116094879Y-129240005D01*
X116077852Y-129211596D01*
X116063691Y-129181656D01*
X116052533Y-129150471D01*
X116044485Y-129118343D01*
X116039625Y-129085581D01*
X116038000Y-129052500D01*
X116038000Y-128277500D01*
X116039625Y-128244419D01*
X116044485Y-128211657D01*
X116052533Y-128179529D01*
X116063691Y-128148344D01*
X116077852Y-128118404D01*
X116094879Y-128089995D01*
X116114609Y-128063392D01*
X116136851Y-128038851D01*
X116161392Y-128016609D01*
X116187995Y-127996879D01*
X116216404Y-127979852D01*
X116246344Y-127965691D01*
X116277529Y-127954533D01*
X116309657Y-127946485D01*
X116342419Y-127941625D01*
X116375500Y-127940000D01*
X117050500Y-127940000D01*
X117083581Y-127941625D01*
X117083581Y-127941625D01*
G37*
D13*
X116713000Y-128665000D03*
G04 #@! TD*
D12*
G04 #@! TO.C,R4*
G36*
X126862581Y-129691625D02*
X126895343Y-129696485D01*
X126927471Y-129704533D01*
X126958656Y-129715691D01*
X126988596Y-129729852D01*
X127017005Y-129746879D01*
X127043608Y-129766609D01*
X127068149Y-129788851D01*
X127090391Y-129813392D01*
X127110121Y-129839995D01*
X127127148Y-129868404D01*
X127141309Y-129898344D01*
X127152467Y-129929529D01*
X127160515Y-129961657D01*
X127165375Y-129994419D01*
X127167000Y-130027500D01*
X127167000Y-130802500D01*
X127165375Y-130835581D01*
X127160515Y-130868343D01*
X127152467Y-130900471D01*
X127141309Y-130931656D01*
X127127148Y-130961596D01*
X127110121Y-130990005D01*
X127090391Y-131016608D01*
X127068149Y-131041149D01*
X127043608Y-131063391D01*
X127017005Y-131083121D01*
X126988596Y-131100148D01*
X126958656Y-131114309D01*
X126927471Y-131125467D01*
X126895343Y-131133515D01*
X126862581Y-131138375D01*
X126829500Y-131140000D01*
X126154500Y-131140000D01*
X126121419Y-131138375D01*
X126088657Y-131133515D01*
X126056529Y-131125467D01*
X126025344Y-131114309D01*
X125995404Y-131100148D01*
X125966995Y-131083121D01*
X125940392Y-131063391D01*
X125915851Y-131041149D01*
X125893609Y-131016608D01*
X125873879Y-130990005D01*
X125856852Y-130961596D01*
X125842691Y-130931656D01*
X125831533Y-130900471D01*
X125823485Y-130868343D01*
X125818625Y-130835581D01*
X125817000Y-130802500D01*
X125817000Y-130027500D01*
X125818625Y-129994419D01*
X125823485Y-129961657D01*
X125831533Y-129929529D01*
X125842691Y-129898344D01*
X125856852Y-129868404D01*
X125873879Y-129839995D01*
X125893609Y-129813392D01*
X125915851Y-129788851D01*
X125940392Y-129766609D01*
X125966995Y-129746879D01*
X125995404Y-129729852D01*
X126025344Y-129715691D01*
X126056529Y-129704533D01*
X126088657Y-129696485D01*
X126121419Y-129691625D01*
X126154500Y-129690000D01*
X126829500Y-129690000D01*
X126862581Y-129691625D01*
X126862581Y-129691625D01*
G37*
D13*
X126492000Y-130415000D03*
D12*
G36*
X126862581Y-127941625D02*
X126895343Y-127946485D01*
X126927471Y-127954533D01*
X126958656Y-127965691D01*
X126988596Y-127979852D01*
X127017005Y-127996879D01*
X127043608Y-128016609D01*
X127068149Y-128038851D01*
X127090391Y-128063392D01*
X127110121Y-128089995D01*
X127127148Y-128118404D01*
X127141309Y-128148344D01*
X127152467Y-128179529D01*
X127160515Y-128211657D01*
X127165375Y-128244419D01*
X127167000Y-128277500D01*
X127167000Y-129052500D01*
X127165375Y-129085581D01*
X127160515Y-129118343D01*
X127152467Y-129150471D01*
X127141309Y-129181656D01*
X127127148Y-129211596D01*
X127110121Y-129240005D01*
X127090391Y-129266608D01*
X127068149Y-129291149D01*
X127043608Y-129313391D01*
X127017005Y-129333121D01*
X126988596Y-129350148D01*
X126958656Y-129364309D01*
X126927471Y-129375467D01*
X126895343Y-129383515D01*
X126862581Y-129388375D01*
X126829500Y-129390000D01*
X126154500Y-129390000D01*
X126121419Y-129388375D01*
X126088657Y-129383515D01*
X126056529Y-129375467D01*
X126025344Y-129364309D01*
X125995404Y-129350148D01*
X125966995Y-129333121D01*
X125940392Y-129313391D01*
X125915851Y-129291149D01*
X125893609Y-129266608D01*
X125873879Y-129240005D01*
X125856852Y-129211596D01*
X125842691Y-129181656D01*
X125831533Y-129150471D01*
X125823485Y-129118343D01*
X125818625Y-129085581D01*
X125817000Y-129052500D01*
X125817000Y-128277500D01*
X125818625Y-128244419D01*
X125823485Y-128211657D01*
X125831533Y-128179529D01*
X125842691Y-128148344D01*
X125856852Y-128118404D01*
X125873879Y-128089995D01*
X125893609Y-128063392D01*
X125915851Y-128038851D01*
X125940392Y-128016609D01*
X125966995Y-127996879D01*
X125995404Y-127979852D01*
X126025344Y-127965691D01*
X126056529Y-127954533D01*
X126088657Y-127946485D01*
X126121419Y-127941625D01*
X126154500Y-127940000D01*
X126829500Y-127940000D01*
X126862581Y-127941625D01*
X126862581Y-127941625D01*
G37*
D13*
X126492000Y-128665000D03*
G04 #@! TD*
D12*
G04 #@! TO.C,R3*
G36*
X126862581Y-98703625D02*
X126895343Y-98708485D01*
X126927471Y-98716533D01*
X126958656Y-98727691D01*
X126988596Y-98741852D01*
X127017005Y-98758879D01*
X127043608Y-98778609D01*
X127068149Y-98800851D01*
X127090391Y-98825392D01*
X127110121Y-98851995D01*
X127127148Y-98880404D01*
X127141309Y-98910344D01*
X127152467Y-98941529D01*
X127160515Y-98973657D01*
X127165375Y-99006419D01*
X127167000Y-99039500D01*
X127167000Y-99814500D01*
X127165375Y-99847581D01*
X127160515Y-99880343D01*
X127152467Y-99912471D01*
X127141309Y-99943656D01*
X127127148Y-99973596D01*
X127110121Y-100002005D01*
X127090391Y-100028608D01*
X127068149Y-100053149D01*
X127043608Y-100075391D01*
X127017005Y-100095121D01*
X126988596Y-100112148D01*
X126958656Y-100126309D01*
X126927471Y-100137467D01*
X126895343Y-100145515D01*
X126862581Y-100150375D01*
X126829500Y-100152000D01*
X126154500Y-100152000D01*
X126121419Y-100150375D01*
X126088657Y-100145515D01*
X126056529Y-100137467D01*
X126025344Y-100126309D01*
X125995404Y-100112148D01*
X125966995Y-100095121D01*
X125940392Y-100075391D01*
X125915851Y-100053149D01*
X125893609Y-100028608D01*
X125873879Y-100002005D01*
X125856852Y-99973596D01*
X125842691Y-99943656D01*
X125831533Y-99912471D01*
X125823485Y-99880343D01*
X125818625Y-99847581D01*
X125817000Y-99814500D01*
X125817000Y-99039500D01*
X125818625Y-99006419D01*
X125823485Y-98973657D01*
X125831533Y-98941529D01*
X125842691Y-98910344D01*
X125856852Y-98880404D01*
X125873879Y-98851995D01*
X125893609Y-98825392D01*
X125915851Y-98800851D01*
X125940392Y-98778609D01*
X125966995Y-98758879D01*
X125995404Y-98741852D01*
X126025344Y-98727691D01*
X126056529Y-98716533D01*
X126088657Y-98708485D01*
X126121419Y-98703625D01*
X126154500Y-98702000D01*
X126829500Y-98702000D01*
X126862581Y-98703625D01*
X126862581Y-98703625D01*
G37*
D13*
X126492000Y-99427000D03*
D12*
G36*
X126862581Y-96953625D02*
X126895343Y-96958485D01*
X126927471Y-96966533D01*
X126958656Y-96977691D01*
X126988596Y-96991852D01*
X127017005Y-97008879D01*
X127043608Y-97028609D01*
X127068149Y-97050851D01*
X127090391Y-97075392D01*
X127110121Y-97101995D01*
X127127148Y-97130404D01*
X127141309Y-97160344D01*
X127152467Y-97191529D01*
X127160515Y-97223657D01*
X127165375Y-97256419D01*
X127167000Y-97289500D01*
X127167000Y-98064500D01*
X127165375Y-98097581D01*
X127160515Y-98130343D01*
X127152467Y-98162471D01*
X127141309Y-98193656D01*
X127127148Y-98223596D01*
X127110121Y-98252005D01*
X127090391Y-98278608D01*
X127068149Y-98303149D01*
X127043608Y-98325391D01*
X127017005Y-98345121D01*
X126988596Y-98362148D01*
X126958656Y-98376309D01*
X126927471Y-98387467D01*
X126895343Y-98395515D01*
X126862581Y-98400375D01*
X126829500Y-98402000D01*
X126154500Y-98402000D01*
X126121419Y-98400375D01*
X126088657Y-98395515D01*
X126056529Y-98387467D01*
X126025344Y-98376309D01*
X125995404Y-98362148D01*
X125966995Y-98345121D01*
X125940392Y-98325391D01*
X125915851Y-98303149D01*
X125893609Y-98278608D01*
X125873879Y-98252005D01*
X125856852Y-98223596D01*
X125842691Y-98193656D01*
X125831533Y-98162471D01*
X125823485Y-98130343D01*
X125818625Y-98097581D01*
X125817000Y-98064500D01*
X125817000Y-97289500D01*
X125818625Y-97256419D01*
X125823485Y-97223657D01*
X125831533Y-97191529D01*
X125842691Y-97160344D01*
X125856852Y-97130404D01*
X125873879Y-97101995D01*
X125893609Y-97075392D01*
X125915851Y-97050851D01*
X125940392Y-97028609D01*
X125966995Y-97008879D01*
X125995404Y-96991852D01*
X126025344Y-96977691D01*
X126056529Y-96966533D01*
X126088657Y-96958485D01*
X126121419Y-96953625D01*
X126154500Y-96952000D01*
X126829500Y-96952000D01*
X126862581Y-96953625D01*
X126862581Y-96953625D01*
G37*
D13*
X126492000Y-97677000D03*
G04 #@! TD*
D12*
G04 #@! TO.C,R2*
G36*
X126862581Y-107339625D02*
X126895343Y-107344485D01*
X126927471Y-107352533D01*
X126958656Y-107363691D01*
X126988596Y-107377852D01*
X127017005Y-107394879D01*
X127043608Y-107414609D01*
X127068149Y-107436851D01*
X127090391Y-107461392D01*
X127110121Y-107487995D01*
X127127148Y-107516404D01*
X127141309Y-107546344D01*
X127152467Y-107577529D01*
X127160515Y-107609657D01*
X127165375Y-107642419D01*
X127167000Y-107675500D01*
X127167000Y-108450500D01*
X127165375Y-108483581D01*
X127160515Y-108516343D01*
X127152467Y-108548471D01*
X127141309Y-108579656D01*
X127127148Y-108609596D01*
X127110121Y-108638005D01*
X127090391Y-108664608D01*
X127068149Y-108689149D01*
X127043608Y-108711391D01*
X127017005Y-108731121D01*
X126988596Y-108748148D01*
X126958656Y-108762309D01*
X126927471Y-108773467D01*
X126895343Y-108781515D01*
X126862581Y-108786375D01*
X126829500Y-108788000D01*
X126154500Y-108788000D01*
X126121419Y-108786375D01*
X126088657Y-108781515D01*
X126056529Y-108773467D01*
X126025344Y-108762309D01*
X125995404Y-108748148D01*
X125966995Y-108731121D01*
X125940392Y-108711391D01*
X125915851Y-108689149D01*
X125893609Y-108664608D01*
X125873879Y-108638005D01*
X125856852Y-108609596D01*
X125842691Y-108579656D01*
X125831533Y-108548471D01*
X125823485Y-108516343D01*
X125818625Y-108483581D01*
X125817000Y-108450500D01*
X125817000Y-107675500D01*
X125818625Y-107642419D01*
X125823485Y-107609657D01*
X125831533Y-107577529D01*
X125842691Y-107546344D01*
X125856852Y-107516404D01*
X125873879Y-107487995D01*
X125893609Y-107461392D01*
X125915851Y-107436851D01*
X125940392Y-107414609D01*
X125966995Y-107394879D01*
X125995404Y-107377852D01*
X126025344Y-107363691D01*
X126056529Y-107352533D01*
X126088657Y-107344485D01*
X126121419Y-107339625D01*
X126154500Y-107338000D01*
X126829500Y-107338000D01*
X126862581Y-107339625D01*
X126862581Y-107339625D01*
G37*
D13*
X126492000Y-108063000D03*
D12*
G36*
X126862581Y-105589625D02*
X126895343Y-105594485D01*
X126927471Y-105602533D01*
X126958656Y-105613691D01*
X126988596Y-105627852D01*
X127017005Y-105644879D01*
X127043608Y-105664609D01*
X127068149Y-105686851D01*
X127090391Y-105711392D01*
X127110121Y-105737995D01*
X127127148Y-105766404D01*
X127141309Y-105796344D01*
X127152467Y-105827529D01*
X127160515Y-105859657D01*
X127165375Y-105892419D01*
X127167000Y-105925500D01*
X127167000Y-106700500D01*
X127165375Y-106733581D01*
X127160515Y-106766343D01*
X127152467Y-106798471D01*
X127141309Y-106829656D01*
X127127148Y-106859596D01*
X127110121Y-106888005D01*
X127090391Y-106914608D01*
X127068149Y-106939149D01*
X127043608Y-106961391D01*
X127017005Y-106981121D01*
X126988596Y-106998148D01*
X126958656Y-107012309D01*
X126927471Y-107023467D01*
X126895343Y-107031515D01*
X126862581Y-107036375D01*
X126829500Y-107038000D01*
X126154500Y-107038000D01*
X126121419Y-107036375D01*
X126088657Y-107031515D01*
X126056529Y-107023467D01*
X126025344Y-107012309D01*
X125995404Y-106998148D01*
X125966995Y-106981121D01*
X125940392Y-106961391D01*
X125915851Y-106939149D01*
X125893609Y-106914608D01*
X125873879Y-106888005D01*
X125856852Y-106859596D01*
X125842691Y-106829656D01*
X125831533Y-106798471D01*
X125823485Y-106766343D01*
X125818625Y-106733581D01*
X125817000Y-106700500D01*
X125817000Y-105925500D01*
X125818625Y-105892419D01*
X125823485Y-105859657D01*
X125831533Y-105827529D01*
X125842691Y-105796344D01*
X125856852Y-105766404D01*
X125873879Y-105737995D01*
X125893609Y-105711392D01*
X125915851Y-105686851D01*
X125940392Y-105664609D01*
X125966995Y-105644879D01*
X125995404Y-105627852D01*
X126025344Y-105613691D01*
X126056529Y-105602533D01*
X126088657Y-105594485D01*
X126121419Y-105589625D01*
X126154500Y-105588000D01*
X126829500Y-105588000D01*
X126862581Y-105589625D01*
X126862581Y-105589625D01*
G37*
D13*
X126492000Y-106313000D03*
G04 #@! TD*
D12*
G04 #@! TO.C,R1*
G36*
X118226581Y-107339625D02*
X118259343Y-107344485D01*
X118291471Y-107352533D01*
X118322656Y-107363691D01*
X118352596Y-107377852D01*
X118381005Y-107394879D01*
X118407608Y-107414609D01*
X118432149Y-107436851D01*
X118454391Y-107461392D01*
X118474121Y-107487995D01*
X118491148Y-107516404D01*
X118505309Y-107546344D01*
X118516467Y-107577529D01*
X118524515Y-107609657D01*
X118529375Y-107642419D01*
X118531000Y-107675500D01*
X118531000Y-108450500D01*
X118529375Y-108483581D01*
X118524515Y-108516343D01*
X118516467Y-108548471D01*
X118505309Y-108579656D01*
X118491148Y-108609596D01*
X118474121Y-108638005D01*
X118454391Y-108664608D01*
X118432149Y-108689149D01*
X118407608Y-108711391D01*
X118381005Y-108731121D01*
X118352596Y-108748148D01*
X118322656Y-108762309D01*
X118291471Y-108773467D01*
X118259343Y-108781515D01*
X118226581Y-108786375D01*
X118193500Y-108788000D01*
X117518500Y-108788000D01*
X117485419Y-108786375D01*
X117452657Y-108781515D01*
X117420529Y-108773467D01*
X117389344Y-108762309D01*
X117359404Y-108748148D01*
X117330995Y-108731121D01*
X117304392Y-108711391D01*
X117279851Y-108689149D01*
X117257609Y-108664608D01*
X117237879Y-108638005D01*
X117220852Y-108609596D01*
X117206691Y-108579656D01*
X117195533Y-108548471D01*
X117187485Y-108516343D01*
X117182625Y-108483581D01*
X117181000Y-108450500D01*
X117181000Y-107675500D01*
X117182625Y-107642419D01*
X117187485Y-107609657D01*
X117195533Y-107577529D01*
X117206691Y-107546344D01*
X117220852Y-107516404D01*
X117237879Y-107487995D01*
X117257609Y-107461392D01*
X117279851Y-107436851D01*
X117304392Y-107414609D01*
X117330995Y-107394879D01*
X117359404Y-107377852D01*
X117389344Y-107363691D01*
X117420529Y-107352533D01*
X117452657Y-107344485D01*
X117485419Y-107339625D01*
X117518500Y-107338000D01*
X118193500Y-107338000D01*
X118226581Y-107339625D01*
X118226581Y-107339625D01*
G37*
D13*
X117856000Y-108063000D03*
D12*
G36*
X118226581Y-105589625D02*
X118259343Y-105594485D01*
X118291471Y-105602533D01*
X118322656Y-105613691D01*
X118352596Y-105627852D01*
X118381005Y-105644879D01*
X118407608Y-105664609D01*
X118432149Y-105686851D01*
X118454391Y-105711392D01*
X118474121Y-105737995D01*
X118491148Y-105766404D01*
X118505309Y-105796344D01*
X118516467Y-105827529D01*
X118524515Y-105859657D01*
X118529375Y-105892419D01*
X118531000Y-105925500D01*
X118531000Y-106700500D01*
X118529375Y-106733581D01*
X118524515Y-106766343D01*
X118516467Y-106798471D01*
X118505309Y-106829656D01*
X118491148Y-106859596D01*
X118474121Y-106888005D01*
X118454391Y-106914608D01*
X118432149Y-106939149D01*
X118407608Y-106961391D01*
X118381005Y-106981121D01*
X118352596Y-106998148D01*
X118322656Y-107012309D01*
X118291471Y-107023467D01*
X118259343Y-107031515D01*
X118226581Y-107036375D01*
X118193500Y-107038000D01*
X117518500Y-107038000D01*
X117485419Y-107036375D01*
X117452657Y-107031515D01*
X117420529Y-107023467D01*
X117389344Y-107012309D01*
X117359404Y-106998148D01*
X117330995Y-106981121D01*
X117304392Y-106961391D01*
X117279851Y-106939149D01*
X117257609Y-106914608D01*
X117237879Y-106888005D01*
X117220852Y-106859596D01*
X117206691Y-106829656D01*
X117195533Y-106798471D01*
X117187485Y-106766343D01*
X117182625Y-106733581D01*
X117181000Y-106700500D01*
X117181000Y-105925500D01*
X117182625Y-105892419D01*
X117187485Y-105859657D01*
X117195533Y-105827529D01*
X117206691Y-105796344D01*
X117220852Y-105766404D01*
X117237879Y-105737995D01*
X117257609Y-105711392D01*
X117279851Y-105686851D01*
X117304392Y-105664609D01*
X117330995Y-105644879D01*
X117359404Y-105627852D01*
X117389344Y-105613691D01*
X117420529Y-105602533D01*
X117452657Y-105594485D01*
X117485419Y-105589625D01*
X117518500Y-105588000D01*
X118193500Y-105588000D01*
X118226581Y-105589625D01*
X118226581Y-105589625D01*
G37*
D13*
X117856000Y-106313000D03*
G04 #@! TD*
D14*
G04 #@! TO.C,U4*
X168529000Y-90614500D03*
X168529000Y-88074500D03*
X168529000Y-85534500D03*
X168529000Y-82994500D03*
X168529000Y-80454500D03*
X153289000Y-90614500D03*
X153289000Y-88074500D03*
X153289000Y-85534500D03*
X153289000Y-82994500D03*
X153289000Y-80454500D03*
G04 #@! TD*
D15*
G04 #@! TO.C,C1*
X116776000Y-119316500D03*
X108776000Y-119316500D03*
G04 #@! TD*
D16*
G04 #@! TO.C,U3*
X145669000Y-130937000D03*
D17*
X145669000Y-128397000D03*
X145669000Y-125857000D03*
X145669000Y-123317000D03*
X145669000Y-120777000D03*
X145669000Y-118237000D03*
X145669000Y-115697000D03*
X145669000Y-113157000D03*
X145669000Y-110617000D03*
X145669000Y-108077000D03*
X145669000Y-105537000D03*
X145669000Y-102997000D03*
X145669000Y-100457000D03*
X145669000Y-97917000D03*
X145669000Y-95377000D03*
X145669000Y-92837000D03*
X145669000Y-90297000D03*
X145669000Y-87757000D03*
X145669000Y-85217000D03*
X145669000Y-82677000D03*
X130429000Y-82677000D03*
X130429000Y-85217000D03*
X130429000Y-87757000D03*
X130429000Y-90297000D03*
X130429000Y-92837000D03*
X130429000Y-95377000D03*
X130429000Y-97917000D03*
X130429000Y-100457000D03*
X130429000Y-102997000D03*
X130429000Y-105537000D03*
X130429000Y-108077000D03*
X130429000Y-110617000D03*
X130429000Y-113157000D03*
X130429000Y-115697000D03*
X130429000Y-118237000D03*
X130429000Y-120777000D03*
X130429000Y-123317000D03*
X130429000Y-125857000D03*
X130429000Y-128397000D03*
X130429000Y-130937000D03*
G04 #@! TD*
D14*
G04 #@! TO.C,U7*
X153289000Y-122237500D03*
X153289000Y-124777500D03*
X153289000Y-127317500D03*
X153289000Y-129857500D03*
X153289000Y-132397500D03*
X168529000Y-122237500D03*
X168529000Y-124777500D03*
X168529000Y-127317500D03*
X168529000Y-129857500D03*
X168529000Y-132397500D03*
G04 #@! TD*
G04 #@! TO.C,U6*
X168529000Y-118554500D03*
X168529000Y-116014500D03*
X168529000Y-113474500D03*
X168529000Y-110934500D03*
X168529000Y-108394500D03*
X153289000Y-118554500D03*
X153289000Y-116014500D03*
X153289000Y-113474500D03*
X153289000Y-110934500D03*
X153289000Y-108394500D03*
G04 #@! TD*
G04 #@! TO.C,U5*
X153289000Y-94424500D03*
X153289000Y-96964500D03*
X153289000Y-99504500D03*
X153289000Y-102044500D03*
X153289000Y-104584500D03*
X168529000Y-94424500D03*
X168529000Y-96964500D03*
X168529000Y-99504500D03*
X168529000Y-102044500D03*
X168529000Y-104584500D03*
G04 #@! TD*
D18*
G04 #@! TO.C,RV1*
X124609000Y-116562000D03*
X121929000Y-118872000D03*
X124609000Y-121182000D03*
G04 #@! TD*
D19*
G04 #@! TO.C,U2*
X121589800Y-87185500D03*
X121589800Y-88455500D03*
X121589800Y-89725500D03*
X121589800Y-90995500D03*
X116662200Y-90995500D03*
X116662200Y-89725500D03*
X116662200Y-88455500D03*
X116662200Y-87185500D03*
G04 #@! TD*
D20*
G04 #@! TO.C,U1*
X116235500Y-97409000D03*
X116235500Y-98679000D03*
X116235500Y-99949000D03*
X116235500Y-101219000D03*
X121635500Y-101219000D03*
X121635500Y-99949000D03*
X121635500Y-98679000D03*
X121635500Y-97409000D03*
G04 #@! TD*
M02*
