G04 #@! TF.GenerationSoftware,KiCad,Pcbnew,(5.0.0-3-g5ebb6b6)*
G04 #@! TF.CreationDate,2018-10-31T22:03:31-07:00*
G04 #@! TF.ProjectId,Digital Voltmeter,4469676974616C20566F6C746D657465,A*
G04 #@! TF.SameCoordinates,Original*
G04 #@! TF.FileFunction,Copper,L1,Top,Signal*
G04 #@! TF.FilePolarity,Positive*
%FSLAX46Y46*%
G04 Gerber Fmt 4.6, Leading zero omitted, Abs format (unit mm)*
G04 Created by KiCad (PCBNEW (5.0.0-3-g5ebb6b6)) date Wednesday, October 31, 2018 at 10:03:31 PM*
%MOMM*%
%LPD*%
G01*
G04 APERTURE LIST*
G04 #@! TA.AperFunction,ComponentPad*
%ADD10R,1.700000X1.700000*%
G04 #@! TD*
G04 #@! TA.AperFunction,ComponentPad*
%ADD11O,1.700000X1.700000*%
G04 #@! TD*
G04 #@! TA.AperFunction,Conductor*
%ADD12C,0.100000*%
G04 #@! TD*
G04 #@! TA.AperFunction,SMDPad,CuDef*
%ADD13C,0.950000*%
G04 #@! TD*
G04 #@! TA.AperFunction,ComponentPad*
%ADD14C,1.524000*%
G04 #@! TD*
G04 #@! TA.AperFunction,SMDPad,CuDef*
%ADD15R,4.000000X2.500000*%
G04 #@! TD*
G04 #@! TA.AperFunction,ComponentPad*
%ADD16R,1.270000X1.270000*%
G04 #@! TD*
G04 #@! TA.AperFunction,ComponentPad*
%ADD17C,1.270000*%
G04 #@! TD*
G04 #@! TA.AperFunction,ComponentPad*
%ADD18C,1.300000*%
G04 #@! TD*
G04 #@! TA.AperFunction,SMDPad,CuDef*
%ADD19R,1.981200X0.558800*%
G04 #@! TD*
G04 #@! TA.AperFunction,SMDPad,CuDef*
%ADD20R,1.550000X0.600000*%
G04 #@! TD*
G04 #@! TA.AperFunction,ViaPad*
%ADD21C,0.800000*%
G04 #@! TD*
G04 #@! TA.AperFunction,Conductor*
%ADD22C,0.250000*%
G04 #@! TD*
G04 #@! TA.AperFunction,Conductor*
%ADD23C,0.254000*%
G04 #@! TD*
G04 APERTURE END LIST*
D10*
G04 #@! TO.P,J2,1*
G04 #@! TO.N,/Vin=9V*
X108775500Y-98044000D03*
D11*
G04 #@! TO.P,J2,2*
G04 #@! TO.N,GND*
X108775500Y-100584000D03*
G04 #@! TD*
D10*
G04 #@! TO.P,J1,1*
G04 #@! TO.N,/Vin+*
X112776000Y-109029500D03*
D11*
G04 #@! TO.P,J1,2*
G04 #@! TO.N,/Vin-*
X112776000Y-106489500D03*
G04 #@! TD*
D12*
G04 #@! TO.N,Net-(C9-Pad2)*
G04 #@! TO.C,C9*
G36*
X121609279Y-129891144D02*
X121632334Y-129894563D01*
X121654943Y-129900227D01*
X121676887Y-129908079D01*
X121697957Y-129918044D01*
X121717948Y-129930026D01*
X121736668Y-129943910D01*
X121753938Y-129959562D01*
X121769590Y-129976832D01*
X121783474Y-129995552D01*
X121795456Y-130015543D01*
X121805421Y-130036613D01*
X121813273Y-130058557D01*
X121818937Y-130081166D01*
X121822356Y-130104221D01*
X121823500Y-130127500D01*
X121823500Y-130702500D01*
X121822356Y-130725779D01*
X121818937Y-130748834D01*
X121813273Y-130771443D01*
X121805421Y-130793387D01*
X121795456Y-130814457D01*
X121783474Y-130834448D01*
X121769590Y-130853168D01*
X121753938Y-130870438D01*
X121736668Y-130886090D01*
X121717948Y-130899974D01*
X121697957Y-130911956D01*
X121676887Y-130921921D01*
X121654943Y-130929773D01*
X121632334Y-130935437D01*
X121609279Y-130938856D01*
X121586000Y-130940000D01*
X121111000Y-130940000D01*
X121087721Y-130938856D01*
X121064666Y-130935437D01*
X121042057Y-130929773D01*
X121020113Y-130921921D01*
X120999043Y-130911956D01*
X120979052Y-130899974D01*
X120960332Y-130886090D01*
X120943062Y-130870438D01*
X120927410Y-130853168D01*
X120913526Y-130834448D01*
X120901544Y-130814457D01*
X120891579Y-130793387D01*
X120883727Y-130771443D01*
X120878063Y-130748834D01*
X120874644Y-130725779D01*
X120873500Y-130702500D01*
X120873500Y-130127500D01*
X120874644Y-130104221D01*
X120878063Y-130081166D01*
X120883727Y-130058557D01*
X120891579Y-130036613D01*
X120901544Y-130015543D01*
X120913526Y-129995552D01*
X120927410Y-129976832D01*
X120943062Y-129959562D01*
X120960332Y-129943910D01*
X120979052Y-129930026D01*
X120999043Y-129918044D01*
X121020113Y-129908079D01*
X121042057Y-129900227D01*
X121064666Y-129894563D01*
X121087721Y-129891144D01*
X121111000Y-129890000D01*
X121586000Y-129890000D01*
X121609279Y-129891144D01*
X121609279Y-129891144D01*
G37*
D13*
G04 #@! TD*
G04 #@! TO.P,C9,2*
G04 #@! TO.N,Net-(C9-Pad2)*
X121348500Y-130415000D03*
D12*
G04 #@! TO.N,Net-(C9-Pad1)*
G04 #@! TO.C,C9*
G36*
X121609279Y-128141144D02*
X121632334Y-128144563D01*
X121654943Y-128150227D01*
X121676887Y-128158079D01*
X121697957Y-128168044D01*
X121717948Y-128180026D01*
X121736668Y-128193910D01*
X121753938Y-128209562D01*
X121769590Y-128226832D01*
X121783474Y-128245552D01*
X121795456Y-128265543D01*
X121805421Y-128286613D01*
X121813273Y-128308557D01*
X121818937Y-128331166D01*
X121822356Y-128354221D01*
X121823500Y-128377500D01*
X121823500Y-128952500D01*
X121822356Y-128975779D01*
X121818937Y-128998834D01*
X121813273Y-129021443D01*
X121805421Y-129043387D01*
X121795456Y-129064457D01*
X121783474Y-129084448D01*
X121769590Y-129103168D01*
X121753938Y-129120438D01*
X121736668Y-129136090D01*
X121717948Y-129149974D01*
X121697957Y-129161956D01*
X121676887Y-129171921D01*
X121654943Y-129179773D01*
X121632334Y-129185437D01*
X121609279Y-129188856D01*
X121586000Y-129190000D01*
X121111000Y-129190000D01*
X121087721Y-129188856D01*
X121064666Y-129185437D01*
X121042057Y-129179773D01*
X121020113Y-129171921D01*
X120999043Y-129161956D01*
X120979052Y-129149974D01*
X120960332Y-129136090D01*
X120943062Y-129120438D01*
X120927410Y-129103168D01*
X120913526Y-129084448D01*
X120901544Y-129064457D01*
X120891579Y-129043387D01*
X120883727Y-129021443D01*
X120878063Y-128998834D01*
X120874644Y-128975779D01*
X120873500Y-128952500D01*
X120873500Y-128377500D01*
X120874644Y-128354221D01*
X120878063Y-128331166D01*
X120883727Y-128308557D01*
X120891579Y-128286613D01*
X120901544Y-128265543D01*
X120913526Y-128245552D01*
X120927410Y-128226832D01*
X120943062Y-128209562D01*
X120960332Y-128193910D01*
X120979052Y-128180026D01*
X120999043Y-128168044D01*
X121020113Y-128158079D01*
X121042057Y-128150227D01*
X121064666Y-128144563D01*
X121087721Y-128141144D01*
X121111000Y-128140000D01*
X121586000Y-128140000D01*
X121609279Y-128141144D01*
X121609279Y-128141144D01*
G37*
D13*
G04 #@! TD*
G04 #@! TO.P,C9,1*
G04 #@! TO.N,Net-(C9-Pad1)*
X121348500Y-128665000D03*
D12*
G04 #@! TO.N,Net-(C8-Pad1)*
G04 #@! TO.C,C8*
G36*
X126752779Y-92835144D02*
X126775834Y-92838563D01*
X126798443Y-92844227D01*
X126820387Y-92852079D01*
X126841457Y-92862044D01*
X126861448Y-92874026D01*
X126880168Y-92887910D01*
X126897438Y-92903562D01*
X126913090Y-92920832D01*
X126926974Y-92939552D01*
X126938956Y-92959543D01*
X126948921Y-92980613D01*
X126956773Y-93002557D01*
X126962437Y-93025166D01*
X126965856Y-93048221D01*
X126967000Y-93071500D01*
X126967000Y-93646500D01*
X126965856Y-93669779D01*
X126962437Y-93692834D01*
X126956773Y-93715443D01*
X126948921Y-93737387D01*
X126938956Y-93758457D01*
X126926974Y-93778448D01*
X126913090Y-93797168D01*
X126897438Y-93814438D01*
X126880168Y-93830090D01*
X126861448Y-93843974D01*
X126841457Y-93855956D01*
X126820387Y-93865921D01*
X126798443Y-93873773D01*
X126775834Y-93879437D01*
X126752779Y-93882856D01*
X126729500Y-93884000D01*
X126254500Y-93884000D01*
X126231221Y-93882856D01*
X126208166Y-93879437D01*
X126185557Y-93873773D01*
X126163613Y-93865921D01*
X126142543Y-93855956D01*
X126122552Y-93843974D01*
X126103832Y-93830090D01*
X126086562Y-93814438D01*
X126070910Y-93797168D01*
X126057026Y-93778448D01*
X126045044Y-93758457D01*
X126035079Y-93737387D01*
X126027227Y-93715443D01*
X126021563Y-93692834D01*
X126018144Y-93669779D01*
X126017000Y-93646500D01*
X126017000Y-93071500D01*
X126018144Y-93048221D01*
X126021563Y-93025166D01*
X126027227Y-93002557D01*
X126035079Y-92980613D01*
X126045044Y-92959543D01*
X126057026Y-92939552D01*
X126070910Y-92920832D01*
X126086562Y-92903562D01*
X126103832Y-92887910D01*
X126122552Y-92874026D01*
X126142543Y-92862044D01*
X126163613Y-92852079D01*
X126185557Y-92844227D01*
X126208166Y-92838563D01*
X126231221Y-92835144D01*
X126254500Y-92834000D01*
X126729500Y-92834000D01*
X126752779Y-92835144D01*
X126752779Y-92835144D01*
G37*
D13*
G04 #@! TD*
G04 #@! TO.P,C8,1*
G04 #@! TO.N,Net-(C8-Pad1)*
X126492000Y-93359000D03*
D12*
G04 #@! TO.N,Net-(C7-Pad2)*
G04 #@! TO.C,C8*
G36*
X126752779Y-94585144D02*
X126775834Y-94588563D01*
X126798443Y-94594227D01*
X126820387Y-94602079D01*
X126841457Y-94612044D01*
X126861448Y-94624026D01*
X126880168Y-94637910D01*
X126897438Y-94653562D01*
X126913090Y-94670832D01*
X126926974Y-94689552D01*
X126938956Y-94709543D01*
X126948921Y-94730613D01*
X126956773Y-94752557D01*
X126962437Y-94775166D01*
X126965856Y-94798221D01*
X126967000Y-94821500D01*
X126967000Y-95396500D01*
X126965856Y-95419779D01*
X126962437Y-95442834D01*
X126956773Y-95465443D01*
X126948921Y-95487387D01*
X126938956Y-95508457D01*
X126926974Y-95528448D01*
X126913090Y-95547168D01*
X126897438Y-95564438D01*
X126880168Y-95580090D01*
X126861448Y-95593974D01*
X126841457Y-95605956D01*
X126820387Y-95615921D01*
X126798443Y-95623773D01*
X126775834Y-95629437D01*
X126752779Y-95632856D01*
X126729500Y-95634000D01*
X126254500Y-95634000D01*
X126231221Y-95632856D01*
X126208166Y-95629437D01*
X126185557Y-95623773D01*
X126163613Y-95615921D01*
X126142543Y-95605956D01*
X126122552Y-95593974D01*
X126103832Y-95580090D01*
X126086562Y-95564438D01*
X126070910Y-95547168D01*
X126057026Y-95528448D01*
X126045044Y-95508457D01*
X126035079Y-95487387D01*
X126027227Y-95465443D01*
X126021563Y-95442834D01*
X126018144Y-95419779D01*
X126017000Y-95396500D01*
X126017000Y-94821500D01*
X126018144Y-94798221D01*
X126021563Y-94775166D01*
X126027227Y-94752557D01*
X126035079Y-94730613D01*
X126045044Y-94709543D01*
X126057026Y-94689552D01*
X126070910Y-94670832D01*
X126086562Y-94653562D01*
X126103832Y-94637910D01*
X126122552Y-94624026D01*
X126142543Y-94612044D01*
X126163613Y-94602079D01*
X126185557Y-94594227D01*
X126208166Y-94588563D01*
X126231221Y-94585144D01*
X126254500Y-94584000D01*
X126729500Y-94584000D01*
X126752779Y-94585144D01*
X126752779Y-94585144D01*
G37*
D13*
G04 #@! TD*
G04 #@! TO.P,C8,2*
G04 #@! TO.N,Net-(C7-Pad2)*
X126492000Y-95109000D03*
D12*
G04 #@! TO.N,Net-(C7-Pad2)*
G04 #@! TO.C,C7*
G36*
X126752779Y-101471144D02*
X126775834Y-101474563D01*
X126798443Y-101480227D01*
X126820387Y-101488079D01*
X126841457Y-101498044D01*
X126861448Y-101510026D01*
X126880168Y-101523910D01*
X126897438Y-101539562D01*
X126913090Y-101556832D01*
X126926974Y-101575552D01*
X126938956Y-101595543D01*
X126948921Y-101616613D01*
X126956773Y-101638557D01*
X126962437Y-101661166D01*
X126965856Y-101684221D01*
X126967000Y-101707500D01*
X126967000Y-102282500D01*
X126965856Y-102305779D01*
X126962437Y-102328834D01*
X126956773Y-102351443D01*
X126948921Y-102373387D01*
X126938956Y-102394457D01*
X126926974Y-102414448D01*
X126913090Y-102433168D01*
X126897438Y-102450438D01*
X126880168Y-102466090D01*
X126861448Y-102479974D01*
X126841457Y-102491956D01*
X126820387Y-102501921D01*
X126798443Y-102509773D01*
X126775834Y-102515437D01*
X126752779Y-102518856D01*
X126729500Y-102520000D01*
X126254500Y-102520000D01*
X126231221Y-102518856D01*
X126208166Y-102515437D01*
X126185557Y-102509773D01*
X126163613Y-102501921D01*
X126142543Y-102491956D01*
X126122552Y-102479974D01*
X126103832Y-102466090D01*
X126086562Y-102450438D01*
X126070910Y-102433168D01*
X126057026Y-102414448D01*
X126045044Y-102394457D01*
X126035079Y-102373387D01*
X126027227Y-102351443D01*
X126021563Y-102328834D01*
X126018144Y-102305779D01*
X126017000Y-102282500D01*
X126017000Y-101707500D01*
X126018144Y-101684221D01*
X126021563Y-101661166D01*
X126027227Y-101638557D01*
X126035079Y-101616613D01*
X126045044Y-101595543D01*
X126057026Y-101575552D01*
X126070910Y-101556832D01*
X126086562Y-101539562D01*
X126103832Y-101523910D01*
X126122552Y-101510026D01*
X126142543Y-101498044D01*
X126163613Y-101488079D01*
X126185557Y-101480227D01*
X126208166Y-101474563D01*
X126231221Y-101471144D01*
X126254500Y-101470000D01*
X126729500Y-101470000D01*
X126752779Y-101471144D01*
X126752779Y-101471144D01*
G37*
D13*
G04 #@! TD*
G04 #@! TO.P,C7,2*
G04 #@! TO.N,Net-(C7-Pad2)*
X126492000Y-101995000D03*
D12*
G04 #@! TO.N,Net-(C7-Pad1)*
G04 #@! TO.C,C7*
G36*
X126752779Y-103221144D02*
X126775834Y-103224563D01*
X126798443Y-103230227D01*
X126820387Y-103238079D01*
X126841457Y-103248044D01*
X126861448Y-103260026D01*
X126880168Y-103273910D01*
X126897438Y-103289562D01*
X126913090Y-103306832D01*
X126926974Y-103325552D01*
X126938956Y-103345543D01*
X126948921Y-103366613D01*
X126956773Y-103388557D01*
X126962437Y-103411166D01*
X126965856Y-103434221D01*
X126967000Y-103457500D01*
X126967000Y-104032500D01*
X126965856Y-104055779D01*
X126962437Y-104078834D01*
X126956773Y-104101443D01*
X126948921Y-104123387D01*
X126938956Y-104144457D01*
X126926974Y-104164448D01*
X126913090Y-104183168D01*
X126897438Y-104200438D01*
X126880168Y-104216090D01*
X126861448Y-104229974D01*
X126841457Y-104241956D01*
X126820387Y-104251921D01*
X126798443Y-104259773D01*
X126775834Y-104265437D01*
X126752779Y-104268856D01*
X126729500Y-104270000D01*
X126254500Y-104270000D01*
X126231221Y-104268856D01*
X126208166Y-104265437D01*
X126185557Y-104259773D01*
X126163613Y-104251921D01*
X126142543Y-104241956D01*
X126122552Y-104229974D01*
X126103832Y-104216090D01*
X126086562Y-104200438D01*
X126070910Y-104183168D01*
X126057026Y-104164448D01*
X126045044Y-104144457D01*
X126035079Y-104123387D01*
X126027227Y-104101443D01*
X126021563Y-104078834D01*
X126018144Y-104055779D01*
X126017000Y-104032500D01*
X126017000Y-103457500D01*
X126018144Y-103434221D01*
X126021563Y-103411166D01*
X126027227Y-103388557D01*
X126035079Y-103366613D01*
X126045044Y-103345543D01*
X126057026Y-103325552D01*
X126070910Y-103306832D01*
X126086562Y-103289562D01*
X126103832Y-103273910D01*
X126122552Y-103260026D01*
X126142543Y-103248044D01*
X126163613Y-103238079D01*
X126185557Y-103230227D01*
X126208166Y-103224563D01*
X126231221Y-103221144D01*
X126254500Y-103220000D01*
X126729500Y-103220000D01*
X126752779Y-103221144D01*
X126752779Y-103221144D01*
G37*
D13*
G04 #@! TD*
G04 #@! TO.P,C7,1*
G04 #@! TO.N,Net-(C7-Pad1)*
X126492000Y-103745000D03*
D12*
G04 #@! TO.N,Net-(C6-Pad1)*
G04 #@! TO.C,C6*
G36*
X126752779Y-109830144D02*
X126775834Y-109833563D01*
X126798443Y-109839227D01*
X126820387Y-109847079D01*
X126841457Y-109857044D01*
X126861448Y-109869026D01*
X126880168Y-109882910D01*
X126897438Y-109898562D01*
X126913090Y-109915832D01*
X126926974Y-109934552D01*
X126938956Y-109954543D01*
X126948921Y-109975613D01*
X126956773Y-109997557D01*
X126962437Y-110020166D01*
X126965856Y-110043221D01*
X126967000Y-110066500D01*
X126967000Y-110641500D01*
X126965856Y-110664779D01*
X126962437Y-110687834D01*
X126956773Y-110710443D01*
X126948921Y-110732387D01*
X126938956Y-110753457D01*
X126926974Y-110773448D01*
X126913090Y-110792168D01*
X126897438Y-110809438D01*
X126880168Y-110825090D01*
X126861448Y-110838974D01*
X126841457Y-110850956D01*
X126820387Y-110860921D01*
X126798443Y-110868773D01*
X126775834Y-110874437D01*
X126752779Y-110877856D01*
X126729500Y-110879000D01*
X126254500Y-110879000D01*
X126231221Y-110877856D01*
X126208166Y-110874437D01*
X126185557Y-110868773D01*
X126163613Y-110860921D01*
X126142543Y-110850956D01*
X126122552Y-110838974D01*
X126103832Y-110825090D01*
X126086562Y-110809438D01*
X126070910Y-110792168D01*
X126057026Y-110773448D01*
X126045044Y-110753457D01*
X126035079Y-110732387D01*
X126027227Y-110710443D01*
X126021563Y-110687834D01*
X126018144Y-110664779D01*
X126017000Y-110641500D01*
X126017000Y-110066500D01*
X126018144Y-110043221D01*
X126021563Y-110020166D01*
X126027227Y-109997557D01*
X126035079Y-109975613D01*
X126045044Y-109954543D01*
X126057026Y-109934552D01*
X126070910Y-109915832D01*
X126086562Y-109898562D01*
X126103832Y-109882910D01*
X126122552Y-109869026D01*
X126142543Y-109857044D01*
X126163613Y-109847079D01*
X126185557Y-109839227D01*
X126208166Y-109833563D01*
X126231221Y-109830144D01*
X126254500Y-109829000D01*
X126729500Y-109829000D01*
X126752779Y-109830144D01*
X126752779Y-109830144D01*
G37*
D13*
G04 #@! TD*
G04 #@! TO.P,C6,1*
G04 #@! TO.N,Net-(C6-Pad1)*
X126492000Y-110354000D03*
D12*
G04 #@! TO.N,Net-(C6-Pad2)*
G04 #@! TO.C,C6*
G36*
X126752779Y-111580144D02*
X126775834Y-111583563D01*
X126798443Y-111589227D01*
X126820387Y-111597079D01*
X126841457Y-111607044D01*
X126861448Y-111619026D01*
X126880168Y-111632910D01*
X126897438Y-111648562D01*
X126913090Y-111665832D01*
X126926974Y-111684552D01*
X126938956Y-111704543D01*
X126948921Y-111725613D01*
X126956773Y-111747557D01*
X126962437Y-111770166D01*
X126965856Y-111793221D01*
X126967000Y-111816500D01*
X126967000Y-112391500D01*
X126965856Y-112414779D01*
X126962437Y-112437834D01*
X126956773Y-112460443D01*
X126948921Y-112482387D01*
X126938956Y-112503457D01*
X126926974Y-112523448D01*
X126913090Y-112542168D01*
X126897438Y-112559438D01*
X126880168Y-112575090D01*
X126861448Y-112588974D01*
X126841457Y-112600956D01*
X126820387Y-112610921D01*
X126798443Y-112618773D01*
X126775834Y-112624437D01*
X126752779Y-112627856D01*
X126729500Y-112629000D01*
X126254500Y-112629000D01*
X126231221Y-112627856D01*
X126208166Y-112624437D01*
X126185557Y-112618773D01*
X126163613Y-112610921D01*
X126142543Y-112600956D01*
X126122552Y-112588974D01*
X126103832Y-112575090D01*
X126086562Y-112559438D01*
X126070910Y-112542168D01*
X126057026Y-112523448D01*
X126045044Y-112503457D01*
X126035079Y-112482387D01*
X126027227Y-112460443D01*
X126021563Y-112437834D01*
X126018144Y-112414779D01*
X126017000Y-112391500D01*
X126017000Y-111816500D01*
X126018144Y-111793221D01*
X126021563Y-111770166D01*
X126027227Y-111747557D01*
X126035079Y-111725613D01*
X126045044Y-111704543D01*
X126057026Y-111684552D01*
X126070910Y-111665832D01*
X126086562Y-111648562D01*
X126103832Y-111632910D01*
X126122552Y-111619026D01*
X126142543Y-111607044D01*
X126163613Y-111597079D01*
X126185557Y-111589227D01*
X126208166Y-111583563D01*
X126231221Y-111580144D01*
X126254500Y-111579000D01*
X126729500Y-111579000D01*
X126752779Y-111580144D01*
X126752779Y-111580144D01*
G37*
D13*
G04 #@! TD*
G04 #@! TO.P,C6,2*
G04 #@! TO.N,Net-(C6-Pad2)*
X126492000Y-112104000D03*
D12*
G04 #@! TO.N,Net-(C5-Pad2)*
G04 #@! TO.C,C5*
G36*
X122371279Y-107539144D02*
X122394334Y-107542563D01*
X122416943Y-107548227D01*
X122438887Y-107556079D01*
X122459957Y-107566044D01*
X122479948Y-107578026D01*
X122498668Y-107591910D01*
X122515938Y-107607562D01*
X122531590Y-107624832D01*
X122545474Y-107643552D01*
X122557456Y-107663543D01*
X122567421Y-107684613D01*
X122575273Y-107706557D01*
X122580937Y-107729166D01*
X122584356Y-107752221D01*
X122585500Y-107775500D01*
X122585500Y-108350500D01*
X122584356Y-108373779D01*
X122580937Y-108396834D01*
X122575273Y-108419443D01*
X122567421Y-108441387D01*
X122557456Y-108462457D01*
X122545474Y-108482448D01*
X122531590Y-108501168D01*
X122515938Y-108518438D01*
X122498668Y-108534090D01*
X122479948Y-108547974D01*
X122459957Y-108559956D01*
X122438887Y-108569921D01*
X122416943Y-108577773D01*
X122394334Y-108583437D01*
X122371279Y-108586856D01*
X122348000Y-108588000D01*
X121873000Y-108588000D01*
X121849721Y-108586856D01*
X121826666Y-108583437D01*
X121804057Y-108577773D01*
X121782113Y-108569921D01*
X121761043Y-108559956D01*
X121741052Y-108547974D01*
X121722332Y-108534090D01*
X121705062Y-108518438D01*
X121689410Y-108501168D01*
X121675526Y-108482448D01*
X121663544Y-108462457D01*
X121653579Y-108441387D01*
X121645727Y-108419443D01*
X121640063Y-108396834D01*
X121636644Y-108373779D01*
X121635500Y-108350500D01*
X121635500Y-107775500D01*
X121636644Y-107752221D01*
X121640063Y-107729166D01*
X121645727Y-107706557D01*
X121653579Y-107684613D01*
X121663544Y-107663543D01*
X121675526Y-107643552D01*
X121689410Y-107624832D01*
X121705062Y-107607562D01*
X121722332Y-107591910D01*
X121741052Y-107578026D01*
X121761043Y-107566044D01*
X121782113Y-107556079D01*
X121804057Y-107548227D01*
X121826666Y-107542563D01*
X121849721Y-107539144D01*
X121873000Y-107538000D01*
X122348000Y-107538000D01*
X122371279Y-107539144D01*
X122371279Y-107539144D01*
G37*
D13*
G04 #@! TD*
G04 #@! TO.P,C5,2*
G04 #@! TO.N,Net-(C5-Pad2)*
X122110500Y-108063000D03*
D12*
G04 #@! TO.N,/Vin-*
G04 #@! TO.C,C5*
G36*
X122371279Y-105789144D02*
X122394334Y-105792563D01*
X122416943Y-105798227D01*
X122438887Y-105806079D01*
X122459957Y-105816044D01*
X122479948Y-105828026D01*
X122498668Y-105841910D01*
X122515938Y-105857562D01*
X122531590Y-105874832D01*
X122545474Y-105893552D01*
X122557456Y-105913543D01*
X122567421Y-105934613D01*
X122575273Y-105956557D01*
X122580937Y-105979166D01*
X122584356Y-106002221D01*
X122585500Y-106025500D01*
X122585500Y-106600500D01*
X122584356Y-106623779D01*
X122580937Y-106646834D01*
X122575273Y-106669443D01*
X122567421Y-106691387D01*
X122557456Y-106712457D01*
X122545474Y-106732448D01*
X122531590Y-106751168D01*
X122515938Y-106768438D01*
X122498668Y-106784090D01*
X122479948Y-106797974D01*
X122459957Y-106809956D01*
X122438887Y-106819921D01*
X122416943Y-106827773D01*
X122394334Y-106833437D01*
X122371279Y-106836856D01*
X122348000Y-106838000D01*
X121873000Y-106838000D01*
X121849721Y-106836856D01*
X121826666Y-106833437D01*
X121804057Y-106827773D01*
X121782113Y-106819921D01*
X121761043Y-106809956D01*
X121741052Y-106797974D01*
X121722332Y-106784090D01*
X121705062Y-106768438D01*
X121689410Y-106751168D01*
X121675526Y-106732448D01*
X121663544Y-106712457D01*
X121653579Y-106691387D01*
X121645727Y-106669443D01*
X121640063Y-106646834D01*
X121636644Y-106623779D01*
X121635500Y-106600500D01*
X121635500Y-106025500D01*
X121636644Y-106002221D01*
X121640063Y-105979166D01*
X121645727Y-105956557D01*
X121653579Y-105934613D01*
X121663544Y-105913543D01*
X121675526Y-105893552D01*
X121689410Y-105874832D01*
X121705062Y-105857562D01*
X121722332Y-105841910D01*
X121741052Y-105828026D01*
X121761043Y-105816044D01*
X121782113Y-105806079D01*
X121804057Y-105798227D01*
X121826666Y-105792563D01*
X121849721Y-105789144D01*
X121873000Y-105788000D01*
X122348000Y-105788000D01*
X122371279Y-105789144D01*
X122371279Y-105789144D01*
G37*
D13*
G04 #@! TD*
G04 #@! TO.P,C5,1*
G04 #@! TO.N,/Vin-*
X122110500Y-106313000D03*
D12*
G04 #@! TO.N,-5V*
G04 #@! TO.C,C4*
G36*
X126752779Y-88171644D02*
X126775834Y-88175063D01*
X126798443Y-88180727D01*
X126820387Y-88188579D01*
X126841457Y-88198544D01*
X126861448Y-88210526D01*
X126880168Y-88224410D01*
X126897438Y-88240062D01*
X126913090Y-88257332D01*
X126926974Y-88276052D01*
X126938956Y-88296043D01*
X126948921Y-88317113D01*
X126956773Y-88339057D01*
X126962437Y-88361666D01*
X126965856Y-88384721D01*
X126967000Y-88408000D01*
X126967000Y-88983000D01*
X126965856Y-89006279D01*
X126962437Y-89029334D01*
X126956773Y-89051943D01*
X126948921Y-89073887D01*
X126938956Y-89094957D01*
X126926974Y-89114948D01*
X126913090Y-89133668D01*
X126897438Y-89150938D01*
X126880168Y-89166590D01*
X126861448Y-89180474D01*
X126841457Y-89192456D01*
X126820387Y-89202421D01*
X126798443Y-89210273D01*
X126775834Y-89215937D01*
X126752779Y-89219356D01*
X126729500Y-89220500D01*
X126254500Y-89220500D01*
X126231221Y-89219356D01*
X126208166Y-89215937D01*
X126185557Y-89210273D01*
X126163613Y-89202421D01*
X126142543Y-89192456D01*
X126122552Y-89180474D01*
X126103832Y-89166590D01*
X126086562Y-89150938D01*
X126070910Y-89133668D01*
X126057026Y-89114948D01*
X126045044Y-89094957D01*
X126035079Y-89073887D01*
X126027227Y-89051943D01*
X126021563Y-89029334D01*
X126018144Y-89006279D01*
X126017000Y-88983000D01*
X126017000Y-88408000D01*
X126018144Y-88384721D01*
X126021563Y-88361666D01*
X126027227Y-88339057D01*
X126035079Y-88317113D01*
X126045044Y-88296043D01*
X126057026Y-88276052D01*
X126070910Y-88257332D01*
X126086562Y-88240062D01*
X126103832Y-88224410D01*
X126122552Y-88210526D01*
X126142543Y-88198544D01*
X126163613Y-88188579D01*
X126185557Y-88180727D01*
X126208166Y-88175063D01*
X126231221Y-88171644D01*
X126254500Y-88170500D01*
X126729500Y-88170500D01*
X126752779Y-88171644D01*
X126752779Y-88171644D01*
G37*
D13*
G04 #@! TD*
G04 #@! TO.P,C4,1*
G04 #@! TO.N,-5V*
X126492000Y-88695500D03*
D12*
G04 #@! TO.N,GND*
G04 #@! TO.C,C4*
G36*
X126752779Y-86421644D02*
X126775834Y-86425063D01*
X126798443Y-86430727D01*
X126820387Y-86438579D01*
X126841457Y-86448544D01*
X126861448Y-86460526D01*
X126880168Y-86474410D01*
X126897438Y-86490062D01*
X126913090Y-86507332D01*
X126926974Y-86526052D01*
X126938956Y-86546043D01*
X126948921Y-86567113D01*
X126956773Y-86589057D01*
X126962437Y-86611666D01*
X126965856Y-86634721D01*
X126967000Y-86658000D01*
X126967000Y-87233000D01*
X126965856Y-87256279D01*
X126962437Y-87279334D01*
X126956773Y-87301943D01*
X126948921Y-87323887D01*
X126938956Y-87344957D01*
X126926974Y-87364948D01*
X126913090Y-87383668D01*
X126897438Y-87400938D01*
X126880168Y-87416590D01*
X126861448Y-87430474D01*
X126841457Y-87442456D01*
X126820387Y-87452421D01*
X126798443Y-87460273D01*
X126775834Y-87465937D01*
X126752779Y-87469356D01*
X126729500Y-87470500D01*
X126254500Y-87470500D01*
X126231221Y-87469356D01*
X126208166Y-87465937D01*
X126185557Y-87460273D01*
X126163613Y-87452421D01*
X126142543Y-87442456D01*
X126122552Y-87430474D01*
X126103832Y-87416590D01*
X126086562Y-87400938D01*
X126070910Y-87383668D01*
X126057026Y-87364948D01*
X126045044Y-87344957D01*
X126035079Y-87323887D01*
X126027227Y-87301943D01*
X126021563Y-87279334D01*
X126018144Y-87256279D01*
X126017000Y-87233000D01*
X126017000Y-86658000D01*
X126018144Y-86634721D01*
X126021563Y-86611666D01*
X126027227Y-86589057D01*
X126035079Y-86567113D01*
X126045044Y-86546043D01*
X126057026Y-86526052D01*
X126070910Y-86507332D01*
X126086562Y-86490062D01*
X126103832Y-86474410D01*
X126122552Y-86460526D01*
X126142543Y-86448544D01*
X126163613Y-86438579D01*
X126185557Y-86430727D01*
X126208166Y-86425063D01*
X126231221Y-86421644D01*
X126254500Y-86420500D01*
X126729500Y-86420500D01*
X126752779Y-86421644D01*
X126752779Y-86421644D01*
G37*
D13*
G04 #@! TD*
G04 #@! TO.P,C4,2*
G04 #@! TO.N,GND*
X126492000Y-86945500D03*
D12*
G04 #@! TO.N,Net-(C3-Pad2)*
G04 #@! TO.C,C3*
G36*
X112274779Y-89822644D02*
X112297834Y-89826063D01*
X112320443Y-89831727D01*
X112342387Y-89839579D01*
X112363457Y-89849544D01*
X112383448Y-89861526D01*
X112402168Y-89875410D01*
X112419438Y-89891062D01*
X112435090Y-89908332D01*
X112448974Y-89927052D01*
X112460956Y-89947043D01*
X112470921Y-89968113D01*
X112478773Y-89990057D01*
X112484437Y-90012666D01*
X112487856Y-90035721D01*
X112489000Y-90059000D01*
X112489000Y-90634000D01*
X112487856Y-90657279D01*
X112484437Y-90680334D01*
X112478773Y-90702943D01*
X112470921Y-90724887D01*
X112460956Y-90745957D01*
X112448974Y-90765948D01*
X112435090Y-90784668D01*
X112419438Y-90801938D01*
X112402168Y-90817590D01*
X112383448Y-90831474D01*
X112363457Y-90843456D01*
X112342387Y-90853421D01*
X112320443Y-90861273D01*
X112297834Y-90866937D01*
X112274779Y-90870356D01*
X112251500Y-90871500D01*
X111776500Y-90871500D01*
X111753221Y-90870356D01*
X111730166Y-90866937D01*
X111707557Y-90861273D01*
X111685613Y-90853421D01*
X111664543Y-90843456D01*
X111644552Y-90831474D01*
X111625832Y-90817590D01*
X111608562Y-90801938D01*
X111592910Y-90784668D01*
X111579026Y-90765948D01*
X111567044Y-90745957D01*
X111557079Y-90724887D01*
X111549227Y-90702943D01*
X111543563Y-90680334D01*
X111540144Y-90657279D01*
X111539000Y-90634000D01*
X111539000Y-90059000D01*
X111540144Y-90035721D01*
X111543563Y-90012666D01*
X111549227Y-89990057D01*
X111557079Y-89968113D01*
X111567044Y-89947043D01*
X111579026Y-89927052D01*
X111592910Y-89908332D01*
X111608562Y-89891062D01*
X111625832Y-89875410D01*
X111644552Y-89861526D01*
X111664543Y-89849544D01*
X111685613Y-89839579D01*
X111707557Y-89831727D01*
X111730166Y-89826063D01*
X111753221Y-89822644D01*
X111776500Y-89821500D01*
X112251500Y-89821500D01*
X112274779Y-89822644D01*
X112274779Y-89822644D01*
G37*
D13*
G04 #@! TD*
G04 #@! TO.P,C3,2*
G04 #@! TO.N,Net-(C3-Pad2)*
X112014000Y-90346500D03*
D12*
G04 #@! TO.N,Net-(C3-Pad1)*
G04 #@! TO.C,C3*
G36*
X112274779Y-88072644D02*
X112297834Y-88076063D01*
X112320443Y-88081727D01*
X112342387Y-88089579D01*
X112363457Y-88099544D01*
X112383448Y-88111526D01*
X112402168Y-88125410D01*
X112419438Y-88141062D01*
X112435090Y-88158332D01*
X112448974Y-88177052D01*
X112460956Y-88197043D01*
X112470921Y-88218113D01*
X112478773Y-88240057D01*
X112484437Y-88262666D01*
X112487856Y-88285721D01*
X112489000Y-88309000D01*
X112489000Y-88884000D01*
X112487856Y-88907279D01*
X112484437Y-88930334D01*
X112478773Y-88952943D01*
X112470921Y-88974887D01*
X112460956Y-88995957D01*
X112448974Y-89015948D01*
X112435090Y-89034668D01*
X112419438Y-89051938D01*
X112402168Y-89067590D01*
X112383448Y-89081474D01*
X112363457Y-89093456D01*
X112342387Y-89103421D01*
X112320443Y-89111273D01*
X112297834Y-89116937D01*
X112274779Y-89120356D01*
X112251500Y-89121500D01*
X111776500Y-89121500D01*
X111753221Y-89120356D01*
X111730166Y-89116937D01*
X111707557Y-89111273D01*
X111685613Y-89103421D01*
X111664543Y-89093456D01*
X111644552Y-89081474D01*
X111625832Y-89067590D01*
X111608562Y-89051938D01*
X111592910Y-89034668D01*
X111579026Y-89015948D01*
X111567044Y-88995957D01*
X111557079Y-88974887D01*
X111549227Y-88952943D01*
X111543563Y-88930334D01*
X111540144Y-88907279D01*
X111539000Y-88884000D01*
X111539000Y-88309000D01*
X111540144Y-88285721D01*
X111543563Y-88262666D01*
X111549227Y-88240057D01*
X111557079Y-88218113D01*
X111567044Y-88197043D01*
X111579026Y-88177052D01*
X111592910Y-88158332D01*
X111608562Y-88141062D01*
X111625832Y-88125410D01*
X111644552Y-88111526D01*
X111664543Y-88099544D01*
X111685613Y-88089579D01*
X111707557Y-88081727D01*
X111730166Y-88076063D01*
X111753221Y-88072644D01*
X111776500Y-88071500D01*
X112251500Y-88071500D01*
X112274779Y-88072644D01*
X112274779Y-88072644D01*
G37*
D13*
G04 #@! TD*
G04 #@! TO.P,C3,1*
G04 #@! TO.N,Net-(C3-Pad1)*
X112014000Y-88596500D03*
D12*
G04 #@! TO.N,5V*
G04 #@! TO.C,C2*
G36*
X112274779Y-129891144D02*
X112297834Y-129894563D01*
X112320443Y-129900227D01*
X112342387Y-129908079D01*
X112363457Y-129918044D01*
X112383448Y-129930026D01*
X112402168Y-129943910D01*
X112419438Y-129959562D01*
X112435090Y-129976832D01*
X112448974Y-129995552D01*
X112460956Y-130015543D01*
X112470921Y-130036613D01*
X112478773Y-130058557D01*
X112484437Y-130081166D01*
X112487856Y-130104221D01*
X112489000Y-130127500D01*
X112489000Y-130702500D01*
X112487856Y-130725779D01*
X112484437Y-130748834D01*
X112478773Y-130771443D01*
X112470921Y-130793387D01*
X112460956Y-130814457D01*
X112448974Y-130834448D01*
X112435090Y-130853168D01*
X112419438Y-130870438D01*
X112402168Y-130886090D01*
X112383448Y-130899974D01*
X112363457Y-130911956D01*
X112342387Y-130921921D01*
X112320443Y-130929773D01*
X112297834Y-130935437D01*
X112274779Y-130938856D01*
X112251500Y-130940000D01*
X111776500Y-130940000D01*
X111753221Y-130938856D01*
X111730166Y-130935437D01*
X111707557Y-130929773D01*
X111685613Y-130921921D01*
X111664543Y-130911956D01*
X111644552Y-130899974D01*
X111625832Y-130886090D01*
X111608562Y-130870438D01*
X111592910Y-130853168D01*
X111579026Y-130834448D01*
X111567044Y-130814457D01*
X111557079Y-130793387D01*
X111549227Y-130771443D01*
X111543563Y-130748834D01*
X111540144Y-130725779D01*
X111539000Y-130702500D01*
X111539000Y-130127500D01*
X111540144Y-130104221D01*
X111543563Y-130081166D01*
X111549227Y-130058557D01*
X111557079Y-130036613D01*
X111567044Y-130015543D01*
X111579026Y-129995552D01*
X111592910Y-129976832D01*
X111608562Y-129959562D01*
X111625832Y-129943910D01*
X111644552Y-129930026D01*
X111664543Y-129918044D01*
X111685613Y-129908079D01*
X111707557Y-129900227D01*
X111730166Y-129894563D01*
X111753221Y-129891144D01*
X111776500Y-129890000D01*
X112251500Y-129890000D01*
X112274779Y-129891144D01*
X112274779Y-129891144D01*
G37*
D13*
G04 #@! TD*
G04 #@! TO.P,C2,1*
G04 #@! TO.N,5V*
X112014000Y-130415000D03*
D12*
G04 #@! TO.N,GND*
G04 #@! TO.C,C2*
G36*
X112274779Y-128141144D02*
X112297834Y-128144563D01*
X112320443Y-128150227D01*
X112342387Y-128158079D01*
X112363457Y-128168044D01*
X112383448Y-128180026D01*
X112402168Y-128193910D01*
X112419438Y-128209562D01*
X112435090Y-128226832D01*
X112448974Y-128245552D01*
X112460956Y-128265543D01*
X112470921Y-128286613D01*
X112478773Y-128308557D01*
X112484437Y-128331166D01*
X112487856Y-128354221D01*
X112489000Y-128377500D01*
X112489000Y-128952500D01*
X112487856Y-128975779D01*
X112484437Y-128998834D01*
X112478773Y-129021443D01*
X112470921Y-129043387D01*
X112460956Y-129064457D01*
X112448974Y-129084448D01*
X112435090Y-129103168D01*
X112419438Y-129120438D01*
X112402168Y-129136090D01*
X112383448Y-129149974D01*
X112363457Y-129161956D01*
X112342387Y-129171921D01*
X112320443Y-129179773D01*
X112297834Y-129185437D01*
X112274779Y-129188856D01*
X112251500Y-129190000D01*
X111776500Y-129190000D01*
X111753221Y-129188856D01*
X111730166Y-129185437D01*
X111707557Y-129179773D01*
X111685613Y-129171921D01*
X111664543Y-129161956D01*
X111644552Y-129149974D01*
X111625832Y-129136090D01*
X111608562Y-129120438D01*
X111592910Y-129103168D01*
X111579026Y-129084448D01*
X111567044Y-129064457D01*
X111557079Y-129043387D01*
X111549227Y-129021443D01*
X111543563Y-128998834D01*
X111540144Y-128975779D01*
X111539000Y-128952500D01*
X111539000Y-128377500D01*
X111540144Y-128354221D01*
X111543563Y-128331166D01*
X111549227Y-128308557D01*
X111557079Y-128286613D01*
X111567044Y-128265543D01*
X111579026Y-128245552D01*
X111592910Y-128226832D01*
X111608562Y-128209562D01*
X111625832Y-128193910D01*
X111644552Y-128180026D01*
X111664543Y-128168044D01*
X111685613Y-128158079D01*
X111707557Y-128150227D01*
X111730166Y-128144563D01*
X111753221Y-128141144D01*
X111776500Y-128140000D01*
X112251500Y-128140000D01*
X112274779Y-128141144D01*
X112274779Y-128141144D01*
G37*
D13*
G04 #@! TD*
G04 #@! TO.P,C2,2*
G04 #@! TO.N,GND*
X112014000Y-128665000D03*
D12*
G04 #@! TO.N,GND*
G04 #@! TO.C,R6*
G36*
X126752779Y-82103644D02*
X126775834Y-82107063D01*
X126798443Y-82112727D01*
X126820387Y-82120579D01*
X126841457Y-82130544D01*
X126861448Y-82142526D01*
X126880168Y-82156410D01*
X126897438Y-82172062D01*
X126913090Y-82189332D01*
X126926974Y-82208052D01*
X126938956Y-82228043D01*
X126948921Y-82249113D01*
X126956773Y-82271057D01*
X126962437Y-82293666D01*
X126965856Y-82316721D01*
X126967000Y-82340000D01*
X126967000Y-82915000D01*
X126965856Y-82938279D01*
X126962437Y-82961334D01*
X126956773Y-82983943D01*
X126948921Y-83005887D01*
X126938956Y-83026957D01*
X126926974Y-83046948D01*
X126913090Y-83065668D01*
X126897438Y-83082938D01*
X126880168Y-83098590D01*
X126861448Y-83112474D01*
X126841457Y-83124456D01*
X126820387Y-83134421D01*
X126798443Y-83142273D01*
X126775834Y-83147937D01*
X126752779Y-83151356D01*
X126729500Y-83152500D01*
X126254500Y-83152500D01*
X126231221Y-83151356D01*
X126208166Y-83147937D01*
X126185557Y-83142273D01*
X126163613Y-83134421D01*
X126142543Y-83124456D01*
X126122552Y-83112474D01*
X126103832Y-83098590D01*
X126086562Y-83082938D01*
X126070910Y-83065668D01*
X126057026Y-83046948D01*
X126045044Y-83026957D01*
X126035079Y-83005887D01*
X126027227Y-82983943D01*
X126021563Y-82961334D01*
X126018144Y-82938279D01*
X126017000Y-82915000D01*
X126017000Y-82340000D01*
X126018144Y-82316721D01*
X126021563Y-82293666D01*
X126027227Y-82271057D01*
X126035079Y-82249113D01*
X126045044Y-82228043D01*
X126057026Y-82208052D01*
X126070910Y-82189332D01*
X126086562Y-82172062D01*
X126103832Y-82156410D01*
X126122552Y-82142526D01*
X126142543Y-82130544D01*
X126163613Y-82120579D01*
X126185557Y-82112727D01*
X126208166Y-82107063D01*
X126231221Y-82103644D01*
X126254500Y-82102500D01*
X126729500Y-82102500D01*
X126752779Y-82103644D01*
X126752779Y-82103644D01*
G37*
D13*
G04 #@! TD*
G04 #@! TO.P,R6,2*
G04 #@! TO.N,GND*
X126492000Y-82627500D03*
D12*
G04 #@! TO.N,Net-(R6-Pad1)*
G04 #@! TO.C,R6*
G36*
X126752779Y-83853644D02*
X126775834Y-83857063D01*
X126798443Y-83862727D01*
X126820387Y-83870579D01*
X126841457Y-83880544D01*
X126861448Y-83892526D01*
X126880168Y-83906410D01*
X126897438Y-83922062D01*
X126913090Y-83939332D01*
X126926974Y-83958052D01*
X126938956Y-83978043D01*
X126948921Y-83999113D01*
X126956773Y-84021057D01*
X126962437Y-84043666D01*
X126965856Y-84066721D01*
X126967000Y-84090000D01*
X126967000Y-84665000D01*
X126965856Y-84688279D01*
X126962437Y-84711334D01*
X126956773Y-84733943D01*
X126948921Y-84755887D01*
X126938956Y-84776957D01*
X126926974Y-84796948D01*
X126913090Y-84815668D01*
X126897438Y-84832938D01*
X126880168Y-84848590D01*
X126861448Y-84862474D01*
X126841457Y-84874456D01*
X126820387Y-84884421D01*
X126798443Y-84892273D01*
X126775834Y-84897937D01*
X126752779Y-84901356D01*
X126729500Y-84902500D01*
X126254500Y-84902500D01*
X126231221Y-84901356D01*
X126208166Y-84897937D01*
X126185557Y-84892273D01*
X126163613Y-84884421D01*
X126142543Y-84874456D01*
X126122552Y-84862474D01*
X126103832Y-84848590D01*
X126086562Y-84832938D01*
X126070910Y-84815668D01*
X126057026Y-84796948D01*
X126045044Y-84776957D01*
X126035079Y-84755887D01*
X126027227Y-84733943D01*
X126021563Y-84711334D01*
X126018144Y-84688279D01*
X126017000Y-84665000D01*
X126017000Y-84090000D01*
X126018144Y-84066721D01*
X126021563Y-84043666D01*
X126027227Y-84021057D01*
X126035079Y-83999113D01*
X126045044Y-83978043D01*
X126057026Y-83958052D01*
X126070910Y-83939332D01*
X126086562Y-83922062D01*
X126103832Y-83906410D01*
X126122552Y-83892526D01*
X126142543Y-83880544D01*
X126163613Y-83870579D01*
X126185557Y-83862727D01*
X126208166Y-83857063D01*
X126231221Y-83853644D01*
X126254500Y-83852500D01*
X126729500Y-83852500D01*
X126752779Y-83853644D01*
X126752779Y-83853644D01*
G37*
D13*
G04 #@! TD*
G04 #@! TO.P,R6,1*
G04 #@! TO.N,Net-(R6-Pad1)*
X126492000Y-84377500D03*
D12*
G04 #@! TO.N,5V*
G04 #@! TO.C,R5*
G36*
X116973779Y-129891144D02*
X116996834Y-129894563D01*
X117019443Y-129900227D01*
X117041387Y-129908079D01*
X117062457Y-129918044D01*
X117082448Y-129930026D01*
X117101168Y-129943910D01*
X117118438Y-129959562D01*
X117134090Y-129976832D01*
X117147974Y-129995552D01*
X117159956Y-130015543D01*
X117169921Y-130036613D01*
X117177773Y-130058557D01*
X117183437Y-130081166D01*
X117186856Y-130104221D01*
X117188000Y-130127500D01*
X117188000Y-130702500D01*
X117186856Y-130725779D01*
X117183437Y-130748834D01*
X117177773Y-130771443D01*
X117169921Y-130793387D01*
X117159956Y-130814457D01*
X117147974Y-130834448D01*
X117134090Y-130853168D01*
X117118438Y-130870438D01*
X117101168Y-130886090D01*
X117082448Y-130899974D01*
X117062457Y-130911956D01*
X117041387Y-130921921D01*
X117019443Y-130929773D01*
X116996834Y-130935437D01*
X116973779Y-130938856D01*
X116950500Y-130940000D01*
X116475500Y-130940000D01*
X116452221Y-130938856D01*
X116429166Y-130935437D01*
X116406557Y-130929773D01*
X116384613Y-130921921D01*
X116363543Y-130911956D01*
X116343552Y-130899974D01*
X116324832Y-130886090D01*
X116307562Y-130870438D01*
X116291910Y-130853168D01*
X116278026Y-130834448D01*
X116266044Y-130814457D01*
X116256079Y-130793387D01*
X116248227Y-130771443D01*
X116242563Y-130748834D01*
X116239144Y-130725779D01*
X116238000Y-130702500D01*
X116238000Y-130127500D01*
X116239144Y-130104221D01*
X116242563Y-130081166D01*
X116248227Y-130058557D01*
X116256079Y-130036613D01*
X116266044Y-130015543D01*
X116278026Y-129995552D01*
X116291910Y-129976832D01*
X116307562Y-129959562D01*
X116324832Y-129943910D01*
X116343552Y-129930026D01*
X116363543Y-129918044D01*
X116384613Y-129908079D01*
X116406557Y-129900227D01*
X116429166Y-129894563D01*
X116452221Y-129891144D01*
X116475500Y-129890000D01*
X116950500Y-129890000D01*
X116973779Y-129891144D01*
X116973779Y-129891144D01*
G37*
D13*
G04 #@! TD*
G04 #@! TO.P,R5,1*
G04 #@! TO.N,5V*
X116713000Y-130415000D03*
D12*
G04 #@! TO.N,Net-(R5-Pad2)*
G04 #@! TO.C,R5*
G36*
X116973779Y-128141144D02*
X116996834Y-128144563D01*
X117019443Y-128150227D01*
X117041387Y-128158079D01*
X117062457Y-128168044D01*
X117082448Y-128180026D01*
X117101168Y-128193910D01*
X117118438Y-128209562D01*
X117134090Y-128226832D01*
X117147974Y-128245552D01*
X117159956Y-128265543D01*
X117169921Y-128286613D01*
X117177773Y-128308557D01*
X117183437Y-128331166D01*
X117186856Y-128354221D01*
X117188000Y-128377500D01*
X117188000Y-128952500D01*
X117186856Y-128975779D01*
X117183437Y-128998834D01*
X117177773Y-129021443D01*
X117169921Y-129043387D01*
X117159956Y-129064457D01*
X117147974Y-129084448D01*
X117134090Y-129103168D01*
X117118438Y-129120438D01*
X117101168Y-129136090D01*
X117082448Y-129149974D01*
X117062457Y-129161956D01*
X117041387Y-129171921D01*
X117019443Y-129179773D01*
X116996834Y-129185437D01*
X116973779Y-129188856D01*
X116950500Y-129190000D01*
X116475500Y-129190000D01*
X116452221Y-129188856D01*
X116429166Y-129185437D01*
X116406557Y-129179773D01*
X116384613Y-129171921D01*
X116363543Y-129161956D01*
X116343552Y-129149974D01*
X116324832Y-129136090D01*
X116307562Y-129120438D01*
X116291910Y-129103168D01*
X116278026Y-129084448D01*
X116266044Y-129064457D01*
X116256079Y-129043387D01*
X116248227Y-129021443D01*
X116242563Y-128998834D01*
X116239144Y-128975779D01*
X116238000Y-128952500D01*
X116238000Y-128377500D01*
X116239144Y-128354221D01*
X116242563Y-128331166D01*
X116248227Y-128308557D01*
X116256079Y-128286613D01*
X116266044Y-128265543D01*
X116278026Y-128245552D01*
X116291910Y-128226832D01*
X116307562Y-128209562D01*
X116324832Y-128193910D01*
X116343552Y-128180026D01*
X116363543Y-128168044D01*
X116384613Y-128158079D01*
X116406557Y-128150227D01*
X116429166Y-128144563D01*
X116452221Y-128141144D01*
X116475500Y-128140000D01*
X116950500Y-128140000D01*
X116973779Y-128141144D01*
X116973779Y-128141144D01*
G37*
D13*
G04 #@! TD*
G04 #@! TO.P,R5,2*
G04 #@! TO.N,Net-(R5-Pad2)*
X116713000Y-128665000D03*
D12*
G04 #@! TO.N,Net-(C9-Pad2)*
G04 #@! TO.C,R4*
G36*
X126752779Y-129891144D02*
X126775834Y-129894563D01*
X126798443Y-129900227D01*
X126820387Y-129908079D01*
X126841457Y-129918044D01*
X126861448Y-129930026D01*
X126880168Y-129943910D01*
X126897438Y-129959562D01*
X126913090Y-129976832D01*
X126926974Y-129995552D01*
X126938956Y-130015543D01*
X126948921Y-130036613D01*
X126956773Y-130058557D01*
X126962437Y-130081166D01*
X126965856Y-130104221D01*
X126967000Y-130127500D01*
X126967000Y-130702500D01*
X126965856Y-130725779D01*
X126962437Y-130748834D01*
X126956773Y-130771443D01*
X126948921Y-130793387D01*
X126938956Y-130814457D01*
X126926974Y-130834448D01*
X126913090Y-130853168D01*
X126897438Y-130870438D01*
X126880168Y-130886090D01*
X126861448Y-130899974D01*
X126841457Y-130911956D01*
X126820387Y-130921921D01*
X126798443Y-130929773D01*
X126775834Y-130935437D01*
X126752779Y-130938856D01*
X126729500Y-130940000D01*
X126254500Y-130940000D01*
X126231221Y-130938856D01*
X126208166Y-130935437D01*
X126185557Y-130929773D01*
X126163613Y-130921921D01*
X126142543Y-130911956D01*
X126122552Y-130899974D01*
X126103832Y-130886090D01*
X126086562Y-130870438D01*
X126070910Y-130853168D01*
X126057026Y-130834448D01*
X126045044Y-130814457D01*
X126035079Y-130793387D01*
X126027227Y-130771443D01*
X126021563Y-130748834D01*
X126018144Y-130725779D01*
X126017000Y-130702500D01*
X126017000Y-130127500D01*
X126018144Y-130104221D01*
X126021563Y-130081166D01*
X126027227Y-130058557D01*
X126035079Y-130036613D01*
X126045044Y-130015543D01*
X126057026Y-129995552D01*
X126070910Y-129976832D01*
X126086562Y-129959562D01*
X126103832Y-129943910D01*
X126122552Y-129930026D01*
X126142543Y-129918044D01*
X126163613Y-129908079D01*
X126185557Y-129900227D01*
X126208166Y-129894563D01*
X126231221Y-129891144D01*
X126254500Y-129890000D01*
X126729500Y-129890000D01*
X126752779Y-129891144D01*
X126752779Y-129891144D01*
G37*
D13*
G04 #@! TD*
G04 #@! TO.P,R4,2*
G04 #@! TO.N,Net-(C9-Pad2)*
X126492000Y-130415000D03*
D12*
G04 #@! TO.N,Net-(R4-Pad1)*
G04 #@! TO.C,R4*
G36*
X126752779Y-128141144D02*
X126775834Y-128144563D01*
X126798443Y-128150227D01*
X126820387Y-128158079D01*
X126841457Y-128168044D01*
X126861448Y-128180026D01*
X126880168Y-128193910D01*
X126897438Y-128209562D01*
X126913090Y-128226832D01*
X126926974Y-128245552D01*
X126938956Y-128265543D01*
X126948921Y-128286613D01*
X126956773Y-128308557D01*
X126962437Y-128331166D01*
X126965856Y-128354221D01*
X126967000Y-128377500D01*
X126967000Y-128952500D01*
X126965856Y-128975779D01*
X126962437Y-128998834D01*
X126956773Y-129021443D01*
X126948921Y-129043387D01*
X126938956Y-129064457D01*
X126926974Y-129084448D01*
X126913090Y-129103168D01*
X126897438Y-129120438D01*
X126880168Y-129136090D01*
X126861448Y-129149974D01*
X126841457Y-129161956D01*
X126820387Y-129171921D01*
X126798443Y-129179773D01*
X126775834Y-129185437D01*
X126752779Y-129188856D01*
X126729500Y-129190000D01*
X126254500Y-129190000D01*
X126231221Y-129188856D01*
X126208166Y-129185437D01*
X126185557Y-129179773D01*
X126163613Y-129171921D01*
X126142543Y-129161956D01*
X126122552Y-129149974D01*
X126103832Y-129136090D01*
X126086562Y-129120438D01*
X126070910Y-129103168D01*
X126057026Y-129084448D01*
X126045044Y-129064457D01*
X126035079Y-129043387D01*
X126027227Y-129021443D01*
X126021563Y-128998834D01*
X126018144Y-128975779D01*
X126017000Y-128952500D01*
X126017000Y-128377500D01*
X126018144Y-128354221D01*
X126021563Y-128331166D01*
X126027227Y-128308557D01*
X126035079Y-128286613D01*
X126045044Y-128265543D01*
X126057026Y-128245552D01*
X126070910Y-128226832D01*
X126086562Y-128209562D01*
X126103832Y-128193910D01*
X126122552Y-128180026D01*
X126142543Y-128168044D01*
X126163613Y-128158079D01*
X126185557Y-128150227D01*
X126208166Y-128144563D01*
X126231221Y-128141144D01*
X126254500Y-128140000D01*
X126729500Y-128140000D01*
X126752779Y-128141144D01*
X126752779Y-128141144D01*
G37*
D13*
G04 #@! TD*
G04 #@! TO.P,R4,1*
G04 #@! TO.N,Net-(R4-Pad1)*
X126492000Y-128665000D03*
D12*
G04 #@! TO.N,Net-(R3-Pad1)*
G04 #@! TO.C,R3*
G36*
X126752779Y-98903144D02*
X126775834Y-98906563D01*
X126798443Y-98912227D01*
X126820387Y-98920079D01*
X126841457Y-98930044D01*
X126861448Y-98942026D01*
X126880168Y-98955910D01*
X126897438Y-98971562D01*
X126913090Y-98988832D01*
X126926974Y-99007552D01*
X126938956Y-99027543D01*
X126948921Y-99048613D01*
X126956773Y-99070557D01*
X126962437Y-99093166D01*
X126965856Y-99116221D01*
X126967000Y-99139500D01*
X126967000Y-99714500D01*
X126965856Y-99737779D01*
X126962437Y-99760834D01*
X126956773Y-99783443D01*
X126948921Y-99805387D01*
X126938956Y-99826457D01*
X126926974Y-99846448D01*
X126913090Y-99865168D01*
X126897438Y-99882438D01*
X126880168Y-99898090D01*
X126861448Y-99911974D01*
X126841457Y-99923956D01*
X126820387Y-99933921D01*
X126798443Y-99941773D01*
X126775834Y-99947437D01*
X126752779Y-99950856D01*
X126729500Y-99952000D01*
X126254500Y-99952000D01*
X126231221Y-99950856D01*
X126208166Y-99947437D01*
X126185557Y-99941773D01*
X126163613Y-99933921D01*
X126142543Y-99923956D01*
X126122552Y-99911974D01*
X126103832Y-99898090D01*
X126086562Y-99882438D01*
X126070910Y-99865168D01*
X126057026Y-99846448D01*
X126045044Y-99826457D01*
X126035079Y-99805387D01*
X126027227Y-99783443D01*
X126021563Y-99760834D01*
X126018144Y-99737779D01*
X126017000Y-99714500D01*
X126017000Y-99139500D01*
X126018144Y-99116221D01*
X126021563Y-99093166D01*
X126027227Y-99070557D01*
X126035079Y-99048613D01*
X126045044Y-99027543D01*
X126057026Y-99007552D01*
X126070910Y-98988832D01*
X126086562Y-98971562D01*
X126103832Y-98955910D01*
X126122552Y-98942026D01*
X126142543Y-98930044D01*
X126163613Y-98920079D01*
X126185557Y-98912227D01*
X126208166Y-98906563D01*
X126231221Y-98903144D01*
X126254500Y-98902000D01*
X126729500Y-98902000D01*
X126752779Y-98903144D01*
X126752779Y-98903144D01*
G37*
D13*
G04 #@! TD*
G04 #@! TO.P,R3,1*
G04 #@! TO.N,Net-(R3-Pad1)*
X126492000Y-99427000D03*
D12*
G04 #@! TO.N,Net-(C7-Pad2)*
G04 #@! TO.C,R3*
G36*
X126752779Y-97153144D02*
X126775834Y-97156563D01*
X126798443Y-97162227D01*
X126820387Y-97170079D01*
X126841457Y-97180044D01*
X126861448Y-97192026D01*
X126880168Y-97205910D01*
X126897438Y-97221562D01*
X126913090Y-97238832D01*
X126926974Y-97257552D01*
X126938956Y-97277543D01*
X126948921Y-97298613D01*
X126956773Y-97320557D01*
X126962437Y-97343166D01*
X126965856Y-97366221D01*
X126967000Y-97389500D01*
X126967000Y-97964500D01*
X126965856Y-97987779D01*
X126962437Y-98010834D01*
X126956773Y-98033443D01*
X126948921Y-98055387D01*
X126938956Y-98076457D01*
X126926974Y-98096448D01*
X126913090Y-98115168D01*
X126897438Y-98132438D01*
X126880168Y-98148090D01*
X126861448Y-98161974D01*
X126841457Y-98173956D01*
X126820387Y-98183921D01*
X126798443Y-98191773D01*
X126775834Y-98197437D01*
X126752779Y-98200856D01*
X126729500Y-98202000D01*
X126254500Y-98202000D01*
X126231221Y-98200856D01*
X126208166Y-98197437D01*
X126185557Y-98191773D01*
X126163613Y-98183921D01*
X126142543Y-98173956D01*
X126122552Y-98161974D01*
X126103832Y-98148090D01*
X126086562Y-98132438D01*
X126070910Y-98115168D01*
X126057026Y-98096448D01*
X126045044Y-98076457D01*
X126035079Y-98055387D01*
X126027227Y-98033443D01*
X126021563Y-98010834D01*
X126018144Y-97987779D01*
X126017000Y-97964500D01*
X126017000Y-97389500D01*
X126018144Y-97366221D01*
X126021563Y-97343166D01*
X126027227Y-97320557D01*
X126035079Y-97298613D01*
X126045044Y-97277543D01*
X126057026Y-97257552D01*
X126070910Y-97238832D01*
X126086562Y-97221562D01*
X126103832Y-97205910D01*
X126122552Y-97192026D01*
X126142543Y-97180044D01*
X126163613Y-97170079D01*
X126185557Y-97162227D01*
X126208166Y-97156563D01*
X126231221Y-97153144D01*
X126254500Y-97152000D01*
X126729500Y-97152000D01*
X126752779Y-97153144D01*
X126752779Y-97153144D01*
G37*
D13*
G04 #@! TD*
G04 #@! TO.P,R3,2*
G04 #@! TO.N,Net-(C7-Pad2)*
X126492000Y-97677000D03*
D12*
G04 #@! TO.N,Net-(C5-Pad2)*
G04 #@! TO.C,R2*
G36*
X126752779Y-107539144D02*
X126775834Y-107542563D01*
X126798443Y-107548227D01*
X126820387Y-107556079D01*
X126841457Y-107566044D01*
X126861448Y-107578026D01*
X126880168Y-107591910D01*
X126897438Y-107607562D01*
X126913090Y-107624832D01*
X126926974Y-107643552D01*
X126938956Y-107663543D01*
X126948921Y-107684613D01*
X126956773Y-107706557D01*
X126962437Y-107729166D01*
X126965856Y-107752221D01*
X126967000Y-107775500D01*
X126967000Y-108350500D01*
X126965856Y-108373779D01*
X126962437Y-108396834D01*
X126956773Y-108419443D01*
X126948921Y-108441387D01*
X126938956Y-108462457D01*
X126926974Y-108482448D01*
X126913090Y-108501168D01*
X126897438Y-108518438D01*
X126880168Y-108534090D01*
X126861448Y-108547974D01*
X126841457Y-108559956D01*
X126820387Y-108569921D01*
X126798443Y-108577773D01*
X126775834Y-108583437D01*
X126752779Y-108586856D01*
X126729500Y-108588000D01*
X126254500Y-108588000D01*
X126231221Y-108586856D01*
X126208166Y-108583437D01*
X126185557Y-108577773D01*
X126163613Y-108569921D01*
X126142543Y-108559956D01*
X126122552Y-108547974D01*
X126103832Y-108534090D01*
X126086562Y-108518438D01*
X126070910Y-108501168D01*
X126057026Y-108482448D01*
X126045044Y-108462457D01*
X126035079Y-108441387D01*
X126027227Y-108419443D01*
X126021563Y-108396834D01*
X126018144Y-108373779D01*
X126017000Y-108350500D01*
X126017000Y-107775500D01*
X126018144Y-107752221D01*
X126021563Y-107729166D01*
X126027227Y-107706557D01*
X126035079Y-107684613D01*
X126045044Y-107663543D01*
X126057026Y-107643552D01*
X126070910Y-107624832D01*
X126086562Y-107607562D01*
X126103832Y-107591910D01*
X126122552Y-107578026D01*
X126142543Y-107566044D01*
X126163613Y-107556079D01*
X126185557Y-107548227D01*
X126208166Y-107542563D01*
X126231221Y-107539144D01*
X126254500Y-107538000D01*
X126729500Y-107538000D01*
X126752779Y-107539144D01*
X126752779Y-107539144D01*
G37*
D13*
G04 #@! TD*
G04 #@! TO.P,R2,2*
G04 #@! TO.N,Net-(C5-Pad2)*
X126492000Y-108063000D03*
D12*
G04 #@! TO.N,/Vin-*
G04 #@! TO.C,R2*
G36*
X126752779Y-105789144D02*
X126775834Y-105792563D01*
X126798443Y-105798227D01*
X126820387Y-105806079D01*
X126841457Y-105816044D01*
X126861448Y-105828026D01*
X126880168Y-105841910D01*
X126897438Y-105857562D01*
X126913090Y-105874832D01*
X126926974Y-105893552D01*
X126938956Y-105913543D01*
X126948921Y-105934613D01*
X126956773Y-105956557D01*
X126962437Y-105979166D01*
X126965856Y-106002221D01*
X126967000Y-106025500D01*
X126967000Y-106600500D01*
X126965856Y-106623779D01*
X126962437Y-106646834D01*
X126956773Y-106669443D01*
X126948921Y-106691387D01*
X126938956Y-106712457D01*
X126926974Y-106732448D01*
X126913090Y-106751168D01*
X126897438Y-106768438D01*
X126880168Y-106784090D01*
X126861448Y-106797974D01*
X126841457Y-106809956D01*
X126820387Y-106819921D01*
X126798443Y-106827773D01*
X126775834Y-106833437D01*
X126752779Y-106836856D01*
X126729500Y-106838000D01*
X126254500Y-106838000D01*
X126231221Y-106836856D01*
X126208166Y-106833437D01*
X126185557Y-106827773D01*
X126163613Y-106819921D01*
X126142543Y-106809956D01*
X126122552Y-106797974D01*
X126103832Y-106784090D01*
X126086562Y-106768438D01*
X126070910Y-106751168D01*
X126057026Y-106732448D01*
X126045044Y-106712457D01*
X126035079Y-106691387D01*
X126027227Y-106669443D01*
X126021563Y-106646834D01*
X126018144Y-106623779D01*
X126017000Y-106600500D01*
X126017000Y-106025500D01*
X126018144Y-106002221D01*
X126021563Y-105979166D01*
X126027227Y-105956557D01*
X126035079Y-105934613D01*
X126045044Y-105913543D01*
X126057026Y-105893552D01*
X126070910Y-105874832D01*
X126086562Y-105857562D01*
X126103832Y-105841910D01*
X126122552Y-105828026D01*
X126142543Y-105816044D01*
X126163613Y-105806079D01*
X126185557Y-105798227D01*
X126208166Y-105792563D01*
X126231221Y-105789144D01*
X126254500Y-105788000D01*
X126729500Y-105788000D01*
X126752779Y-105789144D01*
X126752779Y-105789144D01*
G37*
D13*
G04 #@! TD*
G04 #@! TO.P,R2,1*
G04 #@! TO.N,/Vin-*
X126492000Y-106313000D03*
D12*
G04 #@! TO.N,Net-(C5-Pad2)*
G04 #@! TO.C,R1*
G36*
X118116779Y-107539144D02*
X118139834Y-107542563D01*
X118162443Y-107548227D01*
X118184387Y-107556079D01*
X118205457Y-107566044D01*
X118225448Y-107578026D01*
X118244168Y-107591910D01*
X118261438Y-107607562D01*
X118277090Y-107624832D01*
X118290974Y-107643552D01*
X118302956Y-107663543D01*
X118312921Y-107684613D01*
X118320773Y-107706557D01*
X118326437Y-107729166D01*
X118329856Y-107752221D01*
X118331000Y-107775500D01*
X118331000Y-108350500D01*
X118329856Y-108373779D01*
X118326437Y-108396834D01*
X118320773Y-108419443D01*
X118312921Y-108441387D01*
X118302956Y-108462457D01*
X118290974Y-108482448D01*
X118277090Y-108501168D01*
X118261438Y-108518438D01*
X118244168Y-108534090D01*
X118225448Y-108547974D01*
X118205457Y-108559956D01*
X118184387Y-108569921D01*
X118162443Y-108577773D01*
X118139834Y-108583437D01*
X118116779Y-108586856D01*
X118093500Y-108588000D01*
X117618500Y-108588000D01*
X117595221Y-108586856D01*
X117572166Y-108583437D01*
X117549557Y-108577773D01*
X117527613Y-108569921D01*
X117506543Y-108559956D01*
X117486552Y-108547974D01*
X117467832Y-108534090D01*
X117450562Y-108518438D01*
X117434910Y-108501168D01*
X117421026Y-108482448D01*
X117409044Y-108462457D01*
X117399079Y-108441387D01*
X117391227Y-108419443D01*
X117385563Y-108396834D01*
X117382144Y-108373779D01*
X117381000Y-108350500D01*
X117381000Y-107775500D01*
X117382144Y-107752221D01*
X117385563Y-107729166D01*
X117391227Y-107706557D01*
X117399079Y-107684613D01*
X117409044Y-107663543D01*
X117421026Y-107643552D01*
X117434910Y-107624832D01*
X117450562Y-107607562D01*
X117467832Y-107591910D01*
X117486552Y-107578026D01*
X117506543Y-107566044D01*
X117527613Y-107556079D01*
X117549557Y-107548227D01*
X117572166Y-107542563D01*
X117595221Y-107539144D01*
X117618500Y-107538000D01*
X118093500Y-107538000D01*
X118116779Y-107539144D01*
X118116779Y-107539144D01*
G37*
D13*
G04 #@! TD*
G04 #@! TO.P,R1,1*
G04 #@! TO.N,Net-(C5-Pad2)*
X117856000Y-108063000D03*
D12*
G04 #@! TO.N,/Vin+*
G04 #@! TO.C,R1*
G36*
X118116779Y-105789144D02*
X118139834Y-105792563D01*
X118162443Y-105798227D01*
X118184387Y-105806079D01*
X118205457Y-105816044D01*
X118225448Y-105828026D01*
X118244168Y-105841910D01*
X118261438Y-105857562D01*
X118277090Y-105874832D01*
X118290974Y-105893552D01*
X118302956Y-105913543D01*
X118312921Y-105934613D01*
X118320773Y-105956557D01*
X118326437Y-105979166D01*
X118329856Y-106002221D01*
X118331000Y-106025500D01*
X118331000Y-106600500D01*
X118329856Y-106623779D01*
X118326437Y-106646834D01*
X118320773Y-106669443D01*
X118312921Y-106691387D01*
X118302956Y-106712457D01*
X118290974Y-106732448D01*
X118277090Y-106751168D01*
X118261438Y-106768438D01*
X118244168Y-106784090D01*
X118225448Y-106797974D01*
X118205457Y-106809956D01*
X118184387Y-106819921D01*
X118162443Y-106827773D01*
X118139834Y-106833437D01*
X118116779Y-106836856D01*
X118093500Y-106838000D01*
X117618500Y-106838000D01*
X117595221Y-106836856D01*
X117572166Y-106833437D01*
X117549557Y-106827773D01*
X117527613Y-106819921D01*
X117506543Y-106809956D01*
X117486552Y-106797974D01*
X117467832Y-106784090D01*
X117450562Y-106768438D01*
X117434910Y-106751168D01*
X117421026Y-106732448D01*
X117409044Y-106712457D01*
X117399079Y-106691387D01*
X117391227Y-106669443D01*
X117385563Y-106646834D01*
X117382144Y-106623779D01*
X117381000Y-106600500D01*
X117381000Y-106025500D01*
X117382144Y-106002221D01*
X117385563Y-105979166D01*
X117391227Y-105956557D01*
X117399079Y-105934613D01*
X117409044Y-105913543D01*
X117421026Y-105893552D01*
X117434910Y-105874832D01*
X117450562Y-105857562D01*
X117467832Y-105841910D01*
X117486552Y-105828026D01*
X117506543Y-105816044D01*
X117527613Y-105806079D01*
X117549557Y-105798227D01*
X117572166Y-105792563D01*
X117595221Y-105789144D01*
X117618500Y-105788000D01*
X118093500Y-105788000D01*
X118116779Y-105789144D01*
X118116779Y-105789144D01*
G37*
D13*
G04 #@! TD*
G04 #@! TO.P,R1,2*
G04 #@! TO.N,/Vin+*
X117856000Y-106313000D03*
D14*
G04 #@! TO.P,U4,10*
G04 #@! TO.N,Net-(U3-Pad20)*
X168529000Y-90614500D03*
G04 #@! TO.P,U4,9*
G04 #@! TO.N,Net-(U4-Pad9)*
X168529000Y-88074500D03*
G04 #@! TO.P,U4,8*
G04 #@! TO.N,N/C*
X168529000Y-85534500D03*
G04 #@! TO.P,U4,7*
G04 #@! TO.N,Net-(U4-Pad7)*
X168529000Y-82994500D03*
G04 #@! TO.P,U4,6*
G04 #@! TO.N,Net-(U3-Pad19)*
X168529000Y-80454500D03*
G04 #@! TO.P,U4,5*
G04 #@! TO.N,Net-(U4-Pad5)*
X153289000Y-90614500D03*
G04 #@! TO.P,U4,4*
G04 #@! TO.N,Net-(U3-Pad19)*
X153289000Y-88074500D03*
G04 #@! TO.P,U4,3*
G04 #@! TO.N,5V*
X153289000Y-85534500D03*
G04 #@! TO.P,U4,2*
G04 #@! TO.N,Net-(U4-Pad2)*
X153289000Y-82994500D03*
G04 #@! TO.P,U4,1*
G04 #@! TO.N,Net-(U4-Pad1)*
X153289000Y-80454500D03*
G04 #@! TD*
D15*
G04 #@! TO.P,C1,1*
G04 #@! TO.N,/Vin=9V*
X116776000Y-119316500D03*
G04 #@! TO.P,C1,2*
G04 #@! TO.N,GND*
X108776000Y-119316500D03*
G04 #@! TD*
D16*
G04 #@! TO.P,U3,1*
G04 #@! TO.N,5V*
X145669000Y-130937000D03*
D17*
G04 #@! TO.P,U3,2*
G04 #@! TO.N,Net-(U3-Pad2)*
X145669000Y-128397000D03*
G04 #@! TO.P,U3,3*
G04 #@! TO.N,Net-(U3-Pad3)*
X145669000Y-125857000D03*
G04 #@! TO.P,U3,4*
G04 #@! TO.N,Net-(U3-Pad4)*
X145669000Y-123317000D03*
G04 #@! TO.P,U3,5*
G04 #@! TO.N,Net-(U3-Pad5)*
X145669000Y-120777000D03*
G04 #@! TO.P,U3,6*
G04 #@! TO.N,Net-(U3-Pad6)*
X145669000Y-118237000D03*
G04 #@! TO.P,U3,7*
G04 #@! TO.N,Net-(U3-Pad7)*
X145669000Y-115697000D03*
G04 #@! TO.P,U3,8*
G04 #@! TO.N,Net-(U3-Pad8)*
X145669000Y-113157000D03*
G04 #@! TO.P,U3,9*
G04 #@! TO.N,Net-(U3-Pad9)*
X145669000Y-110617000D03*
G04 #@! TO.P,U3,10*
G04 #@! TO.N,Net-(U3-Pad10)*
X145669000Y-108077000D03*
G04 #@! TO.P,U3,11*
G04 #@! TO.N,Net-(U3-Pad11)*
X145669000Y-105537000D03*
G04 #@! TO.P,U3,12*
G04 #@! TO.N,Net-(U3-Pad12)*
X145669000Y-102997000D03*
G04 #@! TO.P,U3,13*
G04 #@! TO.N,Net-(U3-Pad13)*
X145669000Y-100457000D03*
G04 #@! TO.P,U3,14*
G04 #@! TO.N,Net-(U3-Pad14)*
X145669000Y-97917000D03*
G04 #@! TO.P,U3,15*
G04 #@! TO.N,Net-(U3-Pad15)*
X145669000Y-95377000D03*
G04 #@! TO.P,U3,16*
G04 #@! TO.N,Net-(U3-Pad16)*
X145669000Y-92837000D03*
G04 #@! TO.P,U3,17*
G04 #@! TO.N,Net-(U3-Pad17)*
X145669000Y-90297000D03*
G04 #@! TO.P,U3,18*
G04 #@! TO.N,Net-(U3-Pad18)*
X145669000Y-87757000D03*
G04 #@! TO.P,U3,19*
G04 #@! TO.N,Net-(U3-Pad19)*
X145669000Y-85217000D03*
G04 #@! TO.P,U3,20*
G04 #@! TO.N,Net-(U3-Pad20)*
X145669000Y-82677000D03*
G04 #@! TO.P,U3,21*
G04 #@! TO.N,GND*
X130429000Y-82677000D03*
G04 #@! TO.P,U3,22*
G04 #@! TO.N,Net-(U3-Pad22)*
X130429000Y-85217000D03*
G04 #@! TO.P,U3,23*
G04 #@! TO.N,Net-(U3-Pad23)*
X130429000Y-87757000D03*
G04 #@! TO.P,U3,24*
G04 #@! TO.N,Net-(U3-Pad24)*
X130429000Y-90297000D03*
G04 #@! TO.P,U3,25*
G04 #@! TO.N,Net-(U3-Pad25)*
X130429000Y-92837000D03*
G04 #@! TO.P,U3,26*
G04 #@! TO.N,-5V*
X130429000Y-95377000D03*
G04 #@! TO.P,U3,27*
G04 #@! TO.N,Net-(C8-Pad1)*
X130429000Y-97917000D03*
G04 #@! TO.P,U3,28*
G04 #@! TO.N,Net-(R3-Pad1)*
X130429000Y-100457000D03*
G04 #@! TO.P,U3,29*
G04 #@! TO.N,Net-(C7-Pad1)*
X130429000Y-102997000D03*
G04 #@! TO.P,U3,30*
G04 #@! TO.N,/Vin-*
X130429000Y-105537000D03*
G04 #@! TO.P,U3,31*
G04 #@! TO.N,Net-(C5-Pad2)*
X130429000Y-108077000D03*
G04 #@! TO.P,U3,32*
G04 #@! TO.N,/Vin-*
X130429000Y-110617000D03*
G04 #@! TO.P,U3,33*
G04 #@! TO.N,Net-(C6-Pad1)*
X130429000Y-113157000D03*
G04 #@! TO.P,U3,34*
G04 #@! TO.N,Net-(C6-Pad2)*
X130429000Y-115697000D03*
G04 #@! TO.P,U3,35*
G04 #@! TO.N,/Vin-*
X130429000Y-118237000D03*
G04 #@! TO.P,U3,36*
G04 #@! TO.N,Net-(RV1-Pad2)*
X130429000Y-120777000D03*
G04 #@! TO.P,U3,37*
G04 #@! TO.N,N/C*
X130429000Y-123317000D03*
G04 #@! TO.P,U3,38*
G04 #@! TO.N,Net-(C9-Pad1)*
X130429000Y-125857000D03*
G04 #@! TO.P,U3,39*
G04 #@! TO.N,Net-(R4-Pad1)*
X130429000Y-128397000D03*
G04 #@! TO.P,U3,40*
G04 #@! TO.N,Net-(C9-Pad2)*
X130429000Y-130937000D03*
G04 #@! TD*
D14*
G04 #@! TO.P,U7,1*
G04 #@! TO.N,Net-(U3-Pad8)*
X153289000Y-122237500D03*
G04 #@! TO.P,U7,2*
G04 #@! TO.N,Net-(U3-Pad2)*
X153289000Y-124777500D03*
G04 #@! TO.P,U7,3*
G04 #@! TO.N,5V*
X153289000Y-127317500D03*
G04 #@! TO.P,U7,4*
G04 #@! TO.N,Net-(U3-Pad3)*
X153289000Y-129857500D03*
G04 #@! TO.P,U7,5*
G04 #@! TO.N,Net-(U7-Pad5)*
X153289000Y-132397500D03*
G04 #@! TO.P,U7,6*
G04 #@! TO.N,Net-(U3-Pad4)*
X168529000Y-122237500D03*
G04 #@! TO.P,U7,7*
G04 #@! TO.N,Net-(U3-Pad5)*
X168529000Y-124777500D03*
G04 #@! TO.P,U7,8*
G04 #@! TO.N,N/C*
X168529000Y-127317500D03*
G04 #@! TO.P,U7,9*
G04 #@! TO.N,Net-(U3-Pad6)*
X168529000Y-129857500D03*
G04 #@! TO.P,U7,10*
G04 #@! TO.N,Net-(U3-Pad7)*
X168529000Y-132397500D03*
G04 #@! TD*
G04 #@! TO.P,U6,10*
G04 #@! TO.N,Net-(U3-Pad25)*
X168529000Y-118554500D03*
G04 #@! TO.P,U6,9*
G04 #@! TO.N,Net-(U3-Pad13)*
X168529000Y-116014500D03*
G04 #@! TO.P,U6,8*
G04 #@! TO.N,N/C*
X168529000Y-113474500D03*
G04 #@! TO.P,U6,7*
G04 #@! TO.N,Net-(U3-Pad12)*
X168529000Y-110934500D03*
G04 #@! TO.P,U6,6*
G04 #@! TO.N,Net-(U3-Pad11)*
X168529000Y-108394500D03*
G04 #@! TO.P,U6,5*
G04 #@! TO.N,Net-(R6-Pad1)*
X153289000Y-118554500D03*
G04 #@! TO.P,U6,4*
G04 #@! TO.N,Net-(U3-Pad10)*
X153289000Y-116014500D03*
G04 #@! TO.P,U6,3*
G04 #@! TO.N,5V*
X153289000Y-113474500D03*
G04 #@! TO.P,U6,2*
G04 #@! TO.N,Net-(U3-Pad9)*
X153289000Y-110934500D03*
G04 #@! TO.P,U6,1*
G04 #@! TO.N,Net-(U3-Pad14)*
X153289000Y-108394500D03*
G04 #@! TD*
G04 #@! TO.P,U5,1*
G04 #@! TO.N,Net-(U3-Pad18)*
X153289000Y-94424500D03*
G04 #@! TO.P,U5,2*
G04 #@! TO.N,Net-(U3-Pad15)*
X153289000Y-96964500D03*
G04 #@! TO.P,U5,3*
G04 #@! TO.N,5V*
X153289000Y-99504500D03*
G04 #@! TO.P,U5,4*
G04 #@! TO.N,Net-(U3-Pad24)*
X153289000Y-102044500D03*
G04 #@! TO.P,U5,5*
G04 #@! TO.N,Net-(U5-Pad5)*
X153289000Y-104584500D03*
G04 #@! TO.P,U5,6*
G04 #@! TO.N,Net-(U3-Pad16)*
X168529000Y-94424500D03*
G04 #@! TO.P,U5,7*
G04 #@! TO.N,Net-(U3-Pad23)*
X168529000Y-96964500D03*
G04 #@! TO.P,U5,8*
G04 #@! TO.N,N/C*
X168529000Y-99504500D03*
G04 #@! TO.P,U5,9*
G04 #@! TO.N,Net-(U3-Pad17)*
X168529000Y-102044500D03*
G04 #@! TO.P,U5,10*
G04 #@! TO.N,Net-(U3-Pad22)*
X168529000Y-104584500D03*
G04 #@! TD*
D18*
G04 #@! TO.P,RV1,1*
G04 #@! TO.N,/Vin-*
X124609000Y-116562000D03*
G04 #@! TO.P,RV1,2*
G04 #@! TO.N,Net-(RV1-Pad2)*
X121929000Y-118872000D03*
G04 #@! TO.P,RV1,3*
G04 #@! TO.N,Net-(R5-Pad2)*
X124609000Y-121182000D03*
G04 #@! TD*
D19*
G04 #@! TO.P,U2,8*
G04 #@! TO.N,5V*
X121589800Y-87185500D03*
G04 #@! TO.P,U2,7*
G04 #@! TO.N,N/C*
X121589800Y-88455500D03*
G04 #@! TO.P,U2,6*
X121589800Y-89725500D03*
G04 #@! TO.P,U2,5*
G04 #@! TO.N,-5V*
X121589800Y-90995500D03*
G04 #@! TO.P,U2,4*
G04 #@! TO.N,Net-(C3-Pad2)*
X116662200Y-90995500D03*
G04 #@! TO.P,U2,3*
G04 #@! TO.N,GND*
X116662200Y-89725500D03*
G04 #@! TO.P,U2,2*
G04 #@! TO.N,Net-(C3-Pad1)*
X116662200Y-88455500D03*
G04 #@! TO.P,U2,1*
G04 #@! TO.N,N/C*
X116662200Y-87185500D03*
G04 #@! TD*
D20*
G04 #@! TO.P,U1,1*
G04 #@! TO.N,5V*
X116235500Y-97409000D03*
G04 #@! TO.P,U1,2*
G04 #@! TO.N,GND*
X116235500Y-98679000D03*
G04 #@! TO.P,U1,3*
X116235500Y-99949000D03*
G04 #@! TO.P,U1,4*
G04 #@! TO.N,/Vin=9V*
X116235500Y-101219000D03*
G04 #@! TO.P,U1,5*
G04 #@! TO.N,5V*
X121635500Y-101219000D03*
G04 #@! TO.P,U1,6*
G04 #@! TO.N,GND*
X121635500Y-99949000D03*
G04 #@! TO.P,U1,7*
X121635500Y-98679000D03*
G04 #@! TO.P,U1,8*
G04 #@! TO.N,/Vin=9V*
X121635500Y-97409000D03*
G04 #@! TD*
D21*
G04 #@! TO.N,/Vin=9V*
X114427000Y-98742500D03*
X111696500Y-98742500D03*
G04 #@! TO.N,5V*
X114490500Y-104013000D03*
X116713000Y-131953000D03*
X114427000Y-97409000D03*
X123380500Y-101282500D03*
G04 #@! TO.N,GND*
X114871500Y-89725500D03*
X118935500Y-99314000D03*
G04 #@! TO.N,/Vin=9V*
X123380500Y-97409000D03*
X114490500Y-101282500D03*
X119634000Y-119380000D03*
G04 #@! TO.N,Net-(U3-Pad25)*
X132651500Y-94361000D03*
X137414000Y-89662000D03*
X141422001Y-79367499D03*
G04 #@! TD*
D22*
G04 #@! TO.N,Net-(C5-Pad2)*
X126506000Y-108077000D02*
X126492000Y-108063000D01*
X130429000Y-108077000D02*
X126506000Y-108077000D01*
X126492000Y-108063000D02*
X122110500Y-108063000D01*
X122110500Y-108063000D02*
X117856000Y-108063000D01*
G04 #@! TO.N,/Vin+*
X115492500Y-106313000D02*
X112776000Y-109029500D01*
X117856000Y-106313000D02*
X115492500Y-106313000D01*
G04 #@! TO.N,/Vin-*
X126284000Y-118237000D02*
X124609000Y-116562000D01*
X130429000Y-118237000D02*
X126284000Y-118237000D01*
X130088500Y-105877500D02*
X130429000Y-105537000D01*
X122110500Y-106313000D02*
X126492000Y-106313000D01*
X127268000Y-105537000D02*
X130429000Y-105537000D01*
X126492000Y-106313000D02*
X127268000Y-105537000D01*
X113625999Y-105639501D02*
X112776000Y-106489500D01*
X113852510Y-105412990D02*
X113625999Y-105639501D01*
X121210490Y-105412990D02*
X113852510Y-105412990D01*
X122110500Y-106313000D02*
X121210490Y-105412990D01*
G04 #@! TO.N,Net-(C9-Pad2)*
X127014000Y-130937000D02*
X126492000Y-130415000D01*
X130429000Y-130937000D02*
X127014000Y-130937000D01*
X126492000Y-130415000D02*
X121348500Y-130415000D01*
G04 #@! TO.N,Net-(R4-Pad1)*
X126760000Y-128397000D02*
X126492000Y-128665000D01*
X130429000Y-128397000D02*
X126760000Y-128397000D01*
G04 #@! TO.N,5V*
X154050999Y-126555501D02*
X153289000Y-127317500D01*
X154376001Y-126230499D02*
X154050999Y-126555501D01*
X154376001Y-114561501D02*
X154376001Y-126230499D01*
X153289000Y-113474500D02*
X154376001Y-114561501D01*
X154376001Y-100591501D02*
X154050999Y-100266499D01*
X154050999Y-100266499D02*
X153289000Y-99504500D01*
X154376001Y-112387499D02*
X154376001Y-100591501D01*
X153289000Y-113474500D02*
X154376001Y-112387499D01*
X154050999Y-86296499D02*
X153289000Y-85534500D01*
X154376001Y-86621501D02*
X154050999Y-86296499D01*
X154376001Y-98417499D02*
X154376001Y-86621501D01*
X153289000Y-99504500D02*
X154376001Y-98417499D01*
X144784000Y-130937000D02*
X145669000Y-130937000D01*
X143823999Y-131897001D02*
X144784000Y-130937000D01*
X116235500Y-96859000D02*
X116235500Y-97409000D01*
X117977801Y-95116699D02*
X116235500Y-96859000D01*
X117977801Y-90086299D02*
X117977801Y-95116699D01*
X120878600Y-87185500D02*
X117977801Y-90086299D01*
X121589800Y-87185500D02*
X120878600Y-87185500D01*
X114427000Y-97409000D02*
X116235500Y-97409000D01*
X121699000Y-101282500D02*
X121635500Y-101219000D01*
X123380500Y-101282500D02*
X121699000Y-101282500D01*
X114890499Y-103613001D02*
X114890499Y-103549501D01*
X114490500Y-104013000D02*
X114890499Y-103613001D01*
X114890499Y-103549501D02*
X116014500Y-102425500D01*
X122237500Y-102425500D02*
X123380500Y-101282500D01*
X116014500Y-102425500D02*
X122237500Y-102425500D01*
X116713000Y-130415000D02*
X116713000Y-131953000D01*
X116138000Y-130415000D02*
X112014000Y-130415000D01*
X116713000Y-130415000D02*
X116138000Y-130415000D01*
X117334684Y-131897001D02*
X143823999Y-131897001D01*
X117278685Y-131953000D02*
X117334684Y-131897001D01*
X116713000Y-131953000D02*
X117278685Y-131953000D01*
G04 #@! TO.N,Net-(R5-Pad2)*
X124609000Y-121707500D02*
X124609000Y-121182000D01*
X124196000Y-121182000D02*
X124609000Y-121182000D01*
X116713000Y-128665000D02*
X124196000Y-121182000D01*
G04 #@! TO.N,Net-(R3-Pad1)*
X127522000Y-100457000D02*
X130429000Y-100457000D01*
X126492000Y-99427000D02*
X127522000Y-100457000D01*
G04 #@! TO.N,Net-(C7-Pad2)*
X125992928Y-98176072D02*
X126492000Y-97677000D01*
X125691990Y-101194990D02*
X125691990Y-98477010D01*
X125691990Y-98477010D02*
X125992928Y-98176072D01*
X126492000Y-101995000D02*
X125691990Y-101194990D01*
X126492000Y-97677000D02*
X126492000Y-95109000D01*
G04 #@! TO.N,GND*
X109526000Y-119316500D02*
X108776000Y-119316500D01*
X126746760Y-82292740D02*
X126492000Y-82547500D01*
X114871500Y-89725500D02*
X116662200Y-89725500D01*
X108776000Y-117816500D02*
X108776000Y-119316500D01*
X114750998Y-99949000D02*
X108776000Y-105923998D01*
X116235500Y-99949000D02*
X114750998Y-99949000D01*
X108776000Y-125427000D02*
X112014000Y-128665000D01*
X108776000Y-119316500D02*
X108776000Y-125427000D01*
X125992928Y-86446428D02*
X126492000Y-86945500D01*
X117194798Y-89725500D02*
X120473870Y-86446428D01*
X116662200Y-89725500D02*
X117194798Y-89725500D01*
X130379500Y-82627500D02*
X130429000Y-82677000D01*
X126492000Y-82627500D02*
X130379500Y-82627500D01*
X125917000Y-82627500D02*
X122098072Y-86446428D01*
X126492000Y-82627500D02*
X125917000Y-82627500D01*
X122098072Y-86446428D02*
X120650000Y-86446428D01*
X120650000Y-86446428D02*
X125992928Y-86446428D01*
X120473870Y-86446428D02*
X120650000Y-86446428D01*
X108776000Y-101786581D02*
X108776000Y-106235500D01*
X108775500Y-101786081D02*
X108776000Y-101786581D01*
X108776000Y-106235500D02*
X108776000Y-117816500D01*
X108775500Y-100584000D02*
X108775500Y-101786081D01*
X108776000Y-105923998D02*
X108776000Y-106235500D01*
G04 #@! TO.N,/Vin=9V*
X119570500Y-119316500D02*
X119634000Y-119380000D01*
X116776000Y-119316500D02*
X119570500Y-119316500D01*
X114554000Y-101219000D02*
X114490500Y-101282500D01*
X116235500Y-101219000D02*
X114554000Y-101219000D01*
X123380500Y-97409000D02*
X121635500Y-97409000D01*
X110998000Y-98044000D02*
X108775500Y-98044000D01*
X111696500Y-98742500D02*
X110998000Y-98044000D01*
X111696500Y-98742500D02*
X114427000Y-98742500D01*
G04 #@! TO.N,Net-(C3-Pad1)*
X116520200Y-88597500D02*
X116662200Y-88455500D01*
X116521200Y-88596500D02*
X116662200Y-88455500D01*
X112014000Y-88596500D02*
X116521200Y-88596500D01*
G04 #@! TO.N,Net-(C3-Pad2)*
X112663000Y-90995500D02*
X116662200Y-90995500D01*
X112014000Y-90346500D02*
X112663000Y-90995500D01*
G04 #@! TO.N,-5V*
X130429000Y-95377000D02*
X126492000Y-91440000D01*
X123147900Y-91313000D02*
X126492000Y-91313000D01*
X121589800Y-90995500D02*
X122830400Y-90995500D01*
X122830400Y-90995500D02*
X123147900Y-91313000D01*
X126492000Y-91440000D02*
X126492000Y-91313000D01*
X126492000Y-88695500D02*
X126492000Y-91313000D01*
G04 #@! TO.N,Net-(RV1-Pad2)*
X128524000Y-118872000D02*
X130429000Y-120777000D01*
X121929000Y-118872000D02*
X128524000Y-118872000D01*
G04 #@! TO.N,Net-(U3-Pad20)*
X146541474Y-84447499D02*
X156075499Y-84447499D01*
X145669000Y-83575025D02*
X146541474Y-84447499D01*
X145669000Y-82677000D02*
X145669000Y-83575025D01*
X162242500Y-90614500D02*
X168529000Y-90614500D01*
X156075499Y-84447499D02*
X162242500Y-90614500D01*
G04 #@! TO.N,Net-(U3-Pad18)*
X152336500Y-94424500D02*
X153289000Y-94424500D01*
X145669000Y-87757000D02*
X152336500Y-94424500D01*
G04 #@! TO.N,Net-(U3-Pad23)*
X131063999Y-87122001D02*
X130429000Y-87757000D01*
X136469001Y-81716999D02*
X131063999Y-87122001D01*
X160267909Y-81716999D02*
X136469001Y-81716999D01*
X162632411Y-84081501D02*
X160267909Y-81716999D01*
X169050761Y-84081501D02*
X162632411Y-84081501D01*
X169616001Y-84646741D02*
X169050761Y-84081501D01*
X169616001Y-95877499D02*
X169616001Y-84646741D01*
X168529000Y-96964500D02*
X169616001Y-95877499D01*
G04 #@! TO.N,Net-(U3-Pad25)*
X169050761Y-79367499D02*
X141422001Y-79367499D01*
X170066011Y-80382749D02*
X169050761Y-79367499D01*
X170066011Y-117017489D02*
X170066011Y-80382749D01*
X168529000Y-118554500D02*
X170066011Y-117017489D01*
X141422001Y-79367499D02*
X141422001Y-79367499D01*
X137350500Y-89662000D02*
X137414000Y-89662000D01*
X132651500Y-94361000D02*
X137350500Y-89662000D01*
G04 #@! TO.N,Net-(U3-Pad10)*
X153289000Y-115697000D02*
X153289000Y-116014500D01*
X145669000Y-108077000D02*
X153289000Y-115697000D01*
G04 #@! TO.N,Net-(U3-Pad14)*
X152527001Y-107632501D02*
X153289000Y-108394500D01*
X151955500Y-107061000D02*
X152527001Y-107632501D01*
X151955500Y-104203500D02*
X151955500Y-107061000D01*
X145669000Y-97917000D02*
X151955500Y-104203500D01*
G04 #@! TO.N,Net-(U3-Pad8)*
X153289000Y-120777000D02*
X145669000Y-113157000D01*
X153289000Y-122237500D02*
X153289000Y-120777000D01*
G04 #@! TO.N,Net-(U3-Pad3)*
X149669500Y-129857500D02*
X153289000Y-129857500D01*
X145669000Y-125857000D02*
X149669500Y-129857500D01*
G04 #@! TO.N,Net-(U3-Pad4)*
X145669000Y-123317000D02*
X146567025Y-123317000D01*
G04 #@! TO.N,Net-(C8-Pad1)*
X130429000Y-97018975D02*
X130429000Y-97917000D01*
X127268097Y-93858072D02*
X130429000Y-97018975D01*
X126991072Y-93858072D02*
X127268097Y-93858072D01*
X126492000Y-93359000D02*
X126991072Y-93858072D01*
G04 #@! TO.N,Net-(C7-Pad1)*
X129681000Y-103745000D02*
X130429000Y-102997000D01*
X126492000Y-103745000D02*
X129681000Y-103745000D01*
G04 #@! TO.N,Net-(C6-Pad1)*
X129295000Y-113157000D02*
X126492000Y-110354000D01*
X130429000Y-113157000D02*
X129295000Y-113157000D01*
G04 #@! TO.N,Net-(C6-Pad2)*
X130429000Y-115651000D02*
X130429000Y-115697000D01*
X126836000Y-112104000D02*
X126492000Y-112104000D01*
X130429000Y-115697000D02*
X126836000Y-112104000D01*
G04 #@! TO.N,Net-(C9-Pad1)*
X124156500Y-125857000D02*
X130429000Y-125857000D01*
X121348500Y-128665000D02*
X124156500Y-125857000D01*
G04 #@! TO.N,Net-(R6-Pad1)*
X146931499Y-112196999D02*
X145828197Y-112196999D01*
X153289000Y-118554500D02*
X146931499Y-112196999D01*
X126492000Y-85002500D02*
X126492000Y-84377500D01*
X126492000Y-85240802D02*
X126492000Y-85002500D01*
X129968199Y-88717001D02*
X126492000Y-85240802D01*
X131548198Y-89899699D02*
X130365500Y-88717001D01*
X131548198Y-97917000D02*
X131548198Y-89899699D01*
X130365500Y-88717001D02*
X129968199Y-88717001D01*
X145828197Y-112196999D02*
X131548198Y-97917000D01*
X131548198Y-97917000D02*
X131389001Y-97757803D01*
G04 #@! TD*
D23*
G04 #@! TO.N,GND*
G36*
X120384250Y-98552000D02*
X121508500Y-98552000D01*
X121508500Y-98532000D01*
X121762500Y-98532000D01*
X121762500Y-98552000D01*
X121782500Y-98552000D01*
X121782500Y-98806000D01*
X121762500Y-98806000D01*
X121762500Y-99822000D01*
X121782500Y-99822000D01*
X121782500Y-100076000D01*
X121762500Y-100076000D01*
X121762500Y-100096000D01*
X121508500Y-100096000D01*
X121508500Y-100076000D01*
X120384250Y-100076000D01*
X120257250Y-100203000D01*
X117613750Y-100203000D01*
X117486750Y-100076000D01*
X116362500Y-100076000D01*
X116362500Y-100096000D01*
X116108500Y-100096000D01*
X116108500Y-100076000D01*
X116088500Y-100076000D01*
X116088500Y-99822000D01*
X116108500Y-99822000D01*
X116108500Y-98806000D01*
X116362500Y-98806000D01*
X116362500Y-99822000D01*
X117486750Y-99822000D01*
X117645500Y-99663250D01*
X117645500Y-99522690D01*
X117559058Y-99314000D01*
X117645500Y-99105310D01*
X117645500Y-98964750D01*
X120225500Y-98964750D01*
X120225500Y-99105310D01*
X120311942Y-99314000D01*
X120225500Y-99522690D01*
X120225500Y-99663250D01*
X120384250Y-99822000D01*
X121508500Y-99822000D01*
X121508500Y-98806000D01*
X120384250Y-98806000D01*
X120225500Y-98964750D01*
X117645500Y-98964750D01*
X117486750Y-98806000D01*
X116362500Y-98806000D01*
X116108500Y-98806000D01*
X116088500Y-98806000D01*
X116088500Y-98552000D01*
X116108500Y-98552000D01*
X116108500Y-98532000D01*
X116362500Y-98532000D01*
X116362500Y-98552000D01*
X117486750Y-98552000D01*
X117613750Y-98425000D01*
X120257250Y-98425000D01*
X120384250Y-98552000D01*
X120384250Y-98552000D01*
G37*
X120384250Y-98552000D02*
X121508500Y-98552000D01*
X121508500Y-98532000D01*
X121762500Y-98532000D01*
X121762500Y-98552000D01*
X121782500Y-98552000D01*
X121782500Y-98806000D01*
X121762500Y-98806000D01*
X121762500Y-99822000D01*
X121782500Y-99822000D01*
X121782500Y-100076000D01*
X121762500Y-100076000D01*
X121762500Y-100096000D01*
X121508500Y-100096000D01*
X121508500Y-100076000D01*
X120384250Y-100076000D01*
X120257250Y-100203000D01*
X117613750Y-100203000D01*
X117486750Y-100076000D01*
X116362500Y-100076000D01*
X116362500Y-100096000D01*
X116108500Y-100096000D01*
X116108500Y-100076000D01*
X116088500Y-100076000D01*
X116088500Y-99822000D01*
X116108500Y-99822000D01*
X116108500Y-98806000D01*
X116362500Y-98806000D01*
X116362500Y-99822000D01*
X117486750Y-99822000D01*
X117645500Y-99663250D01*
X117645500Y-99522690D01*
X117559058Y-99314000D01*
X117645500Y-99105310D01*
X117645500Y-98964750D01*
X120225500Y-98964750D01*
X120225500Y-99105310D01*
X120311942Y-99314000D01*
X120225500Y-99522690D01*
X120225500Y-99663250D01*
X120384250Y-99822000D01*
X121508500Y-99822000D01*
X121508500Y-98806000D01*
X120384250Y-98806000D01*
X120225500Y-98964750D01*
X117645500Y-98964750D01*
X117486750Y-98806000D01*
X116362500Y-98806000D01*
X116108500Y-98806000D01*
X116088500Y-98806000D01*
X116088500Y-98552000D01*
X116108500Y-98552000D01*
X116108500Y-98532000D01*
X116362500Y-98532000D01*
X116362500Y-98552000D01*
X117486750Y-98552000D01*
X117613750Y-98425000D01*
X120257250Y-98425000D01*
X120384250Y-98552000D01*
G04 #@! TD*
M02*
