G04 #@! TF.GenerationSoftware,KiCad,Pcbnew,(5.0.0-3-g5ebb6b6)*
G04 #@! TF.CreationDate,2018-10-31T22:03:31-07:00*
G04 #@! TF.ProjectId,Digital Voltmeter,4469676974616C20566F6C746D657465,A*
G04 #@! TF.SameCoordinates,Original*
G04 #@! TF.FileFunction,Soldermask,Bot*
G04 #@! TF.FilePolarity,Negative*
%FSLAX46Y46*%
G04 Gerber Fmt 4.6, Leading zero omitted, Abs format (unit mm)*
G04 Created by KiCad (PCBNEW (5.0.0-3-g5ebb6b6)) date Wednesday, October 31, 2018 at 10:03:31 PM*
%MOMM*%
%LPD*%
G01*
G04 APERTURE LIST*
%ADD10R,2.100000X2.100000*%
%ADD11O,2.100000X2.100000*%
%ADD12C,1.924000*%
%ADD13R,1.670000X1.670000*%
%ADD14C,1.670000*%
%ADD15C,1.700000*%
G04 APERTURE END LIST*
D10*
G04 #@! TO.C,J2*
X108775500Y-98044000D03*
D11*
X108775500Y-100584000D03*
G04 #@! TD*
D10*
G04 #@! TO.C,J1*
X112776000Y-109029500D03*
D11*
X112776000Y-106489500D03*
G04 #@! TD*
D12*
G04 #@! TO.C,U4*
X168529000Y-90614500D03*
X168529000Y-88074500D03*
X168529000Y-85534500D03*
X168529000Y-82994500D03*
X168529000Y-80454500D03*
X153289000Y-90614500D03*
X153289000Y-88074500D03*
X153289000Y-85534500D03*
X153289000Y-82994500D03*
X153289000Y-80454500D03*
G04 #@! TD*
D13*
G04 #@! TO.C,U3*
X145669000Y-130937000D03*
D14*
X145669000Y-128397000D03*
X145669000Y-125857000D03*
X145669000Y-123317000D03*
X145669000Y-120777000D03*
X145669000Y-118237000D03*
X145669000Y-115697000D03*
X145669000Y-113157000D03*
X145669000Y-110617000D03*
X145669000Y-108077000D03*
X145669000Y-105537000D03*
X145669000Y-102997000D03*
X145669000Y-100457000D03*
X145669000Y-97917000D03*
X145669000Y-95377000D03*
X145669000Y-92837000D03*
X145669000Y-90297000D03*
X145669000Y-87757000D03*
X145669000Y-85217000D03*
X145669000Y-82677000D03*
X130429000Y-82677000D03*
X130429000Y-85217000D03*
X130429000Y-87757000D03*
X130429000Y-90297000D03*
X130429000Y-92837000D03*
X130429000Y-95377000D03*
X130429000Y-97917000D03*
X130429000Y-100457000D03*
X130429000Y-102997000D03*
X130429000Y-105537000D03*
X130429000Y-108077000D03*
X130429000Y-110617000D03*
X130429000Y-113157000D03*
X130429000Y-115697000D03*
X130429000Y-118237000D03*
X130429000Y-120777000D03*
X130429000Y-123317000D03*
X130429000Y-125857000D03*
X130429000Y-128397000D03*
X130429000Y-130937000D03*
G04 #@! TD*
D12*
G04 #@! TO.C,U7*
X153289000Y-122237500D03*
X153289000Y-124777500D03*
X153289000Y-127317500D03*
X153289000Y-129857500D03*
X153289000Y-132397500D03*
X168529000Y-122237500D03*
X168529000Y-124777500D03*
X168529000Y-127317500D03*
X168529000Y-129857500D03*
X168529000Y-132397500D03*
G04 #@! TD*
G04 #@! TO.C,U6*
X168529000Y-118554500D03*
X168529000Y-116014500D03*
X168529000Y-113474500D03*
X168529000Y-110934500D03*
X168529000Y-108394500D03*
X153289000Y-118554500D03*
X153289000Y-116014500D03*
X153289000Y-113474500D03*
X153289000Y-110934500D03*
X153289000Y-108394500D03*
G04 #@! TD*
G04 #@! TO.C,U5*
X153289000Y-94424500D03*
X153289000Y-96964500D03*
X153289000Y-99504500D03*
X153289000Y-102044500D03*
X153289000Y-104584500D03*
X168529000Y-94424500D03*
X168529000Y-96964500D03*
X168529000Y-99504500D03*
X168529000Y-102044500D03*
X168529000Y-104584500D03*
G04 #@! TD*
D15*
G04 #@! TO.C,RV1*
X124609000Y-116562000D03*
X121929000Y-118872000D03*
X124609000Y-121182000D03*
G04 #@! TD*
M02*
