M48
;DRILL file {KiCad (5.0.0-3-g5ebb6b6)} date Wednesday, October 31, 2018 at 10:03:43 PM
;FORMAT={-:-/ absolute / inch / decimal}
FMAT,2
INCH,TZ
T1C0.0157
T2C0.0276
T3C0.0300
T4C0.0394
%
G90
G05
M72
T1
X4.3975Y-3.8875
X4.505Y-3.835
X4.505Y-3.8875
X4.5075Y-3.9875
X4.5075Y-4.095
X4.5225Y-3.5325
X4.595Y-5.195
X4.6825Y-3.91
X4.71Y-4.7
X4.8575Y-3.835
X4.8575Y-3.9875
X5.2225Y-3.715
X5.41Y-3.53
X5.5678Y-3.1247
T2
X4.8004Y-4.68
X4.9059Y-4.5891
X4.9059Y-4.7709
T3
X5.135Y-3.255
X5.135Y-3.355
X5.135Y-3.455
X5.135Y-3.555
X5.135Y-3.655
X5.135Y-3.755
X5.135Y-3.855
X5.135Y-3.955
X5.135Y-4.055
X5.135Y-4.155
X5.135Y-4.255
X5.135Y-4.355
X5.135Y-4.455
X5.135Y-4.555
X5.135Y-4.655
X5.135Y-4.755
X5.135Y-4.855
X5.135Y-4.955
X5.135Y-5.055
X5.135Y-5.155
X5.735Y-3.255
X5.735Y-3.355
X5.735Y-3.455
X5.735Y-3.555
X5.735Y-3.655
X5.735Y-3.755
X5.735Y-3.855
X5.735Y-3.955
X5.735Y-4.055
X5.735Y-4.155
X5.735Y-4.255
X5.735Y-4.355
X5.735Y-4.455
X5.735Y-4.555
X5.735Y-4.655
X5.735Y-4.755
X5.735Y-4.855
X5.735Y-4.955
X5.735Y-5.055
X5.735Y-5.155
T4
X6.035Y-3.1675
X6.035Y-3.2675
X6.035Y-3.3675
X6.035Y-3.4675
X6.035Y-3.5675
X6.635Y-3.1675
X6.635Y-3.2675
X6.635Y-3.3675
X6.635Y-3.4675
X6.635Y-3.5675
X6.035Y-3.7175
X6.035Y-3.8175
X6.035Y-3.9175
X6.035Y-4.0175
X6.035Y-4.1175
X6.635Y-3.7175
X6.635Y-3.8175
X6.635Y-3.9175
X6.635Y-4.0175
X6.635Y-4.1175
X4.44Y-4.1925
X4.44Y-4.2925
X6.035Y-4.2675
X6.035Y-4.3675
X6.035Y-4.4675
X6.035Y-4.5675
X6.035Y-4.6675
X6.635Y-4.2675
X6.635Y-4.3675
X6.635Y-4.4675
X6.635Y-4.5675
X6.635Y-4.6675
X4.2825Y-3.86
X4.2825Y-3.96
X6.035Y-4.8125
X6.035Y-4.9125
X6.035Y-5.0125
X6.035Y-5.1125
X6.035Y-5.2125
X6.635Y-4.8125
X6.635Y-4.9125
X6.635Y-5.0125
X6.635Y-5.1125
X6.635Y-5.2125
T0
M30
