G04 #@! TF.GenerationSoftware,KiCad,Pcbnew,(5.0.0-3-g5ebb6b6)*
G04 #@! TF.CreationDate,2018-10-03T13:59:26-07:00*
G04 #@! TF.ProjectId,Phone Charger,50686F6E6520436861726765722E6B69,rev?*
G04 #@! TF.SameCoordinates,Original*
G04 #@! TF.FileFunction,Legend,Top*
G04 #@! TF.FilePolarity,Positive*
%FSLAX46Y46*%
G04 Gerber Fmt 4.6, Leading zero omitted, Abs format (unit mm)*
G04 Created by KiCad (PCBNEW (5.0.0-3-g5ebb6b6)) date Wednesday, October 03, 2018 at 01:59:26 PM*
%MOMM*%
%LPD*%
G01*
G04 APERTURE LIST*
%ADD10C,0.120000*%
%ADD11C,0.152400*%
%ADD12C,0.150000*%
G04 APERTURE END LIST*
D10*
G04 #@! TO.C,C3*
X146960000Y-84487936D02*
X146960000Y-85692064D01*
X145140000Y-84487936D02*
X145140000Y-85692064D01*
G04 #@! TO.C,C1*
X140880000Y-99662064D02*
X140880000Y-98457936D01*
X143600000Y-99662064D02*
X143600000Y-98457936D01*
G04 #@! TO.C,U1*
X141545000Y-107890000D02*
X141545000Y-110550000D01*
X144145000Y-107890000D02*
X141545000Y-107890000D01*
X144145000Y-110550000D02*
X141545000Y-110550000D01*
X144145000Y-107890000D02*
X144145000Y-110550000D01*
X145415000Y-107890000D02*
X146745000Y-107890000D01*
X146745000Y-107890000D02*
X146745000Y-109220000D01*
G04 #@! TO.C,D2*
X155740000Y-89900000D02*
X151890000Y-89900000D01*
X155740000Y-87900000D02*
X151890000Y-87900000D01*
X155740000Y-89900000D02*
X155740000Y-87900000D01*
G04 #@! TO.C,D1*
X159750000Y-77175000D02*
X157750000Y-77175000D01*
X157750000Y-77175000D02*
X157750000Y-81025000D01*
X159750000Y-77175000D02*
X159750000Y-81025000D01*
G04 #@! TO.C,F1*
X155873752Y-111890000D02*
X151466248Y-111890000D01*
X155873752Y-106550000D02*
X151466248Y-106550000D01*
G04 #@! TO.C,R1*
X144848733Y-103630000D02*
X145191267Y-103630000D01*
X144848733Y-104650000D02*
X145191267Y-104650000D01*
D11*
G04 #@! TO.C,U2*
X149009100Y-102958900D02*
X153250900Y-102958900D01*
X153250900Y-97701100D02*
X149009100Y-97701100D01*
G04 #@! TO.C,C2*
D12*
X153653333Y-93167142D02*
X153605714Y-93214761D01*
X153462857Y-93262380D01*
X153367619Y-93262380D01*
X153224761Y-93214761D01*
X153129523Y-93119523D01*
X153081904Y-93024285D01*
X153034285Y-92833809D01*
X153034285Y-92690952D01*
X153081904Y-92500476D01*
X153129523Y-92405238D01*
X153224761Y-92310000D01*
X153367619Y-92262380D01*
X153462857Y-92262380D01*
X153605714Y-92310000D01*
X153653333Y-92357619D01*
X154034285Y-92357619D02*
X154081904Y-92310000D01*
X154177142Y-92262380D01*
X154415238Y-92262380D01*
X154510476Y-92310000D01*
X154558095Y-92357619D01*
X154605714Y-92452857D01*
X154605714Y-92548095D01*
X154558095Y-92690952D01*
X153986666Y-93262380D01*
X154605714Y-93262380D01*
G04 #@! TO.C,C3*
X148227142Y-85256666D02*
X148274761Y-85304285D01*
X148322380Y-85447142D01*
X148322380Y-85542380D01*
X148274761Y-85685238D01*
X148179523Y-85780476D01*
X148084285Y-85828095D01*
X147893809Y-85875714D01*
X147750952Y-85875714D01*
X147560476Y-85828095D01*
X147465238Y-85780476D01*
X147370000Y-85685238D01*
X147322380Y-85542380D01*
X147322380Y-85447142D01*
X147370000Y-85304285D01*
X147417619Y-85256666D01*
X147322380Y-84923333D02*
X147322380Y-84304285D01*
X147703333Y-84637619D01*
X147703333Y-84494761D01*
X147750952Y-84399523D01*
X147798571Y-84351904D01*
X147893809Y-84304285D01*
X148131904Y-84304285D01*
X148227142Y-84351904D01*
X148274761Y-84399523D01*
X148322380Y-84494761D01*
X148322380Y-84780476D01*
X148274761Y-84875714D01*
X148227142Y-84923333D01*
G04 #@! TO.C,C1*
X140317142Y-99226666D02*
X140364761Y-99274285D01*
X140412380Y-99417142D01*
X140412380Y-99512380D01*
X140364761Y-99655238D01*
X140269523Y-99750476D01*
X140174285Y-99798095D01*
X139983809Y-99845714D01*
X139840952Y-99845714D01*
X139650476Y-99798095D01*
X139555238Y-99750476D01*
X139460000Y-99655238D01*
X139412380Y-99512380D01*
X139412380Y-99417142D01*
X139460000Y-99274285D01*
X139507619Y-99226666D01*
X140412380Y-98274285D02*
X140412380Y-98845714D01*
X140412380Y-98560000D02*
X139412380Y-98560000D01*
X139555238Y-98655238D01*
X139650476Y-98750476D01*
X139698095Y-98845714D01*
G04 #@! TO.C,U1*
X147197380Y-109981904D02*
X148006904Y-109981904D01*
X148102142Y-109934285D01*
X148149761Y-109886666D01*
X148197380Y-109791428D01*
X148197380Y-109600952D01*
X148149761Y-109505714D01*
X148102142Y-109458095D01*
X148006904Y-109410476D01*
X147197380Y-109410476D01*
X148197380Y-108410476D02*
X148197380Y-108981904D01*
X148197380Y-108696190D02*
X147197380Y-108696190D01*
X147340238Y-108791428D01*
X147435476Y-108886666D01*
X147483095Y-108981904D01*
G04 #@! TO.C,J1*
X147354966Y-73112380D02*
X147354966Y-73826666D01*
X147307347Y-73969523D01*
X147212109Y-74064761D01*
X147069252Y-74112380D01*
X146974014Y-74112380D01*
X148354966Y-74112380D02*
X147783538Y-74112380D01*
X148069252Y-74112380D02*
X148069252Y-73112380D01*
X147974014Y-73255238D01*
X147878776Y-73350476D01*
X147783538Y-73398095D01*
G04 #@! TO.C,D2*
X152928904Y-91257380D02*
X152928904Y-90257380D01*
X153167000Y-90257380D01*
X153309857Y-90305000D01*
X153405095Y-90400238D01*
X153452714Y-90495476D01*
X153500333Y-90685952D01*
X153500333Y-90828809D01*
X153452714Y-91019285D01*
X153405095Y-91114523D01*
X153309857Y-91209761D01*
X153167000Y-91257380D01*
X152928904Y-91257380D01*
X153881285Y-90352619D02*
X153928904Y-90305000D01*
X154024142Y-90257380D01*
X154262238Y-90257380D01*
X154357476Y-90305000D01*
X154405095Y-90352619D01*
X154452714Y-90447857D01*
X154452714Y-90543095D01*
X154405095Y-90685952D01*
X153833666Y-91257380D01*
X154452714Y-91257380D01*
G04 #@! TO.C,D1*
X161107380Y-79986095D02*
X160107380Y-79986095D01*
X160107380Y-79748000D01*
X160155000Y-79605142D01*
X160250238Y-79509904D01*
X160345476Y-79462285D01*
X160535952Y-79414666D01*
X160678809Y-79414666D01*
X160869285Y-79462285D01*
X160964523Y-79509904D01*
X161059761Y-79605142D01*
X161107380Y-79748000D01*
X161107380Y-79986095D01*
X161107380Y-78462285D02*
X161107380Y-79033714D01*
X161107380Y-78748000D02*
X160107380Y-78748000D01*
X160250238Y-78843238D01*
X160345476Y-78938476D01*
X160393095Y-79033714D01*
G04 #@! TO.C,F1*
X153336666Y-112828571D02*
X153003333Y-112828571D01*
X153003333Y-113352380D02*
X153003333Y-112352380D01*
X153479523Y-112352380D01*
X154384285Y-113352380D02*
X153812857Y-113352380D01*
X154098571Y-113352380D02*
X154098571Y-112352380D01*
X154003333Y-112495238D01*
X153908095Y-112590476D01*
X153812857Y-112638095D01*
G04 #@! TO.C,L1*
X153503333Y-80462380D02*
X153027142Y-80462380D01*
X153027142Y-79462380D01*
X154360476Y-80462380D02*
X153789047Y-80462380D01*
X154074761Y-80462380D02*
X154074761Y-79462380D01*
X153979523Y-79605238D01*
X153884285Y-79700476D01*
X153789047Y-79748095D01*
G04 #@! TO.C,R1*
X144853333Y-103162380D02*
X144520000Y-102686190D01*
X144281904Y-103162380D02*
X144281904Y-102162380D01*
X144662857Y-102162380D01*
X144758095Y-102210000D01*
X144805714Y-102257619D01*
X144853333Y-102352857D01*
X144853333Y-102495714D01*
X144805714Y-102590952D01*
X144758095Y-102638571D01*
X144662857Y-102686190D01*
X144281904Y-102686190D01*
X145805714Y-103162380D02*
X145234285Y-103162380D01*
X145520000Y-103162380D02*
X145520000Y-102162380D01*
X145424761Y-102305238D01*
X145329523Y-102400476D01*
X145234285Y-102448095D01*
G04 #@! TO.C,U2*
X150368095Y-103592380D02*
X150368095Y-104401904D01*
X150415714Y-104497142D01*
X150463333Y-104544761D01*
X150558571Y-104592380D01*
X150749047Y-104592380D01*
X150844285Y-104544761D01*
X150891904Y-104497142D01*
X150939523Y-104401904D01*
X150939523Y-103592380D01*
X151368095Y-103687619D02*
X151415714Y-103640000D01*
X151510952Y-103592380D01*
X151749047Y-103592380D01*
X151844285Y-103640000D01*
X151891904Y-103687619D01*
X151939523Y-103782857D01*
X151939523Y-103878095D01*
X151891904Y-104020952D01*
X151320476Y-104592380D01*
X151939523Y-104592380D01*
X144582619Y-96686666D02*
X145058809Y-96686666D01*
X144487380Y-96972380D02*
X144820714Y-95972380D01*
X145154047Y-96972380D01*
X145487380Y-96972380D02*
X145487380Y-95972380D01*
X145725476Y-95972380D01*
X145868333Y-96020000D01*
X145963571Y-96115238D01*
X146011190Y-96210476D01*
X146058809Y-96400952D01*
X146058809Y-96543809D01*
X146011190Y-96734285D01*
X145963571Y-96829523D01*
X145868333Y-96924761D01*
X145725476Y-96972380D01*
X145487380Y-96972380D01*
X146487380Y-96972380D02*
X146487380Y-95972380D01*
X146868333Y-95972380D01*
X146963571Y-96020000D01*
X147011190Y-96067619D01*
X147058809Y-96162857D01*
X147058809Y-96305714D01*
X147011190Y-96400952D01*
X146963571Y-96448571D01*
X146868333Y-96496190D01*
X146487380Y-96496190D01*
X147439761Y-96067619D02*
X147487380Y-96020000D01*
X147582619Y-95972380D01*
X147820714Y-95972380D01*
X147915952Y-96020000D01*
X147963571Y-96067619D01*
X148011190Y-96162857D01*
X148011190Y-96258095D01*
X147963571Y-96400952D01*
X147392142Y-96972380D01*
X148011190Y-96972380D01*
X148344523Y-95972380D02*
X148963571Y-95972380D01*
X148630238Y-96353333D01*
X148773095Y-96353333D01*
X148868333Y-96400952D01*
X148915952Y-96448571D01*
X148963571Y-96543809D01*
X148963571Y-96781904D01*
X148915952Y-96877142D01*
X148868333Y-96924761D01*
X148773095Y-96972380D01*
X148487380Y-96972380D01*
X148392142Y-96924761D01*
X148344523Y-96877142D01*
X149582619Y-95972380D02*
X149677857Y-95972380D01*
X149773095Y-96020000D01*
X149820714Y-96067619D01*
X149868333Y-96162857D01*
X149915952Y-96353333D01*
X149915952Y-96591428D01*
X149868333Y-96781904D01*
X149820714Y-96877142D01*
X149773095Y-96924761D01*
X149677857Y-96972380D01*
X149582619Y-96972380D01*
X149487380Y-96924761D01*
X149439761Y-96877142D01*
X149392142Y-96781904D01*
X149344523Y-96591428D01*
X149344523Y-96353333D01*
X149392142Y-96162857D01*
X149439761Y-96067619D01*
X149487380Y-96020000D01*
X149582619Y-95972380D01*
X150249285Y-95972380D02*
X150868333Y-95972380D01*
X150535000Y-96353333D01*
X150677857Y-96353333D01*
X150773095Y-96400952D01*
X150820714Y-96448571D01*
X150868333Y-96543809D01*
X150868333Y-96781904D01*
X150820714Y-96877142D01*
X150773095Y-96924761D01*
X150677857Y-96972380D01*
X150392142Y-96972380D01*
X150296904Y-96924761D01*
X150249285Y-96877142D01*
X151249285Y-96686666D02*
X151725476Y-96686666D01*
X151154047Y-96972380D02*
X151487380Y-95972380D01*
X151820714Y-96972380D01*
X152725476Y-96972380D02*
X152392142Y-96496190D01*
X152154047Y-96972380D02*
X152154047Y-95972380D01*
X152535000Y-95972380D01*
X152630238Y-96020000D01*
X152677857Y-96067619D01*
X152725476Y-96162857D01*
X152725476Y-96305714D01*
X152677857Y-96400952D01*
X152630238Y-96448571D01*
X152535000Y-96496190D01*
X152154047Y-96496190D01*
X153154047Y-96972380D02*
X153154047Y-95972380D01*
X153392142Y-95972380D01*
X153535000Y-96020000D01*
X153630238Y-96115238D01*
X153677857Y-96210476D01*
X153725476Y-96400952D01*
X153725476Y-96543809D01*
X153677857Y-96734285D01*
X153630238Y-96829523D01*
X153535000Y-96924761D01*
X153392142Y-96972380D01*
X153154047Y-96972380D01*
X154058809Y-95972380D02*
X154725476Y-95972380D01*
X154058809Y-96972380D01*
X154725476Y-96972380D01*
X155106428Y-96591428D02*
X155868333Y-96591428D01*
X156820714Y-95972380D02*
X156344523Y-95972380D01*
X156296904Y-96448571D01*
X156344523Y-96400952D01*
X156439761Y-96353333D01*
X156677857Y-96353333D01*
X156773095Y-96400952D01*
X156820714Y-96448571D01*
X156868333Y-96543809D01*
X156868333Y-96781904D01*
X156820714Y-96877142D01*
X156773095Y-96924761D01*
X156677857Y-96972380D01*
X156439761Y-96972380D01*
X156344523Y-96924761D01*
X156296904Y-96877142D01*
X157296904Y-96877142D02*
X157344523Y-96924761D01*
X157296904Y-96972380D01*
X157249285Y-96924761D01*
X157296904Y-96877142D01*
X157296904Y-96972380D01*
X157963571Y-95972380D02*
X158058809Y-95972380D01*
X158154047Y-96020000D01*
X158201666Y-96067619D01*
X158249285Y-96162857D01*
X158296904Y-96353333D01*
X158296904Y-96591428D01*
X158249285Y-96781904D01*
X158201666Y-96877142D01*
X158154047Y-96924761D01*
X158058809Y-96972380D01*
X157963571Y-96972380D01*
X157868333Y-96924761D01*
X157820714Y-96877142D01*
X157773095Y-96781904D01*
X157725476Y-96591428D01*
X157725476Y-96353333D01*
X157773095Y-96162857D01*
X157820714Y-96067619D01*
X157868333Y-96020000D01*
X157963571Y-95972380D01*
X158725476Y-96591428D02*
X159487380Y-96591428D01*
X160535000Y-96972380D02*
X160201666Y-96496190D01*
X159963571Y-96972380D02*
X159963571Y-95972380D01*
X160344523Y-95972380D01*
X160439761Y-96020000D01*
X160487380Y-96067619D01*
X160535000Y-96162857D01*
X160535000Y-96305714D01*
X160487380Y-96400952D01*
X160439761Y-96448571D01*
X160344523Y-96496190D01*
X159963571Y-96496190D01*
X160868333Y-95972380D02*
X161535000Y-95972380D01*
X161106428Y-96972380D01*
X148513800Y-96175580D02*
X148513800Y-96413676D01*
X148275704Y-96318438D02*
X148513800Y-96413676D01*
X148751895Y-96318438D01*
X148370942Y-96604152D02*
X148513800Y-96413676D01*
X148656657Y-96604152D01*
G04 #@! TD*
M02*
