M48
;DRILL file {KiCad (5.0.0-3-g5ebb6b6)} date Wednesday, October 03, 2018 at 01:59:46 PM
;FORMAT={-:-/ absolute / inch / decimal}
FMAT,2
INCH,TZ
T1C0.0157
T2C0.0360
T3C0.0394
T4C0.0910
%
G90
G05
M72
T1
X5.575Y-3.75
X5.59Y-3.44
X5.59Y-4.09
X5.72Y-3.96
X5.755Y-3.605
X5.89Y-3.25
X5.9Y-3.775
X5.95Y-3.95
X5.975Y-3.41
X6.105Y-3.6
X6.11Y-3.38
X6.11Y-3.795
T2
X5.6958Y-3.15
X5.775Y-3.15
X5.854Y-3.15
X5.9332Y-3.15
T3
X5.625Y-4.3
X5.725Y-4.3
T4
X5.5753Y-3.043
X6.0537Y-3.043
T0
M30
