G04 #@! TF.GenerationSoftware,KiCad,Pcbnew,(5.0.0-3-g5ebb6b6)*
G04 #@! TF.CreationDate,2018-10-03T13:59:26-07:00*
G04 #@! TF.ProjectId,Phone Charger,50686F6E6520436861726765722E6B69,rev?*
G04 #@! TF.SameCoordinates,Original*
G04 #@! TF.FileFunction,Soldermask,Top*
G04 #@! TF.FilePolarity,Negative*
%FSLAX46Y46*%
G04 Gerber Fmt 4.6, Leading zero omitted, Abs format (unit mm)*
G04 Created by KiCad (PCBNEW (5.0.0-3-g5ebb6b6)) date Wednesday, October 03, 2018 at 01:59:26 PM*
%MOMM*%
%LPD*%
G01*
G04 APERTURE LIST*
%ADD10C,0.100000*%
%ADD11C,0.990000*%
%ADD12C,1.825000*%
%ADD13R,2.100000X2.100000*%
%ADD14O,2.100000X2.100000*%
%ADD15C,1.924000*%
%ADD16C,3.448000*%
%ADD17R,1.500000X1.500000*%
%ADD18C,2.500000*%
%ADD19R,1.250000X2.700000*%
%ADD20C,1.350000*%
%ADD21R,2.584400X0.958800*%
%ADD22R,1.800000X1.800000*%
G04 APERTURE END LIST*
D10*
G04 #@! TO.C,C2*
G36*
X153606759Y-93461192D02*
X153630785Y-93464756D01*
X153654345Y-93470657D01*
X153677214Y-93478840D01*
X153699171Y-93489224D01*
X153720004Y-93501711D01*
X153739512Y-93516180D01*
X153757509Y-93532491D01*
X153773820Y-93550488D01*
X153788289Y-93569996D01*
X153800776Y-93590829D01*
X153811160Y-93612786D01*
X153819343Y-93635655D01*
X153825244Y-93659215D01*
X153828808Y-93683241D01*
X153830000Y-93707500D01*
X153830000Y-94252500D01*
X153828808Y-94276759D01*
X153825244Y-94300785D01*
X153819343Y-94324345D01*
X153811160Y-94347214D01*
X153800776Y-94369171D01*
X153788289Y-94390004D01*
X153773820Y-94409512D01*
X153757509Y-94427509D01*
X153739512Y-94443820D01*
X153720004Y-94458289D01*
X153699171Y-94470776D01*
X153677214Y-94481160D01*
X153654345Y-94489343D01*
X153630785Y-94495244D01*
X153606759Y-94498808D01*
X153582500Y-94500000D01*
X153087500Y-94500000D01*
X153063241Y-94498808D01*
X153039215Y-94495244D01*
X153015655Y-94489343D01*
X152992786Y-94481160D01*
X152970829Y-94470776D01*
X152949996Y-94458289D01*
X152930488Y-94443820D01*
X152912491Y-94427509D01*
X152896180Y-94409512D01*
X152881711Y-94390004D01*
X152869224Y-94369171D01*
X152858840Y-94347214D01*
X152850657Y-94324345D01*
X152844756Y-94300785D01*
X152841192Y-94276759D01*
X152840000Y-94252500D01*
X152840000Y-93707500D01*
X152841192Y-93683241D01*
X152844756Y-93659215D01*
X152850657Y-93635655D01*
X152858840Y-93612786D01*
X152869224Y-93590829D01*
X152881711Y-93569996D01*
X152896180Y-93550488D01*
X152912491Y-93532491D01*
X152930488Y-93516180D01*
X152949996Y-93501711D01*
X152970829Y-93489224D01*
X152992786Y-93478840D01*
X153015655Y-93470657D01*
X153039215Y-93464756D01*
X153063241Y-93461192D01*
X153087500Y-93460000D01*
X153582500Y-93460000D01*
X153606759Y-93461192D01*
X153606759Y-93461192D01*
G37*
D11*
X153335000Y-93980000D03*
D10*
G36*
X154576759Y-93461192D02*
X154600785Y-93464756D01*
X154624345Y-93470657D01*
X154647214Y-93478840D01*
X154669171Y-93489224D01*
X154690004Y-93501711D01*
X154709512Y-93516180D01*
X154727509Y-93532491D01*
X154743820Y-93550488D01*
X154758289Y-93569996D01*
X154770776Y-93590829D01*
X154781160Y-93612786D01*
X154789343Y-93635655D01*
X154795244Y-93659215D01*
X154798808Y-93683241D01*
X154800000Y-93707500D01*
X154800000Y-94252500D01*
X154798808Y-94276759D01*
X154795244Y-94300785D01*
X154789343Y-94324345D01*
X154781160Y-94347214D01*
X154770776Y-94369171D01*
X154758289Y-94390004D01*
X154743820Y-94409512D01*
X154727509Y-94427509D01*
X154709512Y-94443820D01*
X154690004Y-94458289D01*
X154669171Y-94470776D01*
X154647214Y-94481160D01*
X154624345Y-94489343D01*
X154600785Y-94495244D01*
X154576759Y-94498808D01*
X154552500Y-94500000D01*
X154057500Y-94500000D01*
X154033241Y-94498808D01*
X154009215Y-94495244D01*
X153985655Y-94489343D01*
X153962786Y-94481160D01*
X153940829Y-94470776D01*
X153919996Y-94458289D01*
X153900488Y-94443820D01*
X153882491Y-94427509D01*
X153866180Y-94409512D01*
X153851711Y-94390004D01*
X153839224Y-94369171D01*
X153828840Y-94347214D01*
X153820657Y-94324345D01*
X153814756Y-94300785D01*
X153811192Y-94276759D01*
X153810000Y-94252500D01*
X153810000Y-93707500D01*
X153811192Y-93683241D01*
X153814756Y-93659215D01*
X153820657Y-93635655D01*
X153828840Y-93612786D01*
X153839224Y-93590829D01*
X153851711Y-93569996D01*
X153866180Y-93550488D01*
X153882491Y-93532491D01*
X153900488Y-93516180D01*
X153919996Y-93501711D01*
X153940829Y-93489224D01*
X153962786Y-93478840D01*
X153985655Y-93470657D01*
X154009215Y-93464756D01*
X154033241Y-93461192D01*
X154057500Y-93460000D01*
X154552500Y-93460000D01*
X154576759Y-93461192D01*
X154576759Y-93461192D01*
G37*
D11*
X154305000Y-93980000D03*
G04 #@! TD*
D10*
G04 #@! TO.C,C3*
G36*
X146836207Y-82691542D02*
X146867287Y-82696152D01*
X146897766Y-82703787D01*
X146927350Y-82714372D01*
X146955754Y-82727806D01*
X146982704Y-82743959D01*
X147007942Y-82762677D01*
X147031223Y-82783777D01*
X147052323Y-82807058D01*
X147071041Y-82832296D01*
X147087194Y-82859246D01*
X147100628Y-82887650D01*
X147111213Y-82917234D01*
X147118848Y-82947713D01*
X147123458Y-82978793D01*
X147125000Y-83010176D01*
X147125000Y-84194824D01*
X147123458Y-84226207D01*
X147118848Y-84257287D01*
X147111213Y-84287766D01*
X147100628Y-84317350D01*
X147087194Y-84345754D01*
X147071041Y-84372704D01*
X147052323Y-84397942D01*
X147031223Y-84421223D01*
X147007942Y-84442323D01*
X146982704Y-84461041D01*
X146955754Y-84477194D01*
X146927350Y-84490628D01*
X146897766Y-84501213D01*
X146867287Y-84508848D01*
X146836207Y-84513458D01*
X146804824Y-84515000D01*
X145295176Y-84515000D01*
X145263793Y-84513458D01*
X145232713Y-84508848D01*
X145202234Y-84501213D01*
X145172650Y-84490628D01*
X145144246Y-84477194D01*
X145117296Y-84461041D01*
X145092058Y-84442323D01*
X145068777Y-84421223D01*
X145047677Y-84397942D01*
X145028959Y-84372704D01*
X145012806Y-84345754D01*
X144999372Y-84317350D01*
X144988787Y-84287766D01*
X144981152Y-84257287D01*
X144976542Y-84226207D01*
X144975000Y-84194824D01*
X144975000Y-83010176D01*
X144976542Y-82978793D01*
X144981152Y-82947713D01*
X144988787Y-82917234D01*
X144999372Y-82887650D01*
X145012806Y-82859246D01*
X145028959Y-82832296D01*
X145047677Y-82807058D01*
X145068777Y-82783777D01*
X145092058Y-82762677D01*
X145117296Y-82743959D01*
X145144246Y-82727806D01*
X145172650Y-82714372D01*
X145202234Y-82703787D01*
X145232713Y-82696152D01*
X145263793Y-82691542D01*
X145295176Y-82690000D01*
X146804824Y-82690000D01*
X146836207Y-82691542D01*
X146836207Y-82691542D01*
G37*
D12*
X146050000Y-83602500D03*
D10*
G36*
X146836207Y-85666542D02*
X146867287Y-85671152D01*
X146897766Y-85678787D01*
X146927350Y-85689372D01*
X146955754Y-85702806D01*
X146982704Y-85718959D01*
X147007942Y-85737677D01*
X147031223Y-85758777D01*
X147052323Y-85782058D01*
X147071041Y-85807296D01*
X147087194Y-85834246D01*
X147100628Y-85862650D01*
X147111213Y-85892234D01*
X147118848Y-85922713D01*
X147123458Y-85953793D01*
X147125000Y-85985176D01*
X147125000Y-87169824D01*
X147123458Y-87201207D01*
X147118848Y-87232287D01*
X147111213Y-87262766D01*
X147100628Y-87292350D01*
X147087194Y-87320754D01*
X147071041Y-87347704D01*
X147052323Y-87372942D01*
X147031223Y-87396223D01*
X147007942Y-87417323D01*
X146982704Y-87436041D01*
X146955754Y-87452194D01*
X146927350Y-87465628D01*
X146897766Y-87476213D01*
X146867287Y-87483848D01*
X146836207Y-87488458D01*
X146804824Y-87490000D01*
X145295176Y-87490000D01*
X145263793Y-87488458D01*
X145232713Y-87483848D01*
X145202234Y-87476213D01*
X145172650Y-87465628D01*
X145144246Y-87452194D01*
X145117296Y-87436041D01*
X145092058Y-87417323D01*
X145068777Y-87396223D01*
X145047677Y-87372942D01*
X145028959Y-87347704D01*
X145012806Y-87320754D01*
X144999372Y-87292350D01*
X144988787Y-87262766D01*
X144981152Y-87232287D01*
X144976542Y-87201207D01*
X144975000Y-87169824D01*
X144975000Y-85985176D01*
X144976542Y-85953793D01*
X144981152Y-85922713D01*
X144988787Y-85892234D01*
X144999372Y-85862650D01*
X145012806Y-85834246D01*
X145028959Y-85807296D01*
X145047677Y-85782058D01*
X145068777Y-85758777D01*
X145092058Y-85737677D01*
X145117296Y-85718959D01*
X145144246Y-85702806D01*
X145172650Y-85689372D01*
X145202234Y-85678787D01*
X145232713Y-85671152D01*
X145263793Y-85666542D01*
X145295176Y-85665000D01*
X146804824Y-85665000D01*
X146836207Y-85666542D01*
X146836207Y-85666542D01*
G37*
D12*
X146050000Y-86577500D03*
G04 #@! TD*
D10*
G04 #@! TO.C,C1*
G36*
X143476207Y-99636542D02*
X143507287Y-99641152D01*
X143537766Y-99648787D01*
X143567350Y-99659372D01*
X143595754Y-99672806D01*
X143622704Y-99688959D01*
X143647942Y-99707677D01*
X143671223Y-99728777D01*
X143692323Y-99752058D01*
X143711041Y-99777296D01*
X143727194Y-99804246D01*
X143740628Y-99832650D01*
X143751213Y-99862234D01*
X143758848Y-99892713D01*
X143763458Y-99923793D01*
X143765000Y-99955176D01*
X143765000Y-101139824D01*
X143763458Y-101171207D01*
X143758848Y-101202287D01*
X143751213Y-101232766D01*
X143740628Y-101262350D01*
X143727194Y-101290754D01*
X143711041Y-101317704D01*
X143692323Y-101342942D01*
X143671223Y-101366223D01*
X143647942Y-101387323D01*
X143622704Y-101406041D01*
X143595754Y-101422194D01*
X143567350Y-101435628D01*
X143537766Y-101446213D01*
X143507287Y-101453848D01*
X143476207Y-101458458D01*
X143444824Y-101460000D01*
X141035176Y-101460000D01*
X141003793Y-101458458D01*
X140972713Y-101453848D01*
X140942234Y-101446213D01*
X140912650Y-101435628D01*
X140884246Y-101422194D01*
X140857296Y-101406041D01*
X140832058Y-101387323D01*
X140808777Y-101366223D01*
X140787677Y-101342942D01*
X140768959Y-101317704D01*
X140752806Y-101290754D01*
X140739372Y-101262350D01*
X140728787Y-101232766D01*
X140721152Y-101202287D01*
X140716542Y-101171207D01*
X140715000Y-101139824D01*
X140715000Y-99955176D01*
X140716542Y-99923793D01*
X140721152Y-99892713D01*
X140728787Y-99862234D01*
X140739372Y-99832650D01*
X140752806Y-99804246D01*
X140768959Y-99777296D01*
X140787677Y-99752058D01*
X140808777Y-99728777D01*
X140832058Y-99707677D01*
X140857296Y-99688959D01*
X140884246Y-99672806D01*
X140912650Y-99659372D01*
X140942234Y-99648787D01*
X140972713Y-99641152D01*
X141003793Y-99636542D01*
X141035176Y-99635000D01*
X143444824Y-99635000D01*
X143476207Y-99636542D01*
X143476207Y-99636542D01*
G37*
D12*
X142240000Y-100547500D03*
D10*
G36*
X143476207Y-96661542D02*
X143507287Y-96666152D01*
X143537766Y-96673787D01*
X143567350Y-96684372D01*
X143595754Y-96697806D01*
X143622704Y-96713959D01*
X143647942Y-96732677D01*
X143671223Y-96753777D01*
X143692323Y-96777058D01*
X143711041Y-96802296D01*
X143727194Y-96829246D01*
X143740628Y-96857650D01*
X143751213Y-96887234D01*
X143758848Y-96917713D01*
X143763458Y-96948793D01*
X143765000Y-96980176D01*
X143765000Y-98164824D01*
X143763458Y-98196207D01*
X143758848Y-98227287D01*
X143751213Y-98257766D01*
X143740628Y-98287350D01*
X143727194Y-98315754D01*
X143711041Y-98342704D01*
X143692323Y-98367942D01*
X143671223Y-98391223D01*
X143647942Y-98412323D01*
X143622704Y-98431041D01*
X143595754Y-98447194D01*
X143567350Y-98460628D01*
X143537766Y-98471213D01*
X143507287Y-98478848D01*
X143476207Y-98483458D01*
X143444824Y-98485000D01*
X141035176Y-98485000D01*
X141003793Y-98483458D01*
X140972713Y-98478848D01*
X140942234Y-98471213D01*
X140912650Y-98460628D01*
X140884246Y-98447194D01*
X140857296Y-98431041D01*
X140832058Y-98412323D01*
X140808777Y-98391223D01*
X140787677Y-98367942D01*
X140768959Y-98342704D01*
X140752806Y-98315754D01*
X140739372Y-98287350D01*
X140728787Y-98257766D01*
X140721152Y-98227287D01*
X140716542Y-98196207D01*
X140715000Y-98164824D01*
X140715000Y-96980176D01*
X140716542Y-96948793D01*
X140721152Y-96917713D01*
X140728787Y-96887234D01*
X140739372Y-96857650D01*
X140752806Y-96829246D01*
X140768959Y-96802296D01*
X140787677Y-96777058D01*
X140808777Y-96753777D01*
X140832058Y-96732677D01*
X140857296Y-96713959D01*
X140884246Y-96697806D01*
X140912650Y-96684372D01*
X140942234Y-96673787D01*
X140972713Y-96666152D01*
X141003793Y-96661542D01*
X141035176Y-96660000D01*
X143444824Y-96660000D01*
X143476207Y-96661542D01*
X143476207Y-96661542D01*
G37*
D12*
X142240000Y-97572500D03*
G04 #@! TD*
D13*
G04 #@! TO.C,U1*
X145415000Y-109220000D03*
D14*
X142875000Y-109220000D03*
G04 #@! TD*
D15*
G04 #@! TO.C,J1*
X150703280Y-80010000D03*
X148691600Y-80010000D03*
X146685000Y-80010000D03*
X144673320Y-80010000D03*
D16*
X153763980Y-77292200D03*
X141612620Y-77292200D03*
G04 #@! TD*
D17*
G04 #@! TO.C,D2*
X152140000Y-88900000D03*
X154940000Y-88900000D03*
G04 #@! TD*
G04 #@! TO.C,D1*
X158750000Y-77975000D03*
X158750000Y-80775000D03*
G04 #@! TD*
D10*
G04 #@! TO.C,F1*
G36*
X158126552Y-106296433D02*
X158155443Y-106300719D01*
X158183775Y-106307815D01*
X158211274Y-106317655D01*
X158237677Y-106330143D01*
X158262729Y-106345158D01*
X158286188Y-106362557D01*
X158307829Y-106382171D01*
X158327443Y-106403812D01*
X158344842Y-106427271D01*
X158359857Y-106452323D01*
X158372345Y-106478726D01*
X158382185Y-106506225D01*
X158389281Y-106534557D01*
X158393567Y-106563448D01*
X158395000Y-106592620D01*
X158395000Y-111847380D01*
X158393567Y-111876552D01*
X158389281Y-111905443D01*
X158382185Y-111933775D01*
X158372345Y-111961274D01*
X158359857Y-111987677D01*
X158344842Y-112012729D01*
X158327443Y-112036188D01*
X158307829Y-112057829D01*
X158286188Y-112077443D01*
X158262729Y-112094842D01*
X158237677Y-112109857D01*
X158211274Y-112122345D01*
X158183775Y-112132185D01*
X158155443Y-112139281D01*
X158126552Y-112143567D01*
X158097380Y-112145000D01*
X156192620Y-112145000D01*
X156163448Y-112143567D01*
X156134557Y-112139281D01*
X156106225Y-112132185D01*
X156078726Y-112122345D01*
X156052323Y-112109857D01*
X156027271Y-112094842D01*
X156003812Y-112077443D01*
X155982171Y-112057829D01*
X155962557Y-112036188D01*
X155945158Y-112012729D01*
X155930143Y-111987677D01*
X155917655Y-111961274D01*
X155907815Y-111933775D01*
X155900719Y-111905443D01*
X155896433Y-111876552D01*
X155895000Y-111847380D01*
X155895000Y-106592620D01*
X155896433Y-106563448D01*
X155900719Y-106534557D01*
X155907815Y-106506225D01*
X155917655Y-106478726D01*
X155930143Y-106452323D01*
X155945158Y-106427271D01*
X155962557Y-106403812D01*
X155982171Y-106382171D01*
X156003812Y-106362557D01*
X156027271Y-106345158D01*
X156052323Y-106330143D01*
X156078726Y-106317655D01*
X156106225Y-106307815D01*
X156134557Y-106300719D01*
X156163448Y-106296433D01*
X156192620Y-106295000D01*
X158097380Y-106295000D01*
X158126552Y-106296433D01*
X158126552Y-106296433D01*
G37*
D18*
X157145000Y-109220000D03*
D10*
G36*
X151176552Y-106296433D02*
X151205443Y-106300719D01*
X151233775Y-106307815D01*
X151261274Y-106317655D01*
X151287677Y-106330143D01*
X151312729Y-106345158D01*
X151336188Y-106362557D01*
X151357829Y-106382171D01*
X151377443Y-106403812D01*
X151394842Y-106427271D01*
X151409857Y-106452323D01*
X151422345Y-106478726D01*
X151432185Y-106506225D01*
X151439281Y-106534557D01*
X151443567Y-106563448D01*
X151445000Y-106592620D01*
X151445000Y-111847380D01*
X151443567Y-111876552D01*
X151439281Y-111905443D01*
X151432185Y-111933775D01*
X151422345Y-111961274D01*
X151409857Y-111987677D01*
X151394842Y-112012729D01*
X151377443Y-112036188D01*
X151357829Y-112057829D01*
X151336188Y-112077443D01*
X151312729Y-112094842D01*
X151287677Y-112109857D01*
X151261274Y-112122345D01*
X151233775Y-112132185D01*
X151205443Y-112139281D01*
X151176552Y-112143567D01*
X151147380Y-112145000D01*
X149242620Y-112145000D01*
X149213448Y-112143567D01*
X149184557Y-112139281D01*
X149156225Y-112132185D01*
X149128726Y-112122345D01*
X149102323Y-112109857D01*
X149077271Y-112094842D01*
X149053812Y-112077443D01*
X149032171Y-112057829D01*
X149012557Y-112036188D01*
X148995158Y-112012729D01*
X148980143Y-111987677D01*
X148967655Y-111961274D01*
X148957815Y-111933775D01*
X148950719Y-111905443D01*
X148946433Y-111876552D01*
X148945000Y-111847380D01*
X148945000Y-106592620D01*
X148946433Y-106563448D01*
X148950719Y-106534557D01*
X148957815Y-106506225D01*
X148967655Y-106478726D01*
X148980143Y-106452323D01*
X148995158Y-106427271D01*
X149012557Y-106403812D01*
X149032171Y-106382171D01*
X149053812Y-106362557D01*
X149077271Y-106345158D01*
X149102323Y-106330143D01*
X149128726Y-106317655D01*
X149156225Y-106307815D01*
X149184557Y-106300719D01*
X149213448Y-106296433D01*
X149242620Y-106295000D01*
X151147380Y-106295000D01*
X151176552Y-106296433D01*
X151176552Y-106296433D01*
G37*
D18*
X150195000Y-109220000D03*
G04 #@! TD*
D19*
G04 #@! TO.C,L1*
X154645000Y-82550000D03*
X152695000Y-82550000D03*
G04 #@! TD*
D10*
G04 #@! TO.C,R1*
G36*
X144565581Y-103466625D02*
X144598343Y-103471485D01*
X144630471Y-103479533D01*
X144661656Y-103490691D01*
X144691596Y-103504852D01*
X144720005Y-103521879D01*
X144746608Y-103541609D01*
X144771149Y-103563851D01*
X144793391Y-103588392D01*
X144813121Y-103614995D01*
X144830148Y-103643404D01*
X144844309Y-103673344D01*
X144855467Y-103704529D01*
X144863515Y-103736657D01*
X144868375Y-103769419D01*
X144870000Y-103802500D01*
X144870000Y-104477500D01*
X144868375Y-104510581D01*
X144863515Y-104543343D01*
X144855467Y-104575471D01*
X144844309Y-104606656D01*
X144830148Y-104636596D01*
X144813121Y-104665005D01*
X144793391Y-104691608D01*
X144771149Y-104716149D01*
X144746608Y-104738391D01*
X144720005Y-104758121D01*
X144691596Y-104775148D01*
X144661656Y-104789309D01*
X144630471Y-104800467D01*
X144598343Y-104808515D01*
X144565581Y-104813375D01*
X144532500Y-104815000D01*
X143757500Y-104815000D01*
X143724419Y-104813375D01*
X143691657Y-104808515D01*
X143659529Y-104800467D01*
X143628344Y-104789309D01*
X143598404Y-104775148D01*
X143569995Y-104758121D01*
X143543392Y-104738391D01*
X143518851Y-104716149D01*
X143496609Y-104691608D01*
X143476879Y-104665005D01*
X143459852Y-104636596D01*
X143445691Y-104606656D01*
X143434533Y-104575471D01*
X143426485Y-104543343D01*
X143421625Y-104510581D01*
X143420000Y-104477500D01*
X143420000Y-103802500D01*
X143421625Y-103769419D01*
X143426485Y-103736657D01*
X143434533Y-103704529D01*
X143445691Y-103673344D01*
X143459852Y-103643404D01*
X143476879Y-103614995D01*
X143496609Y-103588392D01*
X143518851Y-103563851D01*
X143543392Y-103541609D01*
X143569995Y-103521879D01*
X143598404Y-103504852D01*
X143628344Y-103490691D01*
X143659529Y-103479533D01*
X143691657Y-103471485D01*
X143724419Y-103466625D01*
X143757500Y-103465000D01*
X144532500Y-103465000D01*
X144565581Y-103466625D01*
X144565581Y-103466625D01*
G37*
D20*
X144145000Y-104140000D03*
D10*
G36*
X146315581Y-103466625D02*
X146348343Y-103471485D01*
X146380471Y-103479533D01*
X146411656Y-103490691D01*
X146441596Y-103504852D01*
X146470005Y-103521879D01*
X146496608Y-103541609D01*
X146521149Y-103563851D01*
X146543391Y-103588392D01*
X146563121Y-103614995D01*
X146580148Y-103643404D01*
X146594309Y-103673344D01*
X146605467Y-103704529D01*
X146613515Y-103736657D01*
X146618375Y-103769419D01*
X146620000Y-103802500D01*
X146620000Y-104477500D01*
X146618375Y-104510581D01*
X146613515Y-104543343D01*
X146605467Y-104575471D01*
X146594309Y-104606656D01*
X146580148Y-104636596D01*
X146563121Y-104665005D01*
X146543391Y-104691608D01*
X146521149Y-104716149D01*
X146496608Y-104738391D01*
X146470005Y-104758121D01*
X146441596Y-104775148D01*
X146411656Y-104789309D01*
X146380471Y-104800467D01*
X146348343Y-104808515D01*
X146315581Y-104813375D01*
X146282500Y-104815000D01*
X145507500Y-104815000D01*
X145474419Y-104813375D01*
X145441657Y-104808515D01*
X145409529Y-104800467D01*
X145378344Y-104789309D01*
X145348404Y-104775148D01*
X145319995Y-104758121D01*
X145293392Y-104738391D01*
X145268851Y-104716149D01*
X145246609Y-104691608D01*
X145226879Y-104665005D01*
X145209852Y-104636596D01*
X145195691Y-104606656D01*
X145184533Y-104575471D01*
X145176485Y-104543343D01*
X145171625Y-104510581D01*
X145170000Y-104477500D01*
X145170000Y-103802500D01*
X145171625Y-103769419D01*
X145176485Y-103736657D01*
X145184533Y-103704529D01*
X145195691Y-103673344D01*
X145209852Y-103643404D01*
X145226879Y-103614995D01*
X145246609Y-103588392D01*
X145268851Y-103563851D01*
X145293392Y-103541609D01*
X145319995Y-103521879D01*
X145348404Y-103504852D01*
X145378344Y-103490691D01*
X145409529Y-103479533D01*
X145441657Y-103471485D01*
X145474419Y-103466625D01*
X145507500Y-103465000D01*
X146282500Y-103465000D01*
X146315581Y-103466625D01*
X146315581Y-103466625D01*
G37*
D20*
X145895000Y-104140000D03*
G04 #@! TD*
D21*
G04 #@! TO.C,U2*
X148767800Y-98425000D03*
X148767800Y-99695000D03*
X148767800Y-100965000D03*
X148767800Y-102235000D03*
X153492200Y-102235000D03*
X153492200Y-100965000D03*
X153492200Y-99695000D03*
X153492200Y-98425000D03*
D22*
X151130000Y-100330000D03*
G04 #@! TD*
M02*
